<mxfile host="app.diagrams.net" modified="2024-07-01T06:26:18.570Z" agent="Mozilla/5.0 (Windows NT 10.0; Win64; x64) AppleWebKit/537.36 (KHTML, like Gecko) Chrome/126.0.0.0 Safari/537.36" etag="9gmg8x3DbnX1A3H9rI2m" version="24.6.4" type="device">
  <diagram name="Page-1" id="AX3wEeyzLWRbnekUrrdg">
    <mxGraphModel dx="1114" dy="550" grid="1" gridSize="10" guides="1" tooltips="1" connect="1" arrows="1" fold="1" page="1" pageScale="1" pageWidth="850" pageHeight="1100" math="0" shadow="0">
      <root>
        <mxCell id="0" />
        <mxCell id="1" parent="0" />
        <mxCell id="ioxh7YS2Wrq7KAAOuE-T-46" value="" style="rounded=0;whiteSpace=wrap;html=1;strokeColor=#0a0a0a;align=center;verticalAlign=middle;fontFamily=Helvetica;fontSize=12;fontColor=default;fillColor=default;" parent="1" vertex="1">
          <mxGeometry x="20" y="520" width="1140" height="670" as="geometry" />
        </mxCell>
        <mxCell id="ioxh7YS2Wrq7KAAOuE-T-12" value="" style="edgeStyle=orthogonalEdgeStyle;rounded=0;orthogonalLoop=1;jettySize=auto;html=1;fontFamily=Helvetica;fontSize=12;fontColor=default;strokeColor=#307f05;" parent="1" source="rh0yyX7Cag9psTpbF8bi-2" target="ioxh7YS2Wrq7KAAOuE-T-11" edge="1">
          <mxGeometry relative="1" as="geometry" />
        </mxCell>
        <mxCell id="rh0yyX7Cag9psTpbF8bi-2" value="&lt;font style=&quot;font-size: 16px;&quot;&gt;QUERY&lt;/font&gt;" style="rounded=1;whiteSpace=wrap;html=1;strokeWidth=2;fontColor=#032d60;strokeColor=#032d60;" parent="1" vertex="1">
          <mxGeometry x="190" y="765" width="110" height="50" as="geometry" />
        </mxCell>
        <mxCell id="ioxh7YS2Wrq7KAAOuE-T-35" style="edgeStyle=orthogonalEdgeStyle;rounded=0;orthogonalLoop=1;jettySize=auto;html=1;entryX=0;entryY=0.5;entryDx=0;entryDy=0;fontFamily=Helvetica;fontSize=12;fontColor=default;strokeColor=#307f05;" parent="1" source="ioxh7YS2Wrq7KAAOuE-T-2" target="rh0yyX7Cag9psTpbF8bi-2" edge="1">
          <mxGeometry relative="1" as="geometry" />
        </mxCell>
        <mxCell id="ioxh7YS2Wrq7KAAOuE-T-2" value="" style="verticalLabelPosition=bottom;aspect=fixed;html=1;shape=mxgraph.salesforce.personalization2;strokeColor=default;align=center;verticalAlign=middle;fontFamily=Helvetica;fontSize=12;fontColor=default;fillColor=default;" parent="1" vertex="1">
          <mxGeometry x="70" y="760" width="60" height="60" as="geometry" />
        </mxCell>
        <mxCell id="ioxh7YS2Wrq7KAAOuE-T-7" value="" style="rounded=1;whiteSpace=wrap;html=1;strokeWidth=2;fontColor=#032d60;strokeColor=#032d60;dashed=1;" parent="1" vertex="1">
          <mxGeometry x="630" y="570" width="180" height="280" as="geometry" />
        </mxCell>
        <mxCell id="ioxh7YS2Wrq7KAAOuE-T-33" style="edgeStyle=orthogonalEdgeStyle;rounded=0;orthogonalLoop=1;jettySize=auto;html=1;entryX=0;entryY=0.5;entryDx=0;entryDy=0;fontFamily=Helvetica;fontSize=12;fontColor=default;strokeColor=#307f05;" parent="1" source="ioxh7YS2Wrq7KAAOuE-T-8" target="ioxh7YS2Wrq7KAAOuE-T-23" edge="1">
          <mxGeometry relative="1" as="geometry" />
        </mxCell>
        <mxCell id="ioxh7YS2Wrq7KAAOuE-T-8" value="" style="verticalLabelPosition=bottom;aspect=fixed;html=1;shape=mxgraph.salesforce.data2;strokeColor=default;align=center;verticalAlign=middle;fontFamily=Helvetica;fontSize=12;fontColor=default;fillColor=default;" parent="1" vertex="1">
          <mxGeometry x="687.5" y="750" width="62.5" height="62.5" as="geometry" />
        </mxCell>
        <mxCell id="ioxh7YS2Wrq7KAAOuE-T-37" value="" style="edgeStyle=orthogonalEdgeStyle;rounded=0;orthogonalLoop=1;jettySize=auto;html=1;fontFamily=Helvetica;fontSize=12;fontColor=default;" parent="1" source="ioxh7YS2Wrq7KAAOuE-T-9" target="ioxh7YS2Wrq7KAAOuE-T-8" edge="1">
          <mxGeometry relative="1" as="geometry" />
        </mxCell>
        <mxCell id="ioxh7YS2Wrq7KAAOuE-T-9" value="&lt;span style=&quot;font-size: 16px;&quot;&gt;EMBEDDINGS&lt;/span&gt;" style="rounded=1;whiteSpace=wrap;html=1;strokeWidth=2;fontColor=#032d60;strokeColor=#032d60;" parent="1" vertex="1">
          <mxGeometry x="657.5" y="680" width="122.5" height="40" as="geometry" />
        </mxCell>
        <mxCell id="ioxh7YS2Wrq7KAAOuE-T-36" value="" style="edgeStyle=orthogonalEdgeStyle;rounded=0;orthogonalLoop=1;jettySize=auto;html=1;fontFamily=Helvetica;fontSize=12;fontColor=default;" parent="1" source="ioxh7YS2Wrq7KAAOuE-T-10" target="ioxh7YS2Wrq7KAAOuE-T-9" edge="1">
          <mxGeometry relative="1" as="geometry" />
        </mxCell>
        <mxCell id="ioxh7YS2Wrq7KAAOuE-T-10" value="&lt;span style=&quot;font-size: 16px;&quot;&gt;DOCUMENT&lt;/span&gt;" style="rounded=1;whiteSpace=wrap;html=1;strokeWidth=2;fontColor=#032d60;strokeColor=#032d60;" parent="1" vertex="1">
          <mxGeometry x="656.25" y="600" width="123.75" height="50" as="geometry" />
        </mxCell>
        <mxCell id="ioxh7YS2Wrq7KAAOuE-T-15" style="edgeStyle=orthogonalEdgeStyle;rounded=0;orthogonalLoop=1;jettySize=auto;html=1;fontFamily=Helvetica;fontSize=12;fontColor=default;strokeColor=#307f05;" parent="1" source="ioxh7YS2Wrq7KAAOuE-T-11" target="ioxh7YS2Wrq7KAAOuE-T-8" edge="1">
          <mxGeometry relative="1" as="geometry">
            <Array as="points">
              <mxPoint x="640" y="790" />
              <mxPoint x="640" y="790" />
            </Array>
          </mxGeometry>
        </mxCell>
        <mxCell id="ioxh7YS2Wrq7KAAOuE-T-39" style="edgeStyle=orthogonalEdgeStyle;rounded=0;orthogonalLoop=1;jettySize=auto;html=1;entryX=-0.029;entryY=0.446;entryDx=0;entryDy=0;fontFamily=Helvetica;fontSize=12;fontColor=default;entryPerimeter=0;strokeColor=#ea1010;" parent="1" source="ioxh7YS2Wrq7KAAOuE-T-11" target="ioxh7YS2Wrq7KAAOuE-T-16" edge="1">
          <mxGeometry relative="1" as="geometry">
            <Array as="points">
              <mxPoint x="420" y="965" />
            </Array>
          </mxGeometry>
        </mxCell>
        <mxCell id="ioxh7YS2Wrq7KAAOuE-T-11" value="&lt;span style=&quot;font-size: 16px;&quot;&gt;ROUTING&lt;/span&gt;" style="rounded=1;whiteSpace=wrap;html=1;strokeWidth=2;fontColor=#032d60;strokeColor=#032d60;" parent="1" vertex="1">
          <mxGeometry x="360" y="765" width="130" height="50" as="geometry" />
        </mxCell>
        <mxCell id="ioxh7YS2Wrq7KAAOuE-T-16" value="" style="rounded=1;whiteSpace=wrap;html=1;strokeWidth=2;fontColor=#032d60;strokeColor=#032d60;dashed=1;" parent="1" vertex="1">
          <mxGeometry x="630" y="880" width="180" height="190" as="geometry" />
        </mxCell>
        <mxCell id="ioxh7YS2Wrq7KAAOuE-T-38" value="" style="edgeStyle=orthogonalEdgeStyle;rounded=0;orthogonalLoop=1;jettySize=auto;html=1;fontFamily=Helvetica;fontSize=12;fontColor=default;" parent="1" source="ioxh7YS2Wrq7KAAOuE-T-18" target="ioxh7YS2Wrq7KAAOuE-T-19" edge="1">
          <mxGeometry relative="1" as="geometry" />
        </mxCell>
        <mxCell id="ioxh7YS2Wrq7KAAOuE-T-18" value="&lt;span style=&quot;font-size: 16px;&quot;&gt;CSV&lt;/span&gt;" style="rounded=1;whiteSpace=wrap;html=1;strokeWidth=2;fontColor=#032d60;strokeColor=#032d60;" parent="1" vertex="1">
          <mxGeometry x="650" y="990" width="150" height="40" as="geometry" />
        </mxCell>
        <mxCell id="ioxh7YS2Wrq7KAAOuE-T-19" value="&lt;span style=&quot;font-size: 16px;&quot;&gt;AGENT&lt;/span&gt;" style="rounded=1;whiteSpace=wrap;html=1;strokeWidth=2;fontColor=#032d60;strokeColor=#032d60;" parent="1" vertex="1">
          <mxGeometry x="650" y="900" width="150" height="50" as="geometry" />
        </mxCell>
        <mxCell id="ioxh7YS2Wrq7KAAOuE-T-23" value="" style="rounded=1;whiteSpace=wrap;html=1;strokeWidth=2;fontColor=#032d60;strokeColor=#032d60;dashed=1;" parent="1" vertex="1">
          <mxGeometry x="940" y="750" width="180" height="220" as="geometry" />
        </mxCell>
        <mxCell id="ioxh7YS2Wrq7KAAOuE-T-24" value="&lt;span style=&quot;font-size: 16px;&quot;&gt;QUERY&lt;/span&gt;" style="rounded=1;whiteSpace=wrap;html=1;strokeWidth=2;fontColor=#032d60;strokeColor=#032d60;" parent="1" vertex="1">
          <mxGeometry x="955" y="900" width="150" height="50" as="geometry" />
        </mxCell>
        <mxCell id="ioxh7YS2Wrq7KAAOuE-T-25" value="&lt;span style=&quot;font-size: 16px;&quot;&gt;PROMPT&lt;/span&gt;" style="rounded=1;whiteSpace=wrap;html=1;strokeWidth=2;fontColor=#032d60;strokeColor=#032d60;" parent="1" vertex="1">
          <mxGeometry x="955" y="770" width="150" height="50" as="geometry" />
        </mxCell>
        <mxCell id="ioxh7YS2Wrq7KAAOuE-T-26" value="&lt;span style=&quot;font-size: 16px;&quot;&gt;CONTEXT&lt;/span&gt;" style="rounded=1;whiteSpace=wrap;html=1;strokeWidth=2;fontColor=#032d60;strokeColor=#032d60;" parent="1" vertex="1">
          <mxGeometry x="955" y="835" width="150" height="50" as="geometry" />
        </mxCell>
        <mxCell id="ioxh7YS2Wrq7KAAOuE-T-30" style="edgeStyle=orthogonalEdgeStyle;rounded=0;orthogonalLoop=1;jettySize=auto;html=1;entryX=1;entryY=0.5;entryDx=0;entryDy=0;fontFamily=Helvetica;fontSize=12;fontColor=default;" parent="1" source="ioxh7YS2Wrq7KAAOuE-T-27" target="ioxh7YS2Wrq7KAAOuE-T-29" edge="1">
          <mxGeometry relative="1" as="geometry" />
        </mxCell>
        <mxCell id="ioxh7YS2Wrq7KAAOuE-T-27" value="" style="verticalLabelPosition=bottom;aspect=fixed;html=1;shape=mxgraph.salesforce.stream2;strokeColor=default;align=center;verticalAlign=middle;fontFamily=Helvetica;fontSize=12;fontColor=default;fillColor=default;" parent="1" vertex="1">
          <mxGeometry x="520" y="1080" width="60" height="60" as="geometry" />
        </mxCell>
        <mxCell id="ioxh7YS2Wrq7KAAOuE-T-28" style="edgeStyle=orthogonalEdgeStyle;rounded=0;orthogonalLoop=1;jettySize=auto;html=1;fontFamily=Helvetica;fontSize=12;fontColor=default;entryX=1.005;entryY=0.538;entryDx=0;entryDy=0;entryPerimeter=0;" parent="1" source="ioxh7YS2Wrq7KAAOuE-T-23" target="ioxh7YS2Wrq7KAAOuE-T-27" edge="1">
          <mxGeometry relative="1" as="geometry">
            <mxPoint x="660" y="1123" as="targetPoint" />
            <Array as="points">
              <mxPoint x="1030" y="1112" />
            </Array>
          </mxGeometry>
        </mxCell>
        <mxCell id="ioxh7YS2Wrq7KAAOuE-T-32" style="edgeStyle=orthogonalEdgeStyle;rounded=0;orthogonalLoop=1;jettySize=auto;html=1;fontFamily=Helvetica;fontSize=12;fontColor=default;entryX=0.429;entryY=1;entryDx=0;entryDy=0;entryPerimeter=0;" parent="1" source="ioxh7YS2Wrq7KAAOuE-T-29" target="ioxh7YS2Wrq7KAAOuE-T-41" edge="1">
          <mxGeometry relative="1" as="geometry">
            <mxPoint x="95" y="870" as="targetPoint" />
          </mxGeometry>
        </mxCell>
        <mxCell id="ioxh7YS2Wrq7KAAOuE-T-29" value="&lt;span style=&quot;font-size: 16px;&quot;&gt;RESPONSE&lt;/span&gt;" style="rounded=1;whiteSpace=wrap;html=1;strokeWidth=2;fontColor=#032d60;strokeColor=#032d60;" parent="1" vertex="1">
          <mxGeometry x="40" y="1085" width="110" height="50" as="geometry" />
        </mxCell>
        <mxCell id="ioxh7YS2Wrq7KAAOuE-T-34" style="edgeStyle=orthogonalEdgeStyle;rounded=0;orthogonalLoop=1;jettySize=auto;html=1;entryX=-0.024;entryY=0.533;entryDx=0;entryDy=0;entryPerimeter=0;fontFamily=Helvetica;fontSize=12;fontColor=default;strokeColor=#eb0f0f;" parent="1" source="ioxh7YS2Wrq7KAAOuE-T-16" target="ioxh7YS2Wrq7KAAOuE-T-23" edge="1">
          <mxGeometry relative="1" as="geometry">
            <Array as="points">
              <mxPoint x="850" y="970" />
              <mxPoint x="850" y="867" />
            </Array>
          </mxGeometry>
        </mxCell>
        <mxCell id="ioxh7YS2Wrq7KAAOuE-T-41" value="USER" style="text;html=1;align=center;verticalAlign=middle;resizable=0;points=[];autosize=1;strokeColor=none;fillColor=none;fontFamily=Helvetica;fontSize=15;fontColor=default;fontStyle=1" parent="1" vertex="1">
          <mxGeometry x="65" y="820" width="70" height="30" as="geometry" />
        </mxCell>
        <mxCell id="ioxh7YS2Wrq7KAAOuE-T-42" value="VECTOR DB" style="text;html=1;align=center;verticalAlign=middle;resizable=0;points=[];autosize=1;strokeColor=none;fillColor=none;fontFamily=Helvetica;fontSize=15;fontColor=default;fontStyle=1" parent="1" vertex="1">
          <mxGeometry x="663.13" y="815" width="110" height="30" as="geometry" />
        </mxCell>
        <mxCell id="ioxh7YS2Wrq7KAAOuE-T-43" value="LLM" style="text;html=1;align=center;verticalAlign=middle;resizable=0;points=[];autosize=1;strokeColor=none;fillColor=none;fontFamily=Helvetica;fontSize=15;fontColor=default;fontStyle=1" parent="1" vertex="1">
          <mxGeometry x="525" y="1150" width="50" height="30" as="geometry" />
        </mxCell>
        <mxCell id="ioxh7YS2Wrq7KAAOuE-T-47" value="" style="shape=image;verticalLabelPosition=bottom;labelBackgroundColor=default;verticalAlign=top;aspect=fixed;imageAspect=0;image=data:image/png,iVBORw0KGgoAAAANSUhEUgAAAxsAAADDCAYAAADqWwwWAAAAAXNSR0IArs4c6QAAAARnQU1BAACxjwv8YQUAAAAJcEhZcwAACxMAAAsTAQCanBgAAP+lSURBVHhe7F0HgFxV1f52et/es+m9N0LvRQUEsYAURZQqKlYEEURRUVEpFn5U7IBI770FQkjvvW6yve/OzE7f+c9337xkgSQ7G3aTIPfb3MzMe/fdd8u5557v1py0ABoaGhoaGhoaGhoaGgMMS+ZTQ0NDQ0NDQ0NDQ0NjQKHJhoaGhoaGhoaGhobGoECTDQ0NDQ0NDQ0NDQ2NQYEmGxoaGhoaGhoaGhoagwJNNjQ0NDQ0NDQ0NDQ0BgWabGhoaGhoaGhoaGhoDAo02dDQ0NDQ0NDQ0NDQGBRosqGhoaGhoaGhoaGhMSjQZENDQ0NDQ0NDQ0NDY1CgyYaGhoaGhoaGhoaGxqBAkw0NDQ0NDQ0NDQ0NjUGBJhsaGhoaGhoaGhoaGoMCTTY0NDQ0NDQ0NDQ0NAYFmmxoaGhoaGhoaGhoaAwKNNnQ0NDQ0NDQ0NDQ0BgUaLKhoaGhoaGhoaGhoTEo0GRDQ0NDQ0NDQ0NDQ2NQoMmGhoaGhoaGhoaGhsagQJMNDQ0NDQ0NDQ0NDY1BgSYbGhoaGhoaGhoaGhqDAk02NDQ0NDQ0NDQ0NDQGBZpsaGhoaGhoaGhoaGgMCjTZ0NDQ0NDQ0NDQ0NAYFGiyoaGhoaGhoaGhoaExKNBkQ0NDQ0NDQ0NDQ0NjUKDJhoaGhoaGhoaGhobGoECTDQ0NDQ0NDQ0NDQ2NQYEmGxoaGhoaGhoaGhoagwJNNjQ0NDQ0NDQ0NDQ0BgWabGhoaGhoaGhoaGhoDAo02dDQ0NDQ0NDQ0NDQGBRosqGhoaGhoaGhoaGhMSjQZENDQ0NDQ0NDQ0NDY1CgyYaGhoaGhoaGhoaGxqBAkw0NDQ0NDQ0NDQ0NjUFBTlqQ+a6hoXGA0dPTk/lmoHdlzMl8mrBYdN+AhoaGhoaGxocLmmxoaBxAGNzCIBiseNZ+EIi0PGxSkxx5blCph6kWct5LeTQ0NDQ0NDQ0socmGxoaBwAkGbTb92a7J5NJxBNxJJIppHrSYuun4XQ44HY5hJBYM77eD5N8DDjxiEYNwuFyacKhoaGhoaGhsd84CGQjYx7xQ1lIfZhJvaeZ7PI6qH26GhoDAk6RyhFDna43gsFuNLW1o7G5HQ1N7Wjt7EJ7MIyucAyxaBLJdApp5AjZsMPjdsArzu/1oCg/F5XFeSgXV1laCJvdkQnRgDkla0CmWwn5UWTDbs9c0NDQ0NDQ0NDoPw4c2TBJwwc1hHoYXXEqGE06NA49pETW3zs9qra+Geu37sCqDTtR09gqZCOIzu4IYokUrDl22B025axWO2xWq5JshhNPJJGICwFJJYS0pOEWApLnc6KsJA+jK0swedxwTBgzFG6n03iRgFVtIPiGhoaGhoaGhsYHxYEhG3xFr97dVCqJSLQZ3Z11iIWa5X4QyWQnkpGw4hEuvxNOpw9WZ564EtidFXC6CmCzeTIh9MauIRINjYMKSqJUqF0jGeFwCMvWbsPClRuxYXs9WjsjSMl1u80Ot8sNl9cj5MElsu2ETUiETYgGRyX4tKUnpUYqUj1CNpIpxOIJRMXFxUUicfmMIZWMwW23oqo8F3OmjsQR08ahvKREvZvg83pRuYaGhoaGhsbBxCCSDWV6ZZz8SqURbNmCYPsqhLrWI9pWg5xEEBbhD1a33Gc04jmweWxCLqxIRXoQDSeQjAv/sHrgcBcJCRkGT+5Q5BaOgc8/Qiyy3QRGQ+Ng4d2SDrR3dmHe0nV4bcFqbKttEf5shcfrQ14gAL84n0sIhlvIhtOBHKtNuLhBMNLyHxd+p3MMgtDTk0ayRy6mhXQIQe9JJoR4iOPaDkU+4ggGg1KfQlJPoijNd+KIycNx0hFTUFlZrsJg5TbjpaGhoaGhoaFxoDHoIxtiLqGlZjFaNs9DpG2dXOmAJZWCLccKV4kPbp9dkQyL3QZnvh1Or0PNAUlJtDh1JBaJo7s7hlgoimhXAvGYBGHNhy9/AsqHnYjCsqm9Bjb0KIfGgUVaiEBOhhx0R7rx+vyVeGn+amxvaIfD6UJhQT7y8/IQCOTB4/HBK84pZMPhtgupdhgjGTk5sEoQVgknTXrAEY0ERzV6kBCSnkr1COlIIy7XOLJhEA2u74ggEZPPRBTdoW50CMmJRDpR7Lfj5MPG4uSjpst7AypuumZoaGhoaGhoHAwMKtnobFyPHa88iPbVC4VMBOEq9sHBXl2vG55SlxhbQjLSFth9DtiK7HD4xNhSvbzyZ8lRvbJiyhnEg4ZWJIlwewjBjiCCwbgYYH4UlB6N0ZM+JaTFnD6izSqNwYex+JtEwfi9ZNV6PPnaUqzeUgeH3Y2SklKUFRcjr7AQuXkB+H0eeHxO+LwuuN02kW/jOWuPyLkQlh5OlRJiEU3IZ4IjGJw+lRTSkUSau1PRX4p1gnXEimQ6R/mPRyLojnajOxwW8tGNsHy2tHYg1t2BcRVenHPqbEybOF69i1X9vYvVNTQ0NDQ0NDQGE4NGNlrWL8D6v96B7tVrYU1Z4cj3wF4oBMNnhW+YF/6xflhcdtjz7HCXGHPWGRFlDJEvCDitRIG/JZokHXExxCLBBEKhKNrbQmhrjcCVNw2TZ12CoqJRhn8NjUGEcINdZKGtvR1PvLwQry5ch2jSioqyMpSLKxSiUVJaiNLiAHL9NnidVjht8pxVxDkJxGJAtxCL7mgcoUgU4VBQCEMI8XA3UrGokIwoclIpWFkJbFIzbHb1sM3hhNXhEueWn04hHQ6pF3bE4j0IdQvxiHQjIoSjsyuI5qY6uNNhnH7UJJxxymwJwmVEWkNDQ0NDQ0PjAGFQyEbXjg1YffuP0LV8BZweL2C1wWK1wOa3w+oWsjHCi6LZxcgb7oEj4IbFaUGip0dt+2mx5IgRZcxhV//RSQzJQRhTRjceTyISSaIrFBdjr1uMqjbYnKMxbfblqKicwic1NAYFihAbX7FszQb895m3sbGmE7lFhRhaWYVhQ8rlswRlpV4UBBzwOYQnyAN8JiYkIywko60rgpa2NiHKzehqqEOoqR6h5kZE2tsQC3UiEY6otRk9SS7wtgqxscLq4kigkHOpT868PLjz8pVz0XkKYPfmo8fiQiJll3fEEJIwIqEQmpqa0N5Sj6MmluL8Tx6L/Px8I/IaGhoaGhoaGgcAA042uIh12Z0/RdMrT8Ll5px0u1xMw+awwOqxqh7avPE+FB9WgDV1QSxYXItkPIbDZlVgxuwKuS/GlVhnNrtVERRaaWpHHZNs8B3yJZlMIdwtRlVXHC0dETQ3tyNtG4qZs67AiBGzjMjoKVUaAwTjDIscRYZTiTiefW0RnnhjmRj2dlQNHYphwyswYmi5uHyU59rhFbGz5RjUJCYfneEk6lvbUFdTh/od1WjaugVdO6vR3dKEcGe7MSIhMp0QCU8Ks+6R5zmS1yO/OX2K65ysUgc8QtwdDgc8bg88gVz4i4vhLylFoKhcvpcKESkVUpKHeNqBYCSGSDSCppZ21O7YhEmVXnzp0ycLESqWeBlx09DQ0NDQ0NAYTAwc2aAxJqSg9vVXsfKun8JlCcPqcyGHc9tppJFEOLitrR09lU48vr5RjLXN6O6KwZJjRZ7fhnM+PhannTAMvnwn7F473D4H7HYbrDaLEA8xjHpohEloEuOedA/iqQQisQTaO+Jo6+xGc0sHkulKHH30NzBy+IxMxDQ0Phh6byHb0d6O+556E3NXbIMvUIgxo0cK0RiCCSOKMbzYBZ9diHLGkE/I/53RFGrqm1C9aTN2bliPpg0b0VZTjfa2FoQjIXSnkojBirSEn7YKMReinSP1IUfkXY3mSRicSZVOUuiFepB0pHpg60mBR/p5bA74/V74Ckvgr6xEfuUQ5JZWyO8hsLoLEE/mqKlaje2d2L55A0YVWvCVc09VU72MWGpoaGhoaGhoDB4GfGRj3R9/gabH7oOzvAAJMZzSNuEgalqUOPnuHGLDI9s78Ou/LlGHlV32lfMxZswE3HnXPehqbcCPv3kETjyqAimrFZ6AHR4hLHanDRaHGHEkGgxHvSmNhBhckXRSCEcS7Z1CODrCqG9pFcNtLD5x8ndRVWEsjNXQGAjU1u7EvY/Mxart7SgTo37c2BEYN7IK46vyURmgZO5GWJhGjcjilg2bsG3FMtSsXoWmaiEZQlZC8TiiIstJIdI5dEIYbEI2bIpoCLHOrFtKW7jlrVE90+oa1y0J4ZYqmxLSAU6zSsbhSCbgtVjhc7uEaJQhd8gQFAypREHlSAQKh6HH6kIklYOW1iDWrVuFcWV2XP75T6CgoECFraGhoaGhoaExWLDeLMh832/0iOHD8wGS8n31y89gzeYNCDnscOekYRWjimMbPfLdUmxHi7cHf3l+M2pruuC2A1VV41BcNhob169GbWMzcv1uHDapSBlZiWiPOp+DLifVg3QyibQQlLR853x28aQ+5SfS1jQiYuDlCElpbKlGY1MzRo44DE6HOsRDbug+XI3+gedcmLs3rV63Hr+77xXsbEuIXI3G1EnjMWvKcEwbEUCxmyTYQFxco5DeNavWYMXcN7Dq1VewacE7qNm2BU3BTnSmLYi7nLB43HD4vAjk+pGX5xe598Dn9cIjhMEtzuF0qO1xHU4nbEJILLAK0RC5V9O5pF7ZhZTYrOiRepaw2tAtEYhwO9zODsTb2uQzjHAkKPUmBK/bA4fdJeE74A/kY/3WejQ21mDS2KFwOHafPK6hoaGhoaGhMdD4wGSDAyPmFJMVy5fjweffwMJgAk1wI6cnISZSTM0/T/hykK5wYFtrGC+/tkNIgVsMHxeaG2uxbdMatLXUItgdR0WJD0dOKYRdjDyeOWAXo8rpECeGl02MJYvDgR4be4OtanoVDa+kGGAJ4RNCQ9S0kVRPDnbUb0Uq6cDokbMyBiONNE04NLKDIdeUlzTeeGcp/vLYQnDi0rhx4zFx6lgcPrkSY0uccFtE8Dj4IDIWTPSguqYBKxYuwvJXX8X6+fOwY+MGNHSRZFgRF4JhFVIREFcoBKNQiEbAJ8RCyALJOhcl5aSFuHOwUT45VTAtRDvNeVQ5QjfEn9ViE8KRUmdtpFX94v4LQkbEJSxWROTZaDSKVHcnkqEIQqGg1IMg3C4HnE4XAgG3Ou9j9YZtiAc7MGXcKDX9kRxG83ENDQ0NDQ2NgcYHIxs0jjIWygsvP48//flebKuth8PlQ8rhRavTj6THAn+emGmF4snnQEN9FEs3tAoB8cDvdimDij2w0VgM3dEkTjhmKE47aRhyC93IL3Yjt8SLQLEPnjwXnB4H7FxobuUaDvm0C+Fw5oiRJSQjZRyCFkvyILQcRFMRVO/cjILcKpQVD5eXa0tKI3tQrnt6knjkxbl46LnlKCjMw4hxEzBu4kgcNaEUQ/0ie0qkhBSL35ZwFOvWbcDy115XoxlbVixFbUMd2nvSiLk9yPE61VkbZcV5KMrLg03IQTQVVwf22R125OUGUFpSiiGVlaisHILyigoUFRSqZ6wi30nxGwl3qYP8OOrhcvsVqY5FuE1u0qgTJN9WO+IkHYkEEAvDIvdDwZA8H4VLiI1T3puf5xNvHqxevwn5bguqqio10dDQ0NDQ0NAYFAzImo3HHnsUf/v7X9HR3gmvy4W0JaUIgKd8PCaXF2Bm4XqUFrQjkFeCFOz49d8W4IXXG5EvBpZNDKREPIWW1k7YbcA9d56Esz85Cqm0VY2YpNlznJNW89Q5X4qHm3GXHhVr+Y9bhHbG4ugKxxBKxNWuP21dci2YwM76ZhT7p+KiT/8IZUVVRmQ1NPYBVgcSjVRPCv96/BW8Nm8zKqtKUDl6LMaPHYFZI3zIs3PUzaCvXARe29SF9StXYP2Cd7Bl8SI01O1ERzSOqN2JlAi12+dEUX5ACEWeWggeF2Lt8/sxVAjFiBEjMGzYMJSXVQgpz4Xd5YaD6zhyWC8SQi5C6OzsRGNjAzZtWI8Vy1dh/cb16OgMi18vcuwuNXoRj3TD4bDKsw4kLRI/rucQwlEg/CPf74XLX4Ci4SMwYvIUFJYNRdrqxZoNW5CMtOCqC89GeXmZqlOadGhoaGhoaGgMJPaLbPTenefZZ57FnX+4C+FQCH6fH/F4DEExkKxijhVVTsKcSUNw4qQalFSKgRXIQ0mpHwuXVOO6G9/C0pWdsFmcymqz2eL48kUT8MMfHI1AoUuMJ57QLMaf0JMeIRjqFGWJKj+5OFZsQaTiPYgLwQilkgglkwjHhWxEEugIiQum0NoRRX1DK46ecQEuPON76iC2HvmzvGspr4aGAdPYjsa68a8nXsc7i3diWHk5SieOw+QJwzGrygmXkkkDXJ+xdXst1ixYjHWL3saOVavQ0NSCLhHohNMOm8OGgoJcFBcWqx2YUyKnxcVFmDFtBmbMnInhI0bC6ezfmoloJIJVq1bitVdfwty5b6ClPQRfQTESiRSCne2wCjF3Oj2KMJGgc51TvsQ4zyVxD+SidMwojJo0BQWlQ5FI27F02UpMGlGCCz93lloDoqGhoaGhoaExkNjvaVQ0ZhYvXozf/eFOtLW3we/3K9IQS6Zgs1pRlJ8Pq5VbgcYwZ0YOiqvEABLjKy3G0KiRBTh8eimGVnjE6LGK8VWAyy+djC99eRryi71qpCOH89XlPWozHhpN4ozF4kn0JIQyxOReIqGmTvEQQG6JG0n2ICrGFQ9PM6ZTpeUzidr6nagsHYfSoiESRYmkhsYeQKIR6Q7jbw+9jEUr6jB66FBUTZmAaZNHYPYQBxyKaKSVDIWSaWzcsBlLX38d6+a9gc3LV6KxpRUhIQ8JpwNOtwNDKktQWlYuhDiJvFwfjj/+eHzm05/G0ccch6KiYjWVygQJvCLT+3Cscza7XU2zOuroYzB50kSEO9uwef06tTFCbn6xGjVJJWNqfQfXnPT0WBDlBgnJBByJKKLdESSlbvn9bhRwZFHiu2HLVpTkB1BWVpKJjYaGhoaGhobGwKDfIxvmqEZHRwduvPEGLFq8CHmFBbBy2IDWmvxzuezwBgqQ6LFhWG4I537KgaHDPGKmWdXccocYRt5cuzo/oCuYUOEF8lyMDVKRlNqJKq2MLyEV4omjGdwZKCUkIylGE2LclUfIhhCJpLw2aaNBlUJLOIK27ii6ulMIdiflM4FgKImGhg5MGnEcrjz3J/C4/bvSoKFBmIZ8KBjEnx5+GUs3tmBi1VCMnDIOUycNwYQC27soalskgQ1rN2DVvDfVTlM7t24RuYshwkXaTpvaWWrYsCo1JapHCPGUyZNx2sc+htGjx2RC2D8YO1FxPfdu2U3Eo3j4wQfwpz//CWGpDAXFlUJAOpCIcpqVW53XkRLinY7FkZ9OItfjhKewBMMnT8S4yZOk7pZi0cr1KPA68MXzPweP16vrh4aGhoaGhsaAod8jGzTKiKeeegqPPvUYHG63kAsXrE47XE5u28leXS/sTg/stjQKnSGMqEypxd1WMWDY20rjLsotbMV28thtsNut6EmmkIxxPykxqjiCwd+qR5ZGljGqwVPDk7EU4vEepGIJJMSISqZSQjSSiCSSau1GSAhJJCF+JKyEWjTOrXfTqGushs9biNFVk3elQUODU414rkUkHMY9/3kBi7Z2YELVCEyYNhYzpg7D2Dzrrkl3NPWbg91YtXwNVnBL2/nzsG3bNrTEYoi5HOgRV1ySj1HDhsNid8Anhv0nPv4JfPrTn0FJSakRyAcA5ba37LIeWW12TJk2A0MqKrF8yTtoaWlFYVmFOsk/mTBGOPgId4RLSl3gSeQWiW9U6orV6URJYa4aldyyvVqtKykvL9f1Q0NDQ0NDQ2PA0C+ywR5PGiJdwSD+eM/dqKurhc/nUb2gLjFc6OwOOhILTjYRQz8ewrCChJAQIRRiw9CO4ZpvDoFw3QWnmCTZ80pLTq6TVHCHnqR8iiWIlFxUBKM7gai4WDiOJA/UED88uyMlAUbFV5cYV8F4At1CYmLxlJpGFU9woS97ra0IR7rR1NyA8cNnItevDzPTMIx1Eo14LIK/PPQK3t7WivFDRmDqdCEaM4ZilE8kmLKasb3rWjuwaslyrHzlZWxaOB/b62vRKQQ4IQY/nDZUVg3B0MqhyBHZHz68Cuedey4OP+IoNV2K7zJHUAYKDMsMc+ToMRg1YiQWznsT9c1NKK2oQo+Qbo4EWqxW8WxBSuLFaYd2qSeca5ji+g6fV4hKEcKhbrS3t2HchAmwS3zNuq6hoaGhoaGh8UGwX3Ml1q1bi+rq7XAIqchJSxBikCnDhATDalHfc4Q8cCZGe8SOpkYeNhZDuC2OUEcEoe64kIYE4kIauD6DLhZNIiEGUFLIAk8W53aeKRpycj0SjCLU0o1Ia1SIBkc/0qqntscqhEXsqB55H8/ZIMGIpYSY0LBjpITV9KSF0UjU/H4vatu24JWFjwmR4R5CGh9liIgYMptM4l+Pv4H5m5oxtmIkpk0fj1kzqzDcTU/ixItIEKqbWrFi0WKsePklbFw4DzsaG4VopBHjlrMeJ0aOGY3Ksgrx2YPD58zCJRdfgnHjJ8lvuZIx3AdjahLDNadXHXnMcbj2Bz+AV2Lc2tKEwopK2CxCdDL+eJZHQn6Hpc7EhHx31Nehdus2BDtbUVVeJGS8CdXbt6qw9DQqDQ0NDQ0NjYFAv0Y2lHEmePOtN/HmvLmw2bg9Lddh2FTvLQ/Z45adnCrFueJOhw3BhAW2nhAqc3uQSgkpEGLRI0Ya118YazBSSHJ0gztLkXhEhSwIoYiHk4jyUwgJuUEqISafGFU2pwVWCRd2CUviEhVCEc1JIyKegrGEfBrkJZnMUaSD7+JuVuRV8jbUN+9AReEYVJQMU2nR+OjBWJMgMpHuwf1PvYrnltdiRMUwHD5zPGbPKkeVQ+SXHuU/ktgddQ1YtWQZVr32OjYtXIC69jZ0pK1IikHuyPNg/KTx8Hv84j2FMz/xcZx51tnwen27yIpZbwYLvcMfOXIUnFIvX37hGbhLypEfyEesq1M8GeShJ6cHPVIPbVLvLEK0EpIXbo5uVBahs6ML8Vgc4ydMEJ+DG2cNDQ0NDQ2Njwb2q/uytbVVramw5HB6BqdycMG2kAe5Fk/wbICY2HEppHqS6GzvwJJ1HaitCSMRjiPcHkVXa7dyHa0RBNuiCLXGjWst3egUF5TvwbZudLdHEO2IIRnlack9ynjjQIrFKYaQ04a4fA/G4+iIRhA212iQyIg/rtPg/8KFYBV/nEnid3sQiXfglYUPoSvYodJi9gprfDTA4jZ77Z9/YyFeWLIdw8uGYtbMCZg5vQJDhMSaEC6M7TVCNBYtwYpXXsFGIRr1IjddFpuQkDTceV5MnjIVfqcbHpcD5557Lk752McV+eb0pgNtr5uyfP4lX8ZJxx2LLcsXwRbwI6+wSO3uxnRbpc4mpVJwRCYhdSfY2oaabTsRDgZRku9FY30NWltaVDgaGhoaGhoaGh8U+0U2IpGImPFiSZFoZAycnhQXbyeQiMWRTCURF+LRUNeEnVu2YHttBOvq04iGY4h1JxDujKGrU0hGRwRdQiq6hICEOoSIyLVI0PDDKVWJSBIpNbVKyIa8I23LUQf6ReWdMUtaXA/CXKsREaNJ3h1PkvQYc+PVYIZaryGfQjQ4pYo7YXm9LmyqWYQFq1+Ui4bhqQnHRwfm7KDlq9bjibnrUVg4BDNJNCaXoZJHXlDQBElx26prsGbpEqye+wa2LFmExlAXgjlCcuVeoDQPk2bMgEOqUMDnxUUXXYgjjzxKPUsM9mjGnmDKMneGu+zqryNfiFPdjq0oqBoBr9Oh6itjZbEL0RBCFE9LfQpH0dLQhKa6BgQ8TqlrUdTW1RoBamhoaGho/A+DbSZdkrub9nLmdY2BwX6RjYQUBLedlWJSv1kw8WQciYQUEKdFCfFoaWrGjm3b4BEjZ+jocahP5qOxNSHGTVJIh7HYuzuYFCefoYhal2Gu40jFU7BkiEKOGEY8HM3htiPHa0fSYUE4kUBHWIiKEJtuEQZOneL5HpwSok4X54PyXT1PJ3FUCRXS4VbbgcbxxtLHUNu0hVcPimGoceCR4RGo3lmLfz2/CDkOP6ZPG48Zk8owwmcxBiLkP0r21u01WLtsKda+8To2LVggRCOMkMWmdkjLKy7ElOmzYBdyW1SQi4u+dAkmTZrMpwWHhnKaOm0GzvrMOajdvF7SaUd+SSVyuH6J08dE3nuEuMelVnBr3khrO2p21ErdScEuBL6uZkcmFA0NDY3BgWnM0fGg3j26Xn7oNDQGEpQpdtLRcSlAb2de13I3MNgvsqGMFSkAnofBT45uqO1q5S+eiqOlsRl1tXVwud0YMWYkhg6tQMxahuo29pwKUREyEQ+L30hckY54d1ItBE/EqGDEJEznIEeMIbvLDqvdhrRNCtyRA4sQjaQQhlC6Bx3RKDoinD4lJIfTp/h2Eg3+yX3yBwvXj0h0RV4yLq2mVPl9PtS3b8Krix6VZ/SuOx8FUF2wlGPdYTzw/DtoD6YxZfIkzJg6FCNzOfRlgOK3TQzvdcuWYd1b87Bp8RI0ipyFOPVIZCVQWoiJ06bxgAuUlhXgoosvxsgRIzJPE/tXpQYKvZXjpz9/AfLsdtRs2Yyiyiq47C4VPSXtOVakhMjHpb4kIzG01DUjHAzD5bSiralJ6mW3CuNAg1Fn/PflNDQ0PjzYW901jTk6q5VrP/fgevmhM7E7zMyFA4Teadm3yzygcUjDlKnWtjZs3LgJS5ctx5Kly7Fh42Z0dgXVvd5yp7H/6PehfsSvfnUbHvjvffB6/VIQQgLEgrdxmoYY/V3tHYgJofDn+lFSVorcgB8erwc9Vrkfbce0vFpU5CWRTFmVkW8hiRAyYRfDxyGGjsNph8Njg9tng93LqR9pxBJCJeR+2ibGYjqFLgk/lIwpohGTWs3eZiYjkTS2Ak1KPNKpHCEuBiFKcmE6F6RLSnu4qjxtQXesW+wuDy487YeYM+lEI2Ea/5Og4jf1xUNPv4Zn39mMKdMPw7FHT8a0chtEyhQ4orGzth4rl6zA+rfmYtOihajr6ETIZhO5SyK/uBjjJ0+BTajLMCHQn/7059Rp3ocyLr34IryzdDU+ce6F2Ll+LRoaaiUz0rCkAGsyCaeQdpeQe19xPg4/YTaKinLRGenBWZ/9AkpKP/jZIBoaGh9NcGSChtreOvN6elJoam5VZwO1tLaorbeDnUHVnnNL/UAggPzcPOTn5yIvPx95uflwcHOY94DvIZQ9oQ1DjT5AMmjKyfr1G/DPf/8Hb8ydi8bGBoS6I2o7fNqtZWUVOO7Yo/GVL1+EoVV6Q6EPiv0iG3f97i7c+/d74fN6pdCsah9/Fl5nWwcS8QRyC0U55OXByXM37HY43U44XS7EeyzITTdhUnELiv12UQ5S4PYc8SPEg9Ol1JQpK+xCOuxuIR5eUSw2K2LJBLp7kkiIzkrm9KjpUqFkCtFUwhhmlSSojgQhFRQkHl6WFqJBkkGykUrLd565ITpJLqtRmBxRaOFoCGUFU/DFj/8QVWUjJQBmhR7l+F+DWaqLxOj+61PzUTZsIk44bhZmjnTBn7lL+alrbMaqpSux5s03sWnJAtS2tiIslDQqfnxFhZgwZbLaxWn06KE497wLxDAvlqferbwONdz3r7/h5pt/htM+cz5yRO7Xr1gmaU1KirkbVRqOWBQeqRR2qZ8T5kzEhAkj0NgexGlnnIcxEyZmQhkcMM/NXFu9http71CjoS6HQ3Kcf9zcgQaEVTxyfVha7VwXkzhzyubw4cMxYfxY9fyhXAYaGh8VsB7SpGBd7E0yGhsbsXLVGmzbuh0NDQ2oa2hEG8lFMKhcKBQS1y11Oybtd0rZDpzy7PV44PXKp9cjBCQAvz+A8WNG46ijj8T0KZPg9fsybzBAe4BvHQxd0NnRiTVr10n8kvC6PUpDyesUmFTqK7VJjugnTufmBhylpaWYOmWKxEfbFYcCercTL778Mm791W+xYvlKRVhpq9rsNkU2uDSAa5OtNhuOnDMHt9z8Q8w+bLZ6TmP/0C+yYRbU3/7+N/z+7t8LD+DcNrsqqB4pnEQiAYcYLS6XU01/4uFgdrlvdwrhcNmFlLjUKeEF3kaMqYyh2OeES4gGCYZVSAWnTlmFcFi4I5B8Wh0iFA4hGFwMLtFMsgKLoZRIG2dpkHhwuELV97Q8I/84mkGQcMh/QjiM3am4S5XYKkiQkIifnoRFrqcQDocwdcTHcfGZPxAjRxSIhKunVf3vwJTZ9rY2/PrvTyNsK8RJJx6No8blocghAkHpl/Ju6mjH8sUrsfbtediyaAGq6xrQKbfiIjzu4jxMmDoD9p4ERg0fgvMv/KIQjSK5qx4Wd+jBTPemjWtw4flfwPBJ0zF2wgwsfetVRGMh1UFglYbREo3BlYjDkWNFxdjhmHX0JHS2BXHYiadjzpHHZkIbHLCuctOGzq4OXHv9jXjjjbdEVzjUfg7UStxRjgRDTdOU72wE6Kw2h9TrhJTjCfjZzTfBH/C/qxHR0NA48Hhv2xkV4rB40WI8/exzeP2NeajeuUPa4YT4M2Yd2EUHKeNO2n7aEjwMldOmGAbrs+lo+DHsONeGKgPQirzcPIwaNQpHHXk4ThE9MGXaFLmWm3nz++PyQUD7hlO6XnzpFVz3g5vUFFOeJ5biqcQK1Du0O7gBh/xZc8QGcil7aOa0qfjFz3+K8vIyraMOAZhysWb1Wlz+tW9g04ZNyM3LVe0QCaExSGb4oaP/luZWHH7ELNz9+99haNWQAZWtjxL6dc6GmcnspZgnRlmUFV8qlpgAiITDYgAk1SiGVX6nRTGk5DcNfVNhJIXpywc6oj1oTYQQzkmhW+5HpaJGhFB0SyFHhACoTwgR6EkinKAzFn8nxF80LY7khpVbnmXdZacBB0mM8ud/huAYHaLGXE/Gm+s1ckTRWWkj8rvElKOy9a2bJV5WjB06I6MM6EEL0/8CTKXw6PNvYl19BLNnzsbhk0tR7hZZFkLKE+q7RHbXivLZuGAhti5fjh01tegUGYvLs/ZcH8ZOmaoWg1eWF+LCL16MkuISCfHQlhGzrrodDrz22itoa+vEyHET0NHSikgkKI27kA3WH1GuOekkrGLUW6TBLx1RhHQsiUB+CUaMGZcJbXDAtVWsb12dXbj//v+iZmeN6IwEurujylBhLyddXMgQR0zjoj84osHGnyeeFxXk44zTP6E6N3QDoKFxcGDWPbP+ba/ejiefega/vf0u3POXe/HOwsXo6upSRMLJbcI9xkgFp1c77A7Vo2yuzzDDoV7gNS7U5eHBdB4+6/fA5TQM+camJjW//tkXX8Jbb72N2vp6+Pw+lJaU7IoLbQ/z+/5CkqfsiQULl+LhRx5DNB4TW4fnglEfJcR24OHEop/4nbMtkqJU5RmO1jglrmee/jHkChHSOurgw8z/n9zyC8ydOxf5QjTY8WYSW7ZJLG+WlSk7TmlfNm3YjEAgF8ccfaQuw/0ELet+Y/TI0SgsKJDKlkBEDINTTjwFl15xOfIKC1BfV4+Ork7EhWj0iGGvtsQVAyEeSyAmlTSRiklltKKp3YaNTVGsaw9jQ0cEWzsjqA3H0didRFMkgeZwAq3dKbRFU2rXqU6eCSAuJmFRECgQBoTYKKZBRWWBjUqKi8tFOdg4UuLgNK3dzuXMgcMlzsl1IlDKwCm/569+AG+teCITJqfVGCMkGh9emCKyat0GLFhbjREjx2DqxHJU+kRq5CbnBoeFMG/atAkbFi/FzvXrUVsrRCMppFjkyOZxYcTYMXCnLagsK8AFF14kDVlZJtQPh8Lx+P0YPnwEOjs7kRTD3esPqN3aWGfYo8iRxDQXi+f0IBaOoDMYUZkT7mpHQkgIQaU7qJC4cEqCzWEXo4Ijo7ud2+1W0ynUpzhOr6DhwV5Q4wDR/VJhGhoaA4DexvyCdxbipptvwZcvvRo3/ugWvPL66+jujiAgOojGttfrlbprV3WWGkXNiBDjzjT0+nTyl06JnhC9xUNTOVXbL+SCNsaixUvwm9/eicuvvBq3/fYONLe0qjjxXabh+EHBTk3G36OmdnFal+GYLm/mu0t0ldNpVyM1Fnmv6oxlr6fGQYcpA1u2bsPSFcvE7uPOpAbRYHvO9sRwBuGlU9OrhPDmSJv41ttv75KrgZCnjxr2q6UeMXIkxowag3QP535bMOfwOfjG1d/ArT/5OU496VR43B4EhdW3trWIa1WGDl17Rwc6OtqEoIhBk8pBJJZGazCGpq4YGjqFaHTF0RRKoE1IR0c8hc5YEiEhNGEpcG5vGxXjkArHEAzD3BM+owxH/qbJQqGw5rCSi1KSiu4QwuEQkuFwUlEIAeF3Ogd/szeX2+F6ROgieG3J37Fq8xsqjWLGyP9aoD6soDJQ8pFO4MV5K2Bx52HajDEYVeqAXcqVPVOxRBRbq7djw/KVaNiyBbXbtqE9GEJKGoqUy47y4cPgc3mlUXPjM5/7LKo+lIvErCgurxCin1C9cC5pKG0WUZ5yhw0xCQcN9x6pQImEkHkhGympQ6FgFxLRmBHEIINxYe8Bp1ak02KASNnty3H6ArfeVlMmpa5raGgcHFCHdEjbfttvf4srxAa4509/xcZNG9VUp9xALlxulzLaOLOBdZeGv3pOXG+jLhunniNRETuAsyaozxgep3JzMTkJwI4dO/G7392Nq75+DV569TX1DJ81ntvf9jwTZ7EVOK1TTcOWsJKcpq0cz2Uwviv9JISI2//H+T4+qlXUoQGRAWL9hg1q9ymOmpnIiNf7QNmhjLnEpt1RXY3m5ubMHY3+ol9kgxWW4Py2Y489jt9gdzmQX1iorh933HG4/fbb8Ztf/wZXf/VrOO3Uj2HcuPEoKCpQ86oLcgtQXlIOu1vIQ7pDDBwxGBJpRKIpBCMJdEXi6IrSJdXvsBhI3QmeoQHEuZtUkvtuS0WWd1FtCFVQ72WPg42/RBnYbBblrHQST/YscITDabcIubDC5bQIo7XC7bTCqXa/EtIh9/xeN2KpBjwz//dYve0tFa6RPVpTfBhhNk7vLFmNLXUdmDBlCsYPz4dPJCclssTpOTW1Ndi8dj0aN29GrZCN5vY2xO1WJKxWFJWWIV/k1Ssy8ulPfwpjxo5X4X1YYNZVwu/LlZrKdMfV+inWDbWxgzhOp+JUQ54wzoWZ3d0JaUyTiMbCSMWNkY3BhkXqKBkHd6cx67RpYLzXKUiVZKPONLLx19DQODiort6J635wI+78/f+hobEZgVyv6unn1ChFLmic0+gWvKsOfwD01gcMjlNfDH1gVQvILaLD33rzbXz729/Dj358C2p27lTP9daJ+wfRNTQ2eiXh3XExnAJJVTrFl8pT+0tyNAYSZuk3NnBr95jYhdmNOClCK+1kQ1OTEOuuzEXjQyN79Lv2mYrjuOOPw9ixY5EQcuAX5UKwUPx+P44+6mhcdfmV+NWtv8Kdv75DPm/DT2/+KW656af4ubjvXvMdVA4vQ3csKMqIvR5i6JBUxFOImk5ICAlGIplGQr6n0jlCNMQvOwvEcW04dYeyU0RmlJMLYjfJDUpCLycKT/ip6AljxMPO0Q5HDtxujmpwMZcIk92GgCiqjlgdnnjrdqzY/Io8S1B5aMn6MIEySqUfjUcxd9EqBPLKMGX8UBRzj1sxaCPhCBoaGrF18zY0bdmK+m3bpKFsRLc8kxAZcuf6UVxcBrvIy2mnnoxp02ftCvfDCKuQbKfDjng8IuJsk7rikLogDaMoUO4Ep9pgingqgagQ/ljMmN7A9VYHAipbezfSfcDsHVXn6bCHQUND44DArHvEwkWL8U0x6J9+6jm12DtX9GaONMTUk6aufJ8RPuDYHT7jRnLDdSCBgB+dXWH87e//wte/9R28Pf+djP/91+NJsUPMaTZ9gfvT9Mh/3NyCz2gcOuBUXB63wClS2cEob6vFrjY80tg/7HctKMwvxJmfPAOl5aVwe8RqF7CysyKbCom9GxWVFZg2ZSqOOPwIzJ4zC+OnjMfHT/4kLjjzUjitbnXyOHszU0mpzOJY/sb3tJpTbwyZsodEBSkvEcWijBPDPjEdp1MZ75d3k1zIRfbg2l0WON1cmMbF4OzR5bMSHrjDBOD12ODPdSA/34U8cVVl+Ujb2vHs/Lvwxqr/ZhSTBK4Jx4cGZmOwet1GVDeEMH7SWAwrdsPBzQfC3Whua0H1zp2o37IdLdXVqK+pRSiWRFwM1x6R2ZKyIdJ4AkceNh0nnHiCCov44D1jBw7S3Ge+yfdkSs1tZsOnZh5ZOXwshJtrNkR5cmSDVZZPxLguKpZQi+asB7iRZNXtD1iLOQVMQ0PjwMDUrQ899pgiGlz87XC7YXM4laHPNph+THcgYbzP2L2OCs3tdqqZF2/PX4Trf3gj3phrzFjYXz3e+wBg08bZG9QbMsmXnDC+aBxUmCSzamgV/D7vrt99gUUej8dQNaQShYX5mYvGh0b26HetY0U1C+lTnzwHV15+pVr8RfAeHSsk/fR2tGRoAJnbxX3suE/h6FmnIJlIIJVIoodnYohRlOABfkI01PkYci2ZlLCESfQkSThIZCQUztMmuxAogiF+edYGRyxyvU6UlvhROSSAIVUBVFXmoaIqD5X8VNdyUV6ZKwalD/kFXhQUuFFa7EdFWQBlpT6UlAYwangxfAUJvL3mH3h56b2IRHmSpJauDwMoa0aDkFKH2fkKCjFlQiUCFi6ADqG9oxX1TU1oqNmJ9rqdaKytRUdXCEmRnR6rBSUlpeqsh6GVJfjYxz4OG0/d/jCilx4NR2Lwed1wOoRMpRJqNIA9O1yQzSmH5NGsosy1ZJwjjAk1R5UHbB4QyPvVYm+JwO5algXzYBr7aPQ1NDQ+OEzjmmcP/Pr2u/DDG2/B9h074Pd7wdkoOVQgJP8ZYzwbMMz+uj4h72cc6JP2gjXHprY2Xb9+E2756a1YumSZ4W+/sbuDY19pVTZPBhLzzDeNQwHjx45GQWGhmkptYk+yZV6jTRsORzBy5HAUF3PLe439wX5RfLNnoLi4GKd/4nQUikHXG6xoJvEwHd8k32AVQ4eFyG3szv/kl8XIHyHGfLeUrJAMEo6eNOLyXSmXTE+JGt0QM4Skg+WvqriEp3aykN92hwVFeT4hC3korQgIiXCJceWA22WHy2lTRpbTzR0snPD5XCjI9aKkICAkgyeUBuSaW4wrmzi7Ornc7bWjsiIfFZVOrK55As8suB3NHdUqbQa08jh0Ycjm9h012LCxDqPHVKFcSGU6HlFnbbS0dqCurg7t9fVoaWhEU3OLyFsPEtKAuPwB5BUVweex49RTTkVRabkK68MMLlTs6uiCx+sHD9YU1q5G+Dgc7OCOKVKbmGNsEHskD5JS92hQuF1etb7jgEAZBez/o5HA2m2U4d6QaQM0NDQOAMwOnKR8/vq3d+Gu3/9BjK+gmnbMplDVRxre+zC+Tah2PeNY32kbcMvbXbYC9YC4Xb97ud7P9wVFBOSfMvrFv8/nx+q1a/HDm3+ClatWZXz1Eyp5Em/yiN1cYq9Q3vetyjQOIEwZKikpwSdOO1WVT1wIB7dYJnrLpiljnB4Y6u6W9tOrtln3+4xDJM2wNLLHB84xzn/rvaq/N6PfG8weganjZuK0I86Q3zZE4xy5EFLBUQ1OoeIIB9dqSHjc/YHzP1j+SnfIsyQgFAiP24GiAj9y8z1we2xK35mkhCMeagqWkBhhK2q0hPMouQyVksbdqmwOyQRrGha7ECR7mmcJqt2q7PIlP48jJF40dS/Ec4t+iw073lbx5sOMq8ahB1MHrFizUUhEDkYNK4UzFUewo1PtmtLY3IwWIRpB+Wyuq1eGdYLTp8T4zissFMnowZxpUzBr1mEqnGzk+VAGz7Bo7+qEPz9fiLdbFGuPGtHgGg61jz0XO7EyKOIu+SAVh/vF+wL50vAbSnjQFasZvlIL/G/feZ5RHxoaGgcAZv1/6L+P4N/3PSA1NAc+r0/aU7ak2Y1m9DbgGB51D5/ldviRaBTdYtAFQyF0iesMBtEpOisYDCEYDisdzXfxOdoafB+DygS3D5C0GHFjFEk4lixdhh/9+GfYvGmzum7GKRsI5VGfNCd6+lSJuz1kkz8aBwZme/6VL39JyMMZImNhJXssI8pWb8cNhkg0Ojs6cMF5n8OnzzlbPfthtwkOFvqsMvuLvgpEra0QnHb82RhRORKJZCxDLMTcE0clYKy/YEUVgqAIRGaxVUY/uLgQzOcB976mfWJMs5IbfIyvl0epIFSfqSgd7nrDbXFzxNGoTInnNBeNW3rEcbE513kICSHpEAJizemBz+NERWUuko5teHXNH/D2qv8g2cOpKIwXX6IF71BDTzKBNRu3IL8kHyWBPIRDYnC3NqOtrQMNQjC629rQ3tSMdvnNFUNJKUpPwA+7w43yonyccNKJIgc2JYMf9h6MltZWdMfiyC8shcflFudQa6w4Vcwt9Ye1g9vNst6w6kgNUs/58zJzUw8EjCquPnbj3b80NDQOPExjnNuF3nPvXxESIsDzbszFtdkSDUKRBSEZtA06OjoRCgXhsDuRl5eLqqohOHz2LJx1xhn43GfOEUPw4zjq6CMwadxY5IpuDnWH0dzaImSkkwFKWHz37rD7gkFwctQGNnPfmodf/vq36GjvUPHvr/HILpisWgVtHhxyUO25yExRYQF+fPMN+OIXzgdPg6+ra0BtXZ3aErdNXFNzE+rlGtuhr11xBW64/jp4pd38X7AJDhYOYq4ZSmJ45SgcOfNkqZRCKDiCIZ+KcKgF4vJTjWCQRMgPeUTuyocUuCgJdbiXVH0e2KkWlyv/SpYUoVCJE3/qNPEcK+xpm5AIGxzyjE3NEadneVj88KAzjmpwRE0RD45uOIwzO7g1bllxLnILo1i640E8Ne9OtIcoiHzDQcxCjXfBbDQaGmvV6bLDKkvgdNiEaAi56GxHU4sQjqYWxIOdaG1uQSQWE3GT8hNi4fDmwumy4/hjjkXV0BEqnA9zj5SpELdV14hs21FQVA6Pz4VcnxcBrw9elwt2nrGRSiItFUhNWRTB5zQqh8OJ/Hw9N1VD46MM6lPqQB7K+3/3/BUbN26C2+vZpWezJRr0x5GMpDTSLWLI8cytUSNH4NKvXIK77vg1/vGXP+Pf/7gX9/7l/3DH7bfht7f9Er+/8w789Z678S+5/u+//xW33PRDfPKMT6CspAJBITzBcEiFTz2XDVmgTUBbgvHweb145rkX8fBjj6t7/TIeJRzDcskGmXhpE+HQQkZuKyvKcevPfoLf3/FbfOGCz+PYI4/E1MlTMHXqVBwx53BccskX8Jd7/oCf/PhGtTDcsCs/vDbBwcaAVwOz4vZVgXmfParEsbNPRXFBsTpUjGs2qBTUonD2uJJByPccNbJBQiKFLZcsQhhIJ3g2gElIuPaceoeOHS89aYsaLUkpssKXknRQ8VnUfHWX1QGe9JkW0kHikbZyrYkoWIk6t9TlSeScZiW2KCxyryDXgyFDnKjtehkPvf5zbNq5XMVf4+CBDY3Z1nBXJWLLtm2IdcdQVV6GZDiIrrZmIRtdqK9vlutBRLs61TqGHinklMihXQxwu9OJMSOH46gjj1JhEEbYmcA/pFi3aStcgWIEigrUKGBBYR7yuBe+x63WbtCQoFObLnBv/KQxhSqvsMAI4ICl31Ti2TflA668NDQ0dsFsw//z0MNinD+rtpQ1ja2+jC6SDJNo8M8cyZgxbSpuuP77+Nc//4Jbbr4JHz/tFEyfMRUjR4xAQX4+3C6nvMemPrl9bVlZGaZNn4rLLv0y/vaXe/D3v/wJV331SrEXClWY8XiiT1uDMKNLfc6RmaToufv/819s375DXc92hCRbMEpKc6pg951XGgcPXAZAEnv3H+/Eww/fj0ce/Df++8C/8MhDD+CO39ymtr7nAZVEHyKv0QcGpb3OpvITwhEUxg4fh7EjJqkTQdXpnFLxuV0ne1sV6aDRJ/7oPUdIAZWXMAN1ICC3ySWxSHJxuTjRIeJffMoDvCf0QhENLpTlblfGOyUEKkEhHw6LFXaePSDXKUy8biUpIcGQZHCkg2RDHRQohMPrtWH0qEIkXZvx5Nu/wpI15nkcA6+wNPYMyoJJBChru8RNyq8jFMHbS9fAac9BwOtAZ0erOI5qtKKttQ3pWLd8dqC7OyLPGWTD6/cj35crBNS++9AegRE2D2XiqNmBMroHDtt37ERNcyvKh1QhNxBAQV6+atB9Xj/cXLMhKVNEg4SdI31yLZmIoai0RBEOhV2Zq6Gh8VGB2ZatWr0Gf7r3r2o3HjWTIAuLy3yWujNHdAynpVQOqcRPbr4Zf/3zPbjm61/FyOHG6DFh6vI9OTW1WhzBzqQpUybgph98H7+/6w6c/ckz1GgJ59zznaa/vcGMO/1yOtWatevw+JNPqWvZpEshS2+7oPxru+BQBWXGlFe3y612LssX53LyUC5DVvqSK43scFAtCUUaBC6XB+NHzYDN4jDIRlIKmOs2Etz6loUt/jgIIo5iwelVYiNliAYXgcv1DOmQn+gRwpHuESNRGAQHT3hwIJFI9yCupmcl1XMkNYwDFY06xTijE6h36Ghn9f5UTp7h4vHRIwpQWNaOF1f+Hi/Mvw9xMdKyVlga+w1WfAqtSQSI9o4uLFu5AQ88+Rru/MtDWLRoBTwuK5JCLJqbG9HU2or65hYkYmEkotyVqlOKWhoyFriQSI/PC6fXi5U723HbvY/id397DK/OW4z6+kaRCe6Dxql1Bun4MCmeRcvXIm0LoKxyKPIkjUV5ASHLPpFfmxBsSVUihbiQLkWkuEuc5AVJd2XFUMm/D+mWvxoaGh8I1HFsyyLRGH539z3YvHkLPOosLWO0IhtQNzMcjihPmTYFd/z6l7jiskswZEiFum8acUqfZ3T5npy5U5Xp13z/sccchd/+9jZ8/WtXwul0IRKJqilSRF9xZDhcAMyzhB7870NYuWqNup5V2rJLvuoQY7xVY6Vt1UMWLCNOoTfl672OMqHKUeMD46DmIgvRPHdj3IiJCPjzpICNMzeSYuIlaRJydIMFz+/8k8qeFsKQiPUIaTCIhlrjIdfVNCohHTRHFY0QwkFiokgKR0j4VTzE5WJM2Am38osLM0kKCeFi8d5cwfzOTzpzdIPnE/BdFglv2NAijB6XxuoGruP4C7rCPI9DYzBhVvxYNIqlqzfg3v8+h5/e/RBu+8fTeOKN1dha1yryEYPX40FnZwca62pRW9+EzrYOpOMxRCMxREI8SZt9blyXw22SvSIiViGjdtS2hfHCO6txx7+fxQ133Ydf//lRzFu4AuFQSJGOQ13xsK4QjU0tWLV5J/LLhqkD/YoCHrglnVarTRpwqxrViAnxSkiepJJS0xwOqQeA1+fHiFGjVRgaBxe9G733u33f/zBjT+npyx1q2FMc9+UOJZg67onHn8IrL7+qtslWu0epNrJXI7kX0A/T1C76d/r0qbjt1lsUOSDMtKoOPnlPtvrU9KvClt+Mi9/rwbXf/qYQjiuEcNjVrlVm/PZGHHrf90kbsUmI1P3/fZBXdsV7n+g7+QYkGBUF9bnnuLwXpixk6w5l7Cm+u13faT2QoASa8rUndyhhT3nVlztUcNBz0qy7QyqGIi9QgCgP+RPWkEqI49QnNXJBwsGMFgORv4UccPg0HhWSIJ+GHw65cnSjBwl+T0hGC2lJyx+JCkdIuPicbySBSQnhiDMM+eT0Ko6AMHxFWtS7MsqiF/iTskfiwYjTL7fdHT/OgabuF/HkW79Dc1uT8mv41vigUFWlV0F0hYJ44c3FuPVPD+POf76IlxZuQVMIyC8aikmzjsKI4cPg6ImpEYtQVwea6hvQ2NqmTg4nEw0Gu9XWrpwfxyl6HrcLTpfbIKWCXLcXBWKce+SzI5jE68u24Nf/ehE3//EhPPvqfAQ7dhNKRutQqsyMi6kc316yEsGkE8UlJSj0WFBamAub3a6k0ir+euJxhDvCiMtnKkfIucsh9SeGsopyVI0wyMahlLaPAszGwcz39zZ673Z9N5AMhzr0w1CORlx39yT215lQ+Zf5fqCh3p3J6z3FcV+OMJ83wzgYMN8djUbw9LPPIRwOw+VyZRenjJ6mX25be9zRR+G2X/wcs2bOVNcJM60fBAyBxEAZ8fL5za9fjcsvvURUukVNxe7rHeaz9EcS9dorr2PDxk2Zu30jO75BXZwZERd7ZW/gqLI68VxgykK2jjDl5eBJjIFd8cgqLX2nleF8WHTXYMPIC+bD/utGs2wOZm7mSKXbbckdBDADmCHdsTB+eNvXMG/Fqwhw/rzTArcYSdwhyMeD9jxW9dvltogdaQX3K3XJvbw8J9xuO+wOqxhTVtqQSHMrW1EoDgd7ceUloh24CJyLzPko131w5YfBBwylQE/8qb7u+pIBS4jkwvhQOpX6Q3EX+eQULJKe7dVBOBNz8PHDrkRJYTF9Zp7Q2B+YskEk4gm8vnA5XluwDtvru2C1u1FcWizGtLiCXJQWeFBeUYzV81/HM//5MyYediQq8v1Yv3E7WsNReJFArj0HDTvr0bp9Jw9TQVjkoXBEJSqGjEBzzIl42iEkgwsURZ5s7PtnCeagO96DznBCnZQ7bmgJTj92Ko6aPUFkzani1jueBxOsymxId+yswR8efBHuwpEYP6wIU4a4UVboR3NzKzZs3o4dmzegdetWbF0jny0tiHOThDw/nI44PvfZc/GlS7+mwhvsdLExYWPf3NKKy6+8GsuWLVfEj2tIzB7I98I0Erq6unD80cfgL3+5W/SD95Apg/0B4y6iKDrr3fGn4bRzRw1a27mDTxc6OjrUtJSgpJ0kkVt+5+b6xeUhPy8f+bm56oTb8vIyRSx7g3nNPD0U88iUg95olzTXNzaLzLagqakZrc3NCEe6xS/g9bqQJ2nNFVdeXo7x48bKNU/mSQM04mjoHQio8hO5fG8a2CY0Njaipq4e9Q2NaGhsQFdnUK19KJMyGjl8GEaPGoH8/MxmDL1wIOPfG2Y9WrxkKa76+jVolHi73cYOVHurk4SpezglJRwKYsqkifjNr36JyZMnqvuDVT/N95LcfOfa6/DMs8+rBeB8l3lvTzD1SCyWEJlK4taf/RgXXfB5de+9cTXl8/77/4vrf3gTLHaewWDda0+tGXZXMIjp06biT3/8PaqqKt8VrgqT33vFLxQOoba2XuS9Se2m2NLUiqDkJd+Vn5+H0tJSlEh7VyEyz+8kVyYOVv1mmtTxAZkzmUywQ7empgYtUm87uoJqlkF7Ryc6g12IRWLSftuQ6/eJ/Sa6S/RXXn4+igrzle5ySRvQG8xPM08/SlB5K+l+r16pb6hXMxcaG1vQ0sIt/NvEfo6oMuAshlyuQS0owLCqKowZO0bybbeMcemABHpQ8vKgk43euP3Pt+ChF/8qpIJnZ9jE8BBC4XPA67HBkyEbbneONKTCfONWtbg7t8ClFgJb6N9hUTtIkQn0WIy1FU7OzWS+crcpMRzVrlOslMz/DOngbeaCqvuMCLG7fAxkcsnMLDPXMmWnCpRTwGpqQ7BHDxfC8VUUSgXS+OBYuW4Tnn5tKdZWN8HmCqCyrAKVVRUYUlmEyiIXir1WeK1JNU3omcefwL/++Q9MnDUb+VL+a7bWIyKNfoHYXgFrGju31CAkCjDHaUdU5KdiwhgUFlagodsmBNcNnxgy3C7XQWHgcJc0RBzBivVY0ZnIQUc4CaeQ2sMnV+GcUw/D8CFDMrE8RCCG+j33P401dTGMnzAeEyocmD6iRMQ5hZr6JqxZtx4NGzegRj63bdiIrlgMCacfOX47Kop9+M73rseMWUcomd5LOz1gMBvxjzLZYHp6p7W2pharV63BW/PnY+Wq1WgQQ5vEgmSbnzzxNs78ER3H56xCKpx0DifsYsTahYBUSIM9e/YMHH7YYZg8aTLKSksyob//ff2FZLPSk51iODz08GNo7WhT0xDZ8cLRZnWqkZU6Vb6JTuQfyyYai6KqcghO//jHVIO4J3RKmb417208KwbjuvXrEQxHxDCJIBqNIippT3KPc9HAPNWX645sNrta1FkphtzkiRNw+JzDcOyxR4vRUqjCo4oeZBF+H9jwv/rGm3j51VexbXu1yGlQjO9uRIQoRaMxI49sFrikrPw+MQqEJJaWlWDMmFGYM3uWGgWgwUX0LitTvmtq6/Dc8y+hPdih1lXxjIBUPKk6xzg9MoeFQ4VF9SVl1dkRxJjRo3DW6R+D0539Oqzf3n4XfnPn7+ByOlUd7UtuzHrZ3R0VGbTh9l/eirM/9Ul1b7Drphm3xUuW4aqvfQP19Q1CPr1y3ewefD/4DMF48byNL37hQtz2y5+pa++Nb2+ycd2NN6n1HjwvZG8w84JkY9qUyfjzPX9E1ZB3kw0TISFJb749X8nLaqnvPAsqyoMOJR/jiQiScSNtTqdNnY3klDL3ur0iIyU46sgjcPqZn8C4XtNe+yqngcR738VOgbWr1+Lt+QuwdOVydXYF19Jw5y/uGhaXdMVE/k3dZZF85FlpJN/UXyQg7CyZOWMKjjj8CEyVvKvq1b4OZNrmvf0O5r/zDlweN+w2B1JpzpCh/jKm6qnNY6QekTQlU1wEDGlvjsbMmTMyIbwfZvnyTJqnn3lB7WrKUcGU2BEcmVA7obKOMg38l85BQmxGdkrMmDYNJx5/rIRipO+9aa2prcGLL72Kl19+BTtraxEOi3yITjV1I0fHqGttNna621WHaUBIx/ARw0QGp+Doo4/C4YcfJvmcWfgubmByMnscUmTjoWf/ibv++TOp2NwZwAW76Ean26bIhstjFwVikA27k2RDhEIMQF/AgYJ88UsDkaMbonxJslM50iBLmC7VKFGApPAo5FwIzn9CNOQ/1UhKaCrzSUD4DH+kqRNUzsgXXqTeUmChGj8pTFLG5CxGOKpnMoHaum54e07BabO/rM40ODhF++FHmzQCz76xFK8uXi+56saQquFSeYStV+ajqtSDYr+QSTGie5JCGsUQsTrcePTh/+CBBx/E+OkzYBPDbEt9mxrVKrIBDim12m01SIkB0COEIeVyYPjkSUIyCtEsSj3fH0Cuzwd/rhcBcQ5RQlEJIxwOISKNQiyWRETsnY6oDZ2RHgwp8+IzJ83ECYdPk8I3RkIOdinPnb8ED76yEuXDJmJ0pQdHji1CVXkR2js6sGXrDmkMVqFx7TpsXr0atdIoR0VmeyTNVkdKlOkcfPf7P4LH699jwzjQ+CiTjd6NCU9QfvXV1/GKGBzLV65CXW2D6gFk/rDR4EJWc6GsmUZ1uKlInJoSKmnvoWElnyQkNMqZr4FcP4ZJYz19+nScccYncMJxR/NJ9fz+5pf53DsLFuJLl16hRlu4PorvNNOj1tkpYpASPWqcaRQS0sCzFe790x8xReocG1+zZ7ahsRHPPPU8nnnuOawQ+ezsDMo7rCILDqVT2YDuTjfzzogH85B5pKZFym+r1Y5p06bg8+d9BmedcTpy8/LUMwcCW7dsw7MvvIQnnnoKK1euVNM1aWi4PdI2sQwl4iwTQjUlkv6EGDeMe48YGxJ9ZQiMHz8aF114AT732XOExBmkjOk05f5pIWLfv+6HauTHJsRSEQtCwmc4nGJMMP9IyFjvZ8+ahb//6f9QNaxqV/ntCeY9EtovXPwVvP7mW6rnme/eF3rLcltrqzpp+Xe3/0aRm/2Vs/6g9zt+8rNf4p4//Uny3qPkq3fc3gveY9nw4NOjjpiDf/71L1JnAu+L826y8R9cf+PN6sBX1sm9pcosK45Gcqvfe0VHcTSid7hNzS14+umn8ezzL2Lp8pWK8FDOecYRP/k+k7CzyjIOSTXX16jjamTT6cDQoUNx0okn4DNnnYnZh81WYQ82eqeDRu4bb83DSy++hCWiv3fsrFOnvyckfuwMsIkM0q+kRJFs1f2Q0V3cbZTrZSVA1eNOuaMeoez6/F4MqSgXwjEFH/vEqTjt5JNEF+7eIWpvZZotvnbNd/DPf/9bkX2+k2Ea9VPiotYAkxBxtjXrkR3h7jC+8dWrcN33r1Vy9V70zpPf//GP+PFPf6FsWD7PsE29y3LkcQ6c3M90EuHuCM4UffXH393+vrZszZo1eOzxp/HSa69hy+Ytas2p3cmZFw4Jm6Sod5sg8ZBXGYdbp9XIeEJ0Ai/y9PwTTjgG53/+szj5hBMNzwcY1psFme8HDcxcCk97sA3zFr0mFSkqGcoD+2jDSYaKYSgyK985x5KjF5K5kqnJqHFfnYchhcoF4ao3jRkprJHb3TJsxfnkU3wrg5CCxPUcClLwvJNDtiD+DCqhqoR6hzAU+Y8lKE59JzjlSu5LGPzj3H/1Ke1rWliK129FR2gzOjtSGFoyTcXZTKPG3tFbiSxbswl/e2wuFm+oR35RFaZNnYI500djzrhijCl3o8gj5S7ly3Lh+p5wdzdCXDS+fAG2bd6BQEEAISEVXZGoeOkRqiIVMBFHqF0MmWRCjCAhrWIIlJZXIJljRywRhddtUYS1pCgfo4dXYmhVBcorKxAoLoXTXyAGg03eGYPbGoPTbkFrVxorNtaiOxzEmOGlopQMZXigoURTsq16Zw3uf24BrIEKIRi5mDjEi9FDS5XBxqHsnXV1aNm+HfVbtopBW4tIQowdpxM5QtTzhNCf87nzMH7ClEyYH1yh9wW+g4qS2xA/9fSzaGhoUA1UX+/mvZg0TMOloT1LGln2jB2I+A4ETD1gxpW9mrf8/Jf4871/E7K1Em1t7aJb0mJoO1WvPadKmQt0mVfms5RptjG8Rv1C/cceV+4bz2kkNDTZiHI6BkncK9JYcV760CGVKCkpUWEwLv3NN+7GJw9g3aaNePrJZ5VK5OgKwzAbPqN3jZ08DhUPfue7eHL92WedgbJSkUkaUYLnX3wZP/jhzXjgoYewo6ZGTSXzeT3KLxf9ckMDGurssVdpZ3wz71GGANMs5e+QdFOv79hZi7lvzhPDZxnKykowbOgw9Z6BlI/euryxvhF//L8/4dZf/xpPP/MsGsWIdDld6lRsGkz8TqLIuKpnJB5mmTHuHDlgebkzow6cGjH/nflYs3Y9Kisr1cFjfM6M/4pVK/GC5Bm/U9+wd5jlzvBZd9QUULlOA4mfNDgK8vNw1ic/oaZr7SsfmC7GbeHiJfinGNYJ0Q+msbS3Z0zwOW5By5PAf3j9dRg23Mj3vp4bCPAdNOIYh9LiYsxfsEhNL8lGL/AZGrlcJ3r88ccq2XzvM/xNf6tWrZZ69IZRnuL2BeYbR/NKi4twzqc+qUaxzDDnvvU2rr/hRvzrvgdQK3qY+pkjMXS7ZF7Cp39OUaL5YZSvUccViRWZofHdKkRp0cLFKl7t7e3STk5W9wcD79Vd7Bi59Ve/we//cA/mL1ykOo04OuAU243x4yd1F3UT4890qjRldBfrsVk3eusuzmphZwRJ4KqVkuevvo6VYnQXFxVKm1y1K4xs5LI3lJ1nfMWjjz+Jdes2qLNcmNd8vzFayk+pO6J3mb+MG+PFndlmz5yJE084LhPCu9E7Lq+8NhcL5y9SO7ilcwy9bTqGz3rKumnoSOrppJDGStGN0pbJdYZDefzj3X8R0nIrXn7lNVW21HEkI9QZHOkiWdmtG+X9YntSr/I9Kt6SDtYBpiUuts+atRvw+htzsVVsgHFjx6iOBKK3PhtM7LvGHGCUFlYi4AsotmucsSGOi7/j4mKSKUkalnJN8Qb2avUg2p0SQUip3ak47BWnX7kvQajPeJLrKVKIC5kwdq9imBRWskwuNJfv8psdccz0Hi4s56f8TgmJ4La5yvGPv5VTbQZ1QOaTgq/aYONiyo7iEjuaIi9h1bYX5YKh1DT2AhaoZKCqZMk4nnjxbfzpoddR35HGpClSwY+fg5OPGImjxuaiKk8qkVQsszewW8jE5u1b8fY7i/DCyy9iy4aNYqiIcuiOozMoRMMoWJElkREhJSxJQopRKUIq9550Et1dHYh3d4k8daC9rVXkKYo8lx1VhX5MH1GOw6ePw+TZs1ExfhYChVVyz4JyTxzcK+DpN9fjb4+8ivaONhX2gYSh5CQfusN47MV3EEx6pB4VoDLfgtFVxaJwnErOuyLd6GxpQkdDI5obmtTp6QkxeHI4fJ2TwoQJ4zBjxhwVpml0aAwseufrjh078aOf3IJvfOM7ePG5l5TBw4aEBgcbOw63U6eoUQLK73scwY893aNjY0Oi4vX5EBDDl9M1HvzvI7j8qmvwuz/cLY1Xh4rL/pazzcIGWRo7MYDUtCbViO42fJXL9NDyGuMizWLmaZFbSReNrR/ceDMWL12qGnSeBcNPpk5NX+CIJdMjGbErbepe5rs4jupwJ0FWAhpZeXkB1RlFg+473/0B/vPfh9X7qFvofyBg5hmnjHz3+9fjzt//Adu3V8Pj9qh1M0yDep/qjaae2h1fah/2PPa+Rsf4s6c6EPDJVwteeOFlfP0b38Ydd/0eXZ2du8tJJSGtpkqo/Dbz2szv95SBTYwNq4XnSO3bmGAc6J94Z9FitZaLckjsyxAxjSwa+xTYz537OTVd40DDjON40WOHHTZL7AAj3wnGcU+OoB/KTUNjEzZtMhaJ72+deC9YzsoWEZvDxMMPP47vf/8GIUQL1Xv9/oAyCPlOc/TClAk1WpnBrmsMU/wx/nzGJ/U7T8hke2cb/nD3Pfj+9TeqqZiDATNfWoRU/PaOu3DVV78u6XlUTRXkVEqOcDItH1R3Uf5N3ZVXkCd5ksCzzzyvRiN+dusvhaDVKT+Mj3jfL1BclJ4VmTeIufF9V73hro38lLqkZCWT39mA08GsSjcKcckQRNOp8FU9Nd5jvFfeIX/GzBiounfzLbfiN7ffgRoho37OthBHHWvm0ft1o+Qn/zL3lR9+yn2+hySO6/tC3RHcf99/8c1vX4slS5ep9xn5uJ8Z2Q8MTK0aIJQXl6OosFwqacogGTT4hQikuNWt/E4I0VA7TSVFWITBiS9ppKWCiovGeBJyymh8xB9Hj2hnctepJAmKhMEdqRIZx+8pEpGMH76DvxXxkM+k2s1KCpAj9PzkaFQvJy9XZ3uoE86Toigy16kfGPccSONZGMPWtsexo9nYx1tjL2Alltrf3tqGvzz8Ch59bTXsgXLMOfJwHH/URBw7pQjjih1CMqRMpFDZrITDcWyUxuGV117H8889h7defxGvPfs8tm3eroyg7lAIMWHzPKWeREPtbiaFaWyBLOxf9IdL9QTaRB4SaK6vR3NtI2LBIFoa6rFp8yZRqi1Sxkk4bDkoCzgwfWQhZs0ch1HTZ6N0+DR1AFCBsxseRxpvLKvGvQ8L4ZA0ENRPgw0qCKORTeORF9/E6h1BlJRWoDTPgslCkPJ9fqUoI8kYmurq0b6jFk21NdIwtSMq15Ns5MQw87ttOPa4k4Qgl6pws1WqGv2Dma9LlyzD1dd8E3f/6V60CrFVPeBieLDXnmXKMjOUv2HI9dcRfF45UXC8QhLDaVXVO3fitl/fjuuuuxE79sMoMZskroeTSqt+v4sM7MExPTS6OZ3VXPx5x+9+j5///FdqATUXe7NHXvmXe8wnJmNPaduTU7na633sRCBxYUP9s1tvw5NPGAe3DaRccwH1d66/AS+J/nE4uX22X8VDHUyr0sz4Gz25fToGyGfE0ZDkNa5r4UjPrb/8LW7+6S93HTaalMaIRI0w5WRvjvfNKRtqOs4+QL9EpxCb+e8sUPHgKJN5fV9gfDmqMWLUCJz5iY+ra9k8N5Bg2ZrvPGzmLNXzy5GZ3sTrfU7ucToUySHXC61Zs049P1BQBrHwN4fHGGn429//JUbkz1AtOpgHx9EwN4kD8S6ZMB3/9nCdMMuZv70en6pbTzz1NL71nWuxbv0G5WegsXXrdnzzO9/Dr357B3aK/uD2wR5JHzvxTJnj5/7qLjozDOou1gkaynm5ATWK88e7/6wM5dXrjLLa3ypN456jI2Ye7sup8hEnJp/UpL7l2k6yJZ/y9B7D6+2MtKZEFrgrplONyP3gph/j73/7l7rPdRec0cPvhKEb95xve3LMHvNd/M11XmxvWMd/dPPPsH7dehUu7w02Bk77fgCYAuPz+FFRPEQYnk3NPVWGIQtEHH8b16RwxJinUW+xcfvblBrNiMQSiESTxvkb8R4kxKXke09cFLQQBv4mWSHx4EhJQgRZbXkrBW0c8Cd+RTHTcV2wGsFQ1433qZPM+fmua+J6hLCQwct39rDxO8WMZMUKFyzOBmyo/y/CsWYjkRq7YFQfA9u278AfHnoV81bVo2rkGBx7zGycOHsYZg3zoMBhNMKS1WpxLOeFvvnWm3jxuWfwzhuvY+2KVVi/cTO2Vu9EdzyqerUi0vjRwFFz2qUskiZJZZ0SeWMj45BPu90qDXgC7U2NqN+5HY31TUJUOrFjy3YsWb4S1dXViHZHDKUnDceofCemjyvFiEkTUTJqFgL5lci1J5DnysHSdU3411NzEQ52qfcoJTWIMI2n51+fj7lLpQErHoqSfAcmCymqKiuQxIqSkvsNja2o27oDDTtr0Ch5x9GghKQ/x+UR0hXHtGlTccRxJ6qwNAYXy5evwnU33YQFCxYjwJPcpSHddagUPcj33o3F/qD383Rm482eM05RslhteOLpp8XY/4WaO26gn7LKyBqqbhfe+1468zrrYX5BodSjNP78t3/g7j/fi1B3WPWGSgRV/JRf9X8/wff0ep8ZFnt9m5ubcMcf7sa6jHGyv3XSDJN47Y03cO11N2D5suXwC4ljh4XqxeXNTDwyUckO9Lzrud0PsjeTBO2hhx/BP/91n7rmFYOSUyV6p8N8rrfbDfEnfrNN9foNG9V0Ifa29mUdMA58Fz/ZyXf47NmYMGHsrnsHGuY7Z8+aiSGVFahvbBAy24yG+kY0NDSpXZ64iNl0jfxsblbrTCIdncpA55ROopdY7zdYCk4uPhYC+szTz+O3d/wObe1tykA3e/2Vv3eVV3boXdZMN8Pi1Dyfz4OXX5uLa39wI2rr6pTfgSqL7dJG/+DGH+HFl1+Bm5upiHympQ3iuyU575Jhuv1F7zAYLMOnjlRTs8Qgf23um7jlJz9XZ6T0C5n8VpA8UWQw87P3O9/l5J6YegKL2HP8P8t0qYgbvvcYrjjlLVM2ZSUlagroT39xG5559gVwZ1VzGmBv3dNv9HqfGRbtBp6gv3jpYvzuj/+nbCXe/0DvyQKHxJoNyZHMJ7Bp2wasWLdQfefwvPAOpVyN3giLFALXaPC7ZKAlLYahVDJhknJJEQL2WAuFUCMh5sIfhs8PjlCwSeC0KFb2XdflO38hZRHBMgQ8h6MZ9C3hqLuZT4bHBlMVHB/mp1xXc5kplVQiDECFmVZGbSTRgGgsiOLAJHVKuiGJWQrt/yhovHO+IbFszXrc++R8NLQlMX7yFBx55BTMGZePoX5WcA4HGjLQ0RHEquVrMe/Nudi8fIkiAlu2VqNOGo1oLIL8ogLk5RcK0YsjRlKZeU9aCtMmnzmcShUl+0xmKpwHRZXlaA/HsX3zegmjGzFWPIsNNqcTwc4uhMJhcHcqHnZndXCrW1F6wlL8fjtSTi/i1gDSHDXp7lBlvbmhC5FQEJNGD1VzMgcDVAqmspq7YBkefXklnIFKVJb7MW1UHqaPHQoHjQUh0G3BENavXI1tK1Zix9q1aJTGNcRnPWIkOS0oyfPggi9+BWPHTVDhHUiwDrEcPiprNpYvWyFG6g+wYvUatd1j7x4rxl059WtgYYbNPKLuYW8v832NGFctYozNmTMbHjGAsslD0091TY1ao2D0Hu97Xj/fxZ1ohlZWkf/i3w/8B20trWq05b3p/6DoHQ4/OU2BOzjx0sknnaSu9a4/2cL0P3fefFx77Q3K0OHoCUcMlL4X0M8HT4ERjlFWYqyKHqKsr5a6e9yxx8gVC55/4UXE1AJcY4rH3tLCfOduNUVFRfiU1JP8/Pw9+md+sH0lnhIS+uLLr6n38vl9hU8YZRtXoyAXf/Eitfif2NczgwXznbm5AZEtN4ZVDcXhc2ZhzmHiZs/AzOnTMXPmTMyaMRUzZsh3cbNnTMOUKZMxUwjKx049VX1nmnrHnnnAa8aajdfVd7p9gXFhvkydOhmBQB5+d/fdqN5RrWTejCc/ByKfeofDefwutwtbNm+F0+7Acccd84HeYZb/9uodoruuU5sG5AZylewdSN0lEVFx4Xs5Crppy1ZUS9s/a/ZMtT6qLzklevt5/ImnsHnLFrXDV1/P8h4PwJ0z5zAcL/m5J/QO452FC9VuV1zsz7UUEoK6vjewI3XCmHGSps149NHHVThs00zw977ily16h6M+pc5u3roVI4YNxcSJEwbkHfvCIUI2dqO5pR7zlr2uCsAuBhMbJy4CZw+PyFmGcBiLbnJsOYiIocipTty1iiSA/qXc1fMcaVB7QKdFaQoRUJWD9/gh+Up//I+XLcJC2XOuINdJFIx/DJCe2ahII8D1HuJR3iSPSuHxnlyTkhKzOPOdZIb35I/rQ7gIqitaLQ1zFKW5U8QrFTtfLn4/glApzwj2G+8sxX0vLEd30oXpovyPPnwcpg/1oNAu5ZJUpUABQE1NAxbMfxurF8/Hjo1bsGl7DTbvrEVYjJ38wmKMkMpaUjlWGuYoOjpbd5URA2DJWFjYHMWKCwXhHDsRlNxcD4orS4RsJLFtyyYp2wQcLpciKxZRaDaHS8IKqvntNpHB3PxcWOQay9brAnxeB1JWl5AatxrJikU7pOit2FLbDkdOHOOFcAx0GVO9myRt4dJV+M8LS9HjKcKQskJMGubDEZOHwSdp4IhdRGSei4I3Ll2O6hWrULNzJzp7kkhIGhy5PiFgEZx62qk4+7Pnqfq0P0bYBwEVNN/7v0w2zDzlPOdrf3iT2sWJjXXaIrKdsVL3FW+my8Se/PV1vzd4n975DBttYuXq1SKhOeqE574MKMLM55oddXj62WfVKGJfZEPFUe7x9pq161BXV69IgBl38znz957QV9r2BHYi0YhmGXDK2IxpU9QCZqI/4Zll2CpleP0NP8CqNWuQJ2SRqr932rIDjabM1z3AjBc/zfyg0dLc0qy2dI2I0bNh42a1i5WpB/aWFpYnyUZxYYEiGzzLgGG+13/va/f950GsXbteTetT7aVgb+ETzF9uzlE5pAJXf/UKFBYU7MqvgwW+e5IYTyeeeAJOPvlEnHLSCer7SSedKITT+Dwl44xrJ+K0U09WZ2LsqQ4wf3h91aq1QjZeU9/7qiuMA6dp+YWQrl69FmvXrNs1T9+8T0HYhygI+iNXBhhX2hsMeePGjRgxYijGjBmTuds/sBwNGYrhplt+hmeeewF+r1+lIxvZMOXXxHv99nW/N8x7Kn2Sh3TrNm5AKBjGccccrdY79SV3fNa8//iTTyvCQjnvff29YAzZ0RmORHFElmRj0YIlautyY7E3Q9hz2KZ/5jHrNXclC4fCSjebeWP6MX/vCXuL+75A3ciNNbg1djAUwvHHHyP2jG9Q627frcsBgim8VZUj1aF+nGevlLlc5ugCe7dFvSIpF41F3lK4kv82RxqRSNJYuyHX1ALxpBiVarpUDxIxzqPlVKkeNT0qHksjwcVjXJNBP2qtBcmBBCbP0zFs47tEIPNdLfKio79efvlOzrnjp/In95LijClW9Mu0ScIkIdUtL2JTw5MqnXsTwP91qEopnz3SWD763Bu47+UVQh4LcNSRs3HCMWMxrdKJANdmSF5y8SkJ4Jo1a/H6889h3TvvYPPqzViydiO2NTWhqKwShx91AqbNPhxefy6ad25E/fbN6A51S5nHKTjyLsl8Fo0UAqfhcftjZeSpe9wRxqp2a6DyamyuR2d7kxCTGMJtTYhKJUSOHTvqmjB/wWKsWblCLSTn5CQ+W+iWRm2IB0OHl6J4xFjkF1Ui4OgRYmLH82+vE+Ux8Gt1zAq7bPU63PfcYkQsfgwpKcDYIW4cNrEKAY9X3Sfp4da2m5YvR82a1UI0qtEpeR7nOhVOpUnFMGbkKJz1mfPUYjiWS18NqEb/Yebpvx+4HwsXLkTAHzCuiVjSyN+bYmd5qLoi9+nfDId60nSEea93o0S3N5j++LxLGmiOCt//wINqb/z+gA0w//qC+T4ubuQGCjyQqnec6d6XVmVMGKPZpj/Tj+FUkH1CHhW/Per8naamRvztH/9CKNy/KQP0xzgQf/37P7Fw8XL4pX1iGIwIP/vOhd3lwribi1uZTuX4PfOO3uk0f8v/iqAuWrQE993/IILBoDIoCRWPPpAj71C9cH2AbVZHe6dqd030FT7zJybG6KQJEzFqxMjM1YMPc+tfla+Z/GZHpeqsFJ3f29EfR3IGEswX5t26deuxfMVy1blgEo1dZSzfzZ3V2AFpGNFmfWe+75YF+dcnzLJSU37FiObuUH+4+17U1der69nKvAlTJh994gm8/NLL8Lm9arTeDGdvsmHGmXeNtBiOz5mOyel9j2GZz+0N5vv4PPUJ14o8/tSTePaFwd2Eh3GSYukTZtzV8Qoqi/rOb5VPkq66+jox/DtUJwx/m2k184S/mT5TRvamG7MFg6d/f8CLBdIuPfyYYZcOVh4SgxfyfqK8qAKFBcVSTEIElCFPw10yRu7RSKTRmFCfUpRCBhwOixpSDgYTilTEhHQkSDhSxs4OSSEWvBYXcpEgwRB2oRaNxzLrOkhMkplr8p2LzBUJEWKiFhVnrnEbXTVaknHqGv2q31Lg9Mtr4j+HpEOcClvucx0IUlYkxMDbUPcYtjW+aiT2IwY2ZqwcPbEk/vPMm3h28Vbk5g3BYUdPxXFzhmFCvhVO8cMy5xSTsDRib85/B/Nefh41a1dh1ZqNWLp5K9JuGw474mhxR4nCsaFx23qseOcVbNuwHPlSeXg+Bg/RoryoxeEiM1xYKf/U1CqlBaV8ktzaUb5bLT0YMnQUzjz9HARyC9RuHh0dzQh3NUkZJuDyBNDSHsKCRcuxdfN6kR0xWCSeNhHKUo8F48XQLy8vQuGQsfDllyHPk0Y0bsHjry9TW48S/dADe4QkYRdWrN2Afz+zAKEeN4aWFWBkmRuHTxqOkrw8lXd8VUN7BzYsW4aaVUI0tm5HG88KEXae4/Goc2oKfA6c85nPoqpquArTVG4aAwfWfWLFylV45LGnlBCoqVPsQSH2keVm48IGIRaNqoaoo7ND7TrGUR32WHd1dapNDHjWBadsEGYDtC+Y90novX6fGCUteOzxJ5TuUtd7C9vesB/iwvVtHLkyjS4TjA+vqbTGRJd3dUl66TrVqFdKKi7TpbZ6VEaY0VD2DTbE8r/8x22EX37lDTz51NPqTn8b1UVLluK/jzymjBybLXuywnjSmeVppFPaKSm/UGcXuqSedofDqvxocHIXHtOQIMyyUs/J90gksiu8bJDMZJNF9bDuG3HJ+1AoLEZBdmEzDpRxu7TBRx85R+J4aJkTpmGbrRsoMF+Yg3S0LVheu7d93S0LdLQfWJfDYcq71HGRe57tRJvBJCK9iUdfUO/IfPpzA0r3PP3M8+qeel+W6TR1F0chH3jgv6oe2hzv73HfE8z0UV6pq1S62tvVeVWs3ySnoWAXWlpb0NbWpmSa4DP7Cpcw7zMdbpcHkXA3Hhfd1ZXZQCF7SDp2Zefe83VXdBRZ33fc3gVVFfquD0wPHWfJmETDBL8zT1j3mV7KCeWD57fQccRJyZaSEWNrbf7ORk4IhsnNNKj3eWDl6swGCdk+318cWtpBEAgUoKxgiNp1SBFDcaptFiNKDW8oQ14+5LfY9upgI4slKUo7hgSJhlyMCYng4zQ2uWMUK3w8yhMsSQZYkYwFx1w4zMMh1Q5Tco/TsfhMjnoupZ7NkWuMAz/5XtMp+RRHYmE6dV19ym+JR46QFl5T9yUMa0qM4O4urKm+H/XtS8TzRweSE2rYPxKO4q+Pv4rXV9egpGIMjjxiOk6aMQQjfVJhJJ+UISYMoEUMjddffR1r5r6F2rWbMH/FOmxpacTwsSNw8mmfQFlZKWq3b8CahW8KyViJsqIifOXSK3H9DT/EuHFj1aInio250J/ElVsfi7CoRW0cFktwBzMRCL/bAafbiau+ehXuf/C/OO/Ci2Gzu7B160Y01m2VSmyFy1eA1q5urFq5Bs21tUKYYrAyOIlvuc+GUZU+lJTkI790JFx++cx1YGdjN156a5G8PylhKDHaL1ApMMrE4pVr8fcn5qE16sTQ0hKMLPfj8KnDUVmcOcBMGqbWcARrlyzHxqVLUL1pExpam9Atce1xOuELuOFGHKecehqOO+lU4xmNAQfLjI0E8fBjT2Drlq1wOo1daWiK9G5U9gQqfDYuQTH+fH4eyHQ8vnb1V/GTH9+M2279GW77xc/xk5tvwtevvhInnXAC/AG/6vHmM9k0Fqphkj8a4lyv8dJLr2LV6lW77mWP7KSaYfYO1owi40rDigeB8aBGTjsoKizC6DGjMWz4ULgdDkQjcbkXkga2XfR7QupC3/nXG3wHp0twp6VHHn0Mzc3GZh0so33BqHcW9c4//flvqNlZq3rAjceyK0NCGV7ynQYb4xAUA4kVuqyiAqPGjUExT3iXsIKSB1y4zHVihFlGfJbfqT85ZdCUq+zAis8DTftGqDukZEgiZ1zYB8y0MW9yRd/NmD5N/Tbz7FCAYYRl7wYUUlYsM5M4mrLCTzqSS8oCD/QkqSgsEJkfPQaVIhMsM17nwZ6hUEjZK7vC6LtqK7AcHPLueCyC119/Q97Fcs0OvXXXk888i+UrVqkF4SbMtOwNlA2SDMoSz5k58sgjccUVl+HHP7oJv7r1p/jVL3+Gn93yY3z7mq/j9I+fpk4NDwZDu4h0XzDfT7+cpvY2TwNf0L+RWSmFzLdsQL9SibJ9JOM981+feG9+mlnA9CUSMbWpQFh0BjsiKivKMGbMWFTIJyfL8cR+Eo9gsFP57y1r+0LvPKT+37hxAx5/yti1j/f60o37g0NmzQYTzUSyIVm7aaVaJG7sPyyKQIxPi8MizE8qgMpM9vTINXmO02DSwhY6hGw45LvFLjdThmLmeDBJiYSsGlUybZYj113wGzt7mOU0GPluTrmR0BVhYNj8rQ77oz96ZP6Ls4gjeTBIED0a0sHrHIImuaBdK69U9+mXP0hicnLs6I61iZDUiEE6RhrTAt4Uxxf8b4L5wPwNd0Xwjydfw6ItDagcMh5HzBqPo6cUocQpaVd5x/K3oK6pCW/NfRvbly5GzcYteGvtWsRELg47/AhMmDYL3dIob169GNVb1sHjcuL0sz6tzg/4+OmnS7hDUL2zGgsXLoJTDAx12KPkb4/8MYc5rQKcZy4skPth55YUoKCkBMvXbITHacOZZ34SJ510EqZNm47WlnYxwFaIARdHcdkQeKVRDYaCqmeTc5N52jXPG3AI63C6rIikbaIwexBPiBroiSgZbWhoRUWRH6UlxftdwqZiWL5qA/76xFtoj7kwfEiZEBwvDp8+HKPLxVgRUIqCsQTWCSFaPW8utixfgZ1CjIJCqJJuN7yFBbAmQ5gxZQq+dNlX4c89cCcs7wmmcvxfXLNhGl07dtbgttt+qwzpvuYHE3yOfriVKM9c+NynP4Vrv/ddfOWSi9UpujNnTMPkyZPUQtxZM2fghOOPw8c+dipmTp2m5t5yISc7UmgsZJsfnFteI/GsEEPnmKOPUs8xHnt63ox/TU2dWkwcjyekzIwez2zft9svp70mkBQyPn7sWFx44Xn4lhggV1z2FVx4/udx3mc/i7PPPhOnSH0cN2G0KnNutxmT+siGN5t38r7pj+XBcjj22KNRJXoi2+d5avcf/ni36BKuF8zuvb3fSYOcIzV5YhhRt1x+6RdxzdeuxqVfvhgXnvc5nPu5T+PTZ5+l1pSwY6Ohvh7tYog6pC6oKY5GgLvCJfp6P2GTd/Og09KiInz2U2fCx3Ume4i7eY2jZP958CG1Day5pmZf72HaaDSTHH7pki+oLYzZWWSeF/C/AuYD07pq1Zqs12y8F2Ze8pN1m9k6a9YMfOHCC3DN16/ClSLzF51/nqrvp3/sNMyaPQulxaViZIZRX9+o8pVTmFgaEoR6fm8wy0y9T+ox9SvPHuF6pb7KlDB1Fzs6fvmrX2Pnzp3wePveQMI0ULujETilfp4hROLa731Hpe30j5+q0ku9RUdyyg0PPnbaqTjq8Dnq0Llt26uFHMWy1l2MD3U/p4mRdJx6yskq3n3pLuIJrtnYvCWjk/uqT2xvosYCcbVJw/thhk23cNFivPnWPBW3fYf7fuyOY4/YElG17uPIww/D5Zd9WeTkatUOfD6jM3jqONerVIgt0NbaJu1no0oL86+vsiJ4n/5Y16NxyXfxftrHTlGjwNk8318cMmTDTDg/G5ob8PayN1SPl0UMOxIQzt+32qWSG+WgzEf+5pxjuz2NzrZuxMTQczq4f5EoQglHQhS/JBsp4QP8TWJB0THAglHhGep89yc/hCGQOSoeId9JFIyhaBIRXpdPBsDPzG+OivC7Wqshn3SMg5rawnvih+UnsUYo3CCNZjuK86cKYWKvgXqRuP8tmGVKovGnR5/Hspo2jBg2HUfMGIujJ+Yh366yUI1Skqht21mLN1+bi7ply7B502bMX7cGhWUlOO6kj6O4fAjqtq3HuqVvSePdgmkzZ+OKK6/BZ849D0XFhZk3AlFR0C+/8io4jU6d4inkT+1KJZLB8hdrTBFMNhfugBCBIeXokPgtXrgQs2ZMR0lZmTK8jjv+eDiF4C5btgRtnWHxNwJ2pwuRcBD5Ygj6A3lwuOxSmhbxJ+UqlTYUp2JKSeVNwuXIQUjCDYfaMXXiKGVI7y/mL1mFvz8xH50xJ0ZUlWLs0ACOnDoCYypLRGrEOJR0hZJpbFq3DsvnvoaNS5ZII1GNLjHm4nYn3IX5cCCGISVFuPzqb2P4yFGZkA8eKBtsHP4XyYaZtnlvz1eLbnlirFq42Uc8eZ+jEyNGjsAPb7heLbodKkYCT+Pdm3rgQj+OApx00glqHQZ3zWHvOHdtIfb2Tl7jPTZOatc1efacc85Sv02D470ww6oRo/+pp5/pN9mgP/Go9DN7b/0eLy79ypfwoxuvF4Pk4+qEYHX6tterzpooKS7GyJHD1eJMLugtlt9bt25RC+7705jTH6f5hIJBIVRHYuKEfe++0jv9t/7i11izdq0yaEyDal/PmnlBR8OS08BOO/VU/OD67+GqKy8THTNDjcxyD311/ok/gJKSYrUT0lmfPEPtjMSpVWvXr1fEkeWr8k1ghpsNKG/hbiEbpSQbn4RP9NWeysm8trO+Dg8K2WAPczZkg/coq1VDKnD+eeepbYzZl2NOdftfAfOBsrC/ZKN3PlLX5Rfk4+tfvUrJw8knHK+Ib64QNeMsnFx1cjwN8tNOOQlHHXmkMnQ3rN8gdS2mykWFRXHoI5vpjx0JrW1tGDVyGA4Xo35f5dkb9Ldm9Vrc89e/qbYz2zrOqT0l0sZ857vfxne//U2MHTMK6nT8vTzH9JRXlKtF+kWFBVi5co06LdtM597eaV5jOVAGORXo7DNPV3nYl+4iDLKxOasOIGY0pz3OOazvBeJ0Btl4u99ko3c8ONIzdvRofP9738J3v/MtHCFlp3SG6CDqRn6Wl5dh3LgxOPH443DUUUeqZ3n2GElKX/nXG8wrTimnHUGiWyDlkM1z/UX2NeYAwFTkw6tGIN9XoJQ0lRevpyQzuP7CXCsRF2IRy5wWbrM64MlzIBiOoKsjIuw4IRkeV/7Zq5Tg9ClxXFPBqVZJuZ+MJY0wOa8qIWRCDDWLmvZEYiIZz6hwwivnQYnRKnkvn5Jhcp2XGC+zvtOvcvwufqyZ38qv/OZICa1BzlkWBiXGqSgB2FHT8A7Wb3tEbtETn5YH/odgCmwkmMC9j76EVfVdGDf8MBw5YxyOnBhAgLuzStZQpjlDbtPWGrz18iuoF+N+3dr1WLB2HUaMn4hjP/EpUXYWbFu/BBtXLxSj3obPX3QJrv/hLThC9cQa7zLlZ9LkKWKkFIoSyiwGZVzEqQMi5VtKGkP+8RyWrvagkJMoJoweiYjIw1McSmThCrgX9ZVf/Tq+L5XdmujC+lVLhPS6EO2xqBGDrq4OxER+UlLYJDEl7hxUlnqlMfHB482DxeFHoRgRG3Y0YvWG/u0JzvSoz54kXnjtHdz7+DwEU06MGlqKMUNzhWgMx+ghpYpEU7y6RW43b9iAFW+9hS1cFC5Eo4PzY21OOIsL4LIkEXBZcdFXLsNEyR/CzC+NgQXzlQY7wd4zrt0yF/QSLNu9OfYUV1ZV4qYbrsM5QqT4HMMzXW+867o8S+P1mq9/FV/8wvlK7knIsmkw6Ic9aPX19QgHjSk8faPvcPcEvssqjgYC8dWvXobrrv02hlQau0QxD9QU117OqAlSv6QuXXXFpfjFz3+KcWPHqrnt9E+Yn3sDRzTphYfCNjWZZ4v0XQc2bd6qdp9675ale4MZD/rhFBguPv7qFZfhd3f8Ru2ERDJI8L3vS6c8S0J0rJCh393+G1xx+ZeVIRBR6zmMd/aVzr0ii6re1d6JiOQpcrKfpsV1eCRLataBYB9Z85GEWV4sx1A4pM5O+d63r8E3vnYVSoqK1T366S0HvWVyvBiTP/vJzfiOGO6F+UVqSqFoCsnojId9gOFYLDaxkxJYtHiptFedu67vC6ahvlGM8ZgQT3PnOoJx3ZtjxwN3bPzut67Bl79wIdwuTjnsW3fxWRLqL150gZDxr8AtpJX6YV/1zASfJWFobmpEe0d75uqHE0wv854nsrOz8+Yf/QDnnfs5JTPErun/veTE1AYTxo/Dz396M759zTeEiPjVgcbZ6gyGwzUf3FWuOXMo8WDgkCIbZgUqL6pEWWkFesSQU0a9ZFqPWKPcWSoVl9/yx57ceJi7UAlhED9uj7BIWxodnRF0d8Wk0YyKsk8IIxWCwaktinAkJJyEWsxNUsGtVXti4qQQjXn98nLa/ZmRCEKtuZDwLSQ+/JPrFnEcsTDXaihrz/wu10koLGRBEqAaAZGrFo6syHdj/UYPbFK4IgXYsO0pbK5+Qb3rUCuODwIKOIU9EUnhH0++iBUNbRg/4lgcOXM0jpjohF+SzyzOyZHyEf9rt9bh7ZefR+2KpVixfgNW7tiKqUccgcNO/DgiHc3Yun4xNq9ZqU7I/ta3b8All16B4iJjChori1lRicKiIhw2e6aQSeM0X05nIlg6qnilMU3RrxRsdyisztPIy/Nj5MjxeO2NN/HWW3MN/5lKesZZn8K3v3E1eiJt2FG9BXanH02dIbS0tiIuSpHrQbg2xCWMoyzPiqKiAPy53CbXC7e/AFanDwuXrJSGoluFxzjtC2becUj5gafewH0vLkWP1Y9RVcUYPzwPR08fhdEVQjQkAzm8HpX3b96wDcvfeA3rFixE9ZataJdGKSLEyJafB6+wXqek/PMXfQnHH2+s0xA1vyu/NAYH1BccZWB5mg0283xPjvf5yfbh4gsvwGmnnKz8s1Hp7a83el83dr9jPbDgiku/gmOOOkI9mw34HEc1uM0zz6QgzIZq7zDqxv6gW+oMO4GuuPRLuELIAxU/88isxyRqvR17VnnPrI8nnXg8rv7q5Qj4/Iqc9RVX8z573Ek66huadoW1N5h5Pf+dd9DW1irGtNHTnw34LBfCcsvab37ja/j+976L3FzjNH+mg45+3pfOXve9fi9+fOMP8a1rrpZWQXSBtFtGnPoql/7DTCu3+OYi8czP7CBxDuQG1KYcGu+GKS/MX44WcRbGlZddiovFECdMg/G9Mk//phwoWfB6FDm5XOoLR9LZC90XdtcJo25v3LgVO3cadXtf6N0yrVy5SnXcmrppb4736ZLJOD57ztm44Lxz1fPZ6i7G1dRVF3/hIjXlykw7sa96x3tcR8URIx6KR/SlDw5JSFpp53L9RaHYNT/8wbU44fjj1S1TTozd1N4tJ711IwkDR04/c86nxG41iMl7831v4MyhbpFR7tqnfstzZv4PFPqjVgYd7G0mSgqLMaxipGqslbUvdYuNKRd687A+7kJF32R6UTFmY0IeODffn+sUcpEU4zEijDwpTE0MLvlMigLl4VPcfcoc4eACdDVyIte5OJzDcNwWVREG5rFktPotP5Tjb2E1/JQYwCb3OGFLigS23p9y3caebh4kJ59WcbYcbp0mz4pjtVGEg5XEKsw/FsaaDfejsXk5k57BwBbygQZ1Ays8CeL9z7yMhdXNGDvsGBw5vQozxzngzczp5bS0uOTiyk0NWPbSI6gTMrFy3SZs2VGNw447CTNPOBWtOzZg65pFaGxswNQZM/Cd7/0Ax59wfC/B3U0yCLN+nHLSKfC7XYpgcscFVRklX3n2SlIqbUz9EgIbjqC1qU0RyLETxotR78J9992P+vpaIw2ZAE/7xOm4+Pzz0FKzWRRCSAiSA42txk4a3FGEU+UoJ4VOkd98D/ICHlGCXqRtblEe5dhUXY+t26tVWFwQuC/wvW1t7bj3oZfwzNsb4PYWYHhFIcYOL8LRM8ZgVHmRSg+nnXVL9diyaQuWvP4q1i1cjB1bNqI5FES31AdXfi5yXdKQJbpxxjmfwRlnfzbzBlb8Q6rq/0+CRHbz1i1q3jV76jgUzykRHHGgS4hT1+UaFwJybjanT515+ifU8yxjNirZoHcdyC8owHHHHLNrP3zqVYa1Lzikwaae5Pxsou9Gav8adI4kJ4QgfOHCi/Ctb15jrEmQuFHm9/ZOXqfrXR/PPutMIc7HSt4ZHQq8t6808hbDYMdSTW0topLWbLB4yVJ5h0Fo+mp8zXRQx3BUlfOqr7j8UmUk9E5jX+mkM9Py9a9djU9/6pOIiTGVymw0sa907hVZFFdLa7sYsiapyQ7saCkqzIc9M2LzP49+ZL1Z3sqQlufYc8+59wTL0DQY9wRTDujM8r744i/g2KOOVtNkzGvZyILH7UZrRzuaWneP6O0VvWScuqsr2Il4NK6mAyrdFd2z7mpsbFLrGM/+5CeZ8F3pyxb0y2c49eiUE05S059Z3/aWPyb4DIkOP3dUG+0rn+mrrh4qMMuPRCPaHYLP78P1134P55x9lrrOVGQjJ0o/ZcL64hcuwKhRo1SZmcjc2iu4vov+d9Ya2yQPBrLXKgcAZobyBOdxoyfB6faqBd7cvlQdlCffqXDjYsQaQ0ocuksJ+xYSIdrU43XC7bchFIpJhUwgIS7azdGNJFIxaeSiCVGm3PJUwomJgRg1SEYqKYabfNI4VguIJWwrRyc45UkUBR1HKqxs1OTTJo6Hpll4XeKmnPLD74Yfi0SZpIILkRVpMf1IqTNcfud7nE43gsFaLFv9V4S6jYLuSzAOZRgNP7+l8cDTr+H1dXUYO+JwHDlrGKaPt8Jn3BT0CNHIwcqNDVj34oPYuWaD5ME21DTU4qjTz8LEw4/DjhULsHX9CnR0hXDsMcfhu9der6ZI7RuGkuFi8nHjRiPUGYTX61dKTE1jY6UUMYtLBY5xCpIYPp1Nrehs70RRXh7GT5mGdVtqcM+f/oyOzs53VfLPff5cnHjUHOzYtkFIrxXtEnabGPZxSTPloSdtAde6F+floCDPK0reJa9zwJ9XiETagWWrjK3lmAPvVYa9y3zDpm2445/P4I2VtSjIL0FlWS4mjSvDiYeNwdCSfNWbQf9BIc3r123Gopdextq338KOTevRHBHD1uGCSxS/32MHYiGcfPqZOP+iL6lDMjUOHERdoay0TBrhQjUn258XgM8XUNPzfH4vvLl+tYtUnsgd9YBfrp3x8Y9h6NAq9TwbkP6Asmr2EI4ZM1rK3ydyKpoxizn0XEPB3nPuhmRioBrsXQ2qfNJAOf0TH8N1137LmOMv1/qTTqaRz3Da14UXnKvmh3OeeLZh0PCvqatVnQREJmrvgpnu6h07sXr1OhX2rrZpH+/hPbqujg41zeuyr1yya71FtvEzQf98jtPorrrycowbP14t2DXD4b2BBrciZQdctgu8GQdu45sXyFNbAmu8G5Qj1kfK/Cc+fhq+9+1vio3S/8W3piz4fF589jPnqJEOhplVGJQT8ZcQ/91Bw/js3abtCyUlJer0+UAedVRGd4nO6q27AqK7PB4vHE67WqA9ZcpE9ez+yKdZ70aOHon8vALVMbEv9E4/De2Gxt2668MEpoNpt1od+OoVl+OiC87L3JGyynxmhUyejxk9Gp855yxVzsxDYw3VvsrDIHUcba6tNUaHBgP9SsuBgClwo6vGIc+fK40lCQKMQ/OYYfLJA/t4iB+9cttakgUpMvBkcW++U1KVFoVPJi7PCtGICtGIqfUe7FUTssIwRQnQQCTJSMoLeJ5CUq7zFGlO31IHMkj4LKZdjms5FK0hgTCuGdufipMfdCQXHMmwq9EMuS8Wh51O/HCjLOHvqvHnvGXyfrsIiNfuQlPjMqxacx96UuxFY7EY+fBhAmNsKrIX3liA11Ztw5jhM3DE9BGYNtoKv4gbDTCCBzSu2dSA9c/fj23r1mHphp1i6FTj6E+dizEzj8SGBa9h0+ol6kyVM8/4FK644qsoKS03Ht4H+H4qOs77PP3006Xcw6pnwJcbUCMB/E9Ny7PlICaGB8s90tWpzsNIS95XiaE3bPRYzH1rIf58rxDAcEiFaxhxObjoogtQkutCY329GGc56GjtUL2kapIdK7v8yxURzMtzIuBzweqwI8fhgdOXj1Xrt6Kz491zIinvalSEcRO8Mm8R/nD/i9hcF0ZFcZE4r5C0Spw4azTKROFz5x7mc5fI9PrVG7H45RewZsHb2LF1C5rY62R3w52fj4DHhnSkA8eceBIu/MIlak/y/WkANPoPsw5wru2NN1yHf/ztHtz9h7twj7j/++Od+L8/3Im7f/87/PGuO/Gnu+WT339/O+7/19/w5UsuVs9+UFRWliGvIE90ZXZ6RDV4Ih9cB5Ed+idLDJ8GkksIOHfdyc83dkLLymB6D0w55o49M2dMl/rD2megLxnnVIMmMUpCocxWoHt4vRnG6lWrsb16m9qBqi+Yz8SljeFOWUzj6FHGIXf7k0bCfI7hfPHC84W4OJVBYMpXv7DvbFHgGS4c+dlTnuwJKn7ibEKoPjLoR1GynNhbnJ9fgM+f+1nkfQCZN5859dSTcfQxR4nNsrte71Xm5RneYUdCQuySjlCHcX0f6C1b11z9Vfzjr38RnfV7pb+U7vr9u3XX/6nvd4ju+ju+/a1vqJFKYr9kNAN2IBSXFu2yBfuCmTfZjlYeKjDLjXnFbZDHjhmJ88/7jLpmdhr1BwzHfO6EE4/HMLFlqC/EulDX9gwSHaMThsSkvr4hc33gsf8SMcgYVjkSpYWlovx4KI4YZJz6xMPzmHGiEHkIH6dFJTgiIQSEAxKSY6LobfDk29EdjaOzK6Z6aniAXyyaUISDZIMNcFLkkqMk6vRvCZvTqziyoU4Pl8DSHOXgdzEE1S5SHJ2QV+TwPcJFctThHPJD/PGehUSEfqSsObLB71YxQUlA1HQrkhAJxy7+OKXKSkJiEX/yfrt4ctus2Lb5eWzZ/BKTLzhki2avMGO8aNlaPPn2elRUjMfhs8Zgylgncql8JDuZH+yvWL29FutefBTbN23HolWb0d68DcedfwmGT5qKZS89im3rl8FbUIBzzz0fl3zlUuTmFxqVMwsFZCopboU7Tipwc3M9CgtL4BHjT4UhrkfiExPDI8KfYqS3Nzags70VHqcDo8eNw5ARI/DCi2/gzt/9H5pbWxRhIUrLynHW6ach2NKIrlBMXBjdkZiIjJAc5QPwiPIr8tvhDXjEUHFK6TuQK7Lc3BbCxi1blR8qSMaFCoI9D+0dHfjLA8/g3kfmoSNmwxBRthUlHhwxcyROmDkGeV6PkBsRrrQFXcEo1q5YjUUvvYC1899C9fYtaI1GELM51IhGrlvi2t2BI489FpdceiUKCot2vVPjAEKye9LECThOyuGoI+aIOwLHHHUkjhbHRcB0vHbUEdxS8Vgcf9yxairCB4FZxizzosJCpeOyhdo1j/UjK/RPlhgvzqseP3Ycpk6bqq5la0zsDW4xvidK/pJAMKy+DBymjR1SXCjb2tqqru0pFWY469ZvQFtHJ+yZut8XqCPCQmJmCAE66+xPqmsfNI2m8XDWmadjyuQJiEg9Hyw47ByJ7We5iqNB85FBFtWDcmbqdk45OmzWNLXtK/FB5cFht+HEY46B2+vM9FrvXeZ7lySnjXe09CIbWUSDo6Pcfakv3XWMkJ+TTjg+c0bIB0BG9nIDAZSWlGRkPzt9ZOS5UVc+TGD5cW0p08qtdcvKytT1D9pWDx1ShWHDhiOR0R97C233a3IUKeUBr+x0GAzsWzsfBJiVp6SoHEMrxogRJ0aZNIKspBzd4NQpZh9Phe5J8ORvIQqsOJJRfJYLr11uMboC0qh0RtEZiquKpnaviiTVjgncmlTtIqR2nyKxkPCEcHD9BkmGWjjOE/5YUIpUZIgFe31IQkgi5JZVGnIbG3N5ziIfNgnTLn453YojFmo0Q/wbv8U/iQavyW+rIh9ynWs5+GlzSvhhrF5zH5qa1qg8+DBBkqtQvbMWD7+2DE5vOebMnIhJY7wozCzQpsSzqDbU1WLjyy9g6+q1WLJmPULBNhxx3iWoGDUeS198AjXb1qN0yBBc8sVLcd55n4e99576+1CuJsyKml9QhE+dfRY621rUtaphw+ByST7LbQ4epSw2hK02JQvxjiCaamqRYE9Ubh7GjB2LquFD8crc+bjlF7/FitWrVZjE0UcfhWFVZWhv60BISC2300xK+CKmIhtpNWLld1vg9TnVjhzcOz8vXwx+ix2r1+8mG0Y8e/DWohX42f89jBcWbILLl4fK4gCGVeThmMPG47AJw+F2utTUQXpvEXKzbMUqLHjxOaxZ+A521NaiRchOxOGBpzBfiIakq7sTRxx7PL58+ddQXFyq3qdxcEC91R/XG3u6v9tlPL0Hpuz7fX54vF75lqmYWUANt2c5haY/YJwYZ1Zd9sp+UELVGzRKuLiRUwuzAXtekz0pdZbEnsB4mnnIheQkGtw+lPpnbzDv8Vm2T4cfNlvFayBgxqWouEjy7hjVMUbDhNf3Faf3wQhmnygU/cGzrZiO/oBnl6TYRn4UkEU+ErRFSAY4DW7OnDlq6qR5fX9hlsvo0aPgEmJoEtG+wHdSVto7O6SNMsIQDaI++wLf2R/XG3u6b7iMh/eAxi7B3aWYX4aMq0tZ4YPk7cECy4WdiNxu9pijj85c3X+Y+iLg466Y+YaBn2Um0s6KdEfUAYKDgUO6dKaMni5GuMPoOUnnQG19K45DvdzGNCGkgKMbXL9htKliwDmtav6gP+CCzcOFtmEEhXCwMUqSZAjpSJJ0RFKIym8SDatUQHNbXLV4nO8RASCR6eF0LbWmQyqJEIscUSA5Qi6E+XAfRUVIrFKYHNkgqVBOYmIl6ZB4kZBYaSjyucwnrzEMi4RBwuGQyHMdiNfhQrh9E1Yu+QciEfPEz37UtoMEjjxRxkNdQTz4/HxEkh7MmjkFU8fno9ScgSDJoI7Z1tSItS/zwLllWLJunRDCLhx97iWoGjoay154CDu3rsWIUWNx8cVX4OTTTmPtUY+blSgbUOlQqRFnf/pzmDB2DDasXYWSsiHiKkSpcX8XKSUbEBdDJcQe3Wg3Opsb0bSzWkhsTCpqCcaMG4Wx48di9eqN+OFPfo17//kAmlraRBm6ceoJR4t8RBCNRBGOdKu1Q2yIuG6DCsQrYfs9DriF+FrFiLM73MjLDWBnTR26M8O9qzdsxW1/eQh3/PsFVDdFUSIKZ0iRD2NGleG4Iydi2pgqOCV+nPJHhVHf1omlCxZj8QtPY/3ChaiprVHb28YlbF9hIQJOSXekE8efchouu/IalGUx7UxjcEFZzMaZoAFhyu6e/O12ysv7YNaTLVu2oLmpadeIXDagptlbuO9H//QS08SFnGMyU4sIpmN/wOfMPCoqKoTL4VR1LhuovJM8oiG4L7BTiieWM86mYb8vHcRw2YvNOj5jhtGLTexvGk3wedOoPOKww9RUnGx24Hofssgekg1u1ZvJ2qzAzS5aOzrUImKNXpB8YTnRaB45wpD5fmTrPsGzaBxOR1brNtj5xQ0iOGqpznwRG6Q/UPWlD2eCdcSsl8Se/Bou4+E9MNOyo6YW9XXGBi39kvP+1olDAEwfp/Fz++iRI4ara8xD5tMHAeslN27gp9KNWeSNGiEWeVH2xiDgg6VokGAK7KRxM5DnLVLbr0luidGf2cJWjHSOdiTFcb1GnARBKVNjdMPussHldiKQ54TFlkZTexghNcIhHEGIS0IakpQYabFIXBEOkhWuC0nw3A55h5o+xYEN9S65FpXwSSzUSIg48ZeWe2m5R82sFo1LBKQJVBlKAsGRDouExWsSc0VIONrhkOe5ZalJUHgWh138O9U6Dwu8Theaat7EpjWPMkECCslAqamBB8vKWGMCPPXaQmxvTmDqjGmYMbUcQ9xUc5l2Tr40dXRhzVviZ+kSrFi9TpRfHEd98jMoKinD8lcfR13NZjHux+OLX74cxxx3LJ/K2oh4LygHfNbn8+Oyyy5HNNiBbVs2YvT4ySgqLlM5ms4RQ0L8haWUOqWxTLZ3okUM+JadO1S883JLMXrEUDEeJonspPDnv/4b3/r+j/D0K2/Dl5uLknw/wtEYwtyZIxY1RjakLFmtxO6H322F0+VUPaN0BfmF6GjtxDOvzMNdf3sEP/+/h/DW0u3wef2oKvahstiLqZNG4Lg5EzGqsghcI5SU8Ng+VDe0YvG8+ULInsGGxUtQI4Zke4JEw6VOQffZhcDGQjjt9LPx5cuvljQWMzLMCo1DFKw7NCTpzIZ4TzuP8PC7puYWbNu2HatWrsa8d97BSy+/iscefxL/+vd9+L97/oLf3H4Xfnbrr3DjzT/B9667ETfdfAu2V+8U43H3gXDZIVu/fTdehPluppU7XuWLMT4QMMMtIdlwu3a1Gdljz/E3w+U21TzokKOS2YLG35CqSkyfOjjn2IwbNxYjhg9DvA+i1F+Y8SwoKFDrU3r60d5YJH84sptgA/pRQJbVgzWY9ZoHQbLXWmGA5KG4pEgd6maS0L6gCIdqiGm8G9c+KAzdZeivfekubqXc3NaK6u07sXrNGryzcBFeefV1PP7EU/j3fQ/gnj/dizvu+gN+/ovbcNOPb8H3b7gJ137/B1i1aq3a1KU/umuAknbAwTT6fB61QcgHRq/sLyosVmXSXz00WPn4bsk4xDB65HiMHz1JmFZme0P5SyaEcMREyGmBSV3jZ7Kb6y7kN1dtywcz2OWxw+t1wZfnRo81QzgiCSEP0ihwgXkiiXg0qXauCofkuhCaiBAPXuMZHBzViAvJiEcTiuAYaz2MkRV+plOcwsU1I4yLBCoVj+s11HA+Rz2E2VjkuzWVA+5sxelUNjqJoI3XmR7qZ45yyLPklFTzLjFKnTlxbFr1oBjfS42MOISrkalc3lm8Cm+v2Ynh4yZIYzsUowNC/NQdI/Y05pcuXY6tS5Zg9bo1aAmGcPjHz0B+RRVWz38FtTs2Yey48fjKpVdhzuGHGw8yjz6AdjSfPe7Ek3DeuedixeK30dXZiYlTZ6IoP48DG0I2rEhJA9slhIk9P4nWFjRu34bWOm4BmgO3OxdDKytx+GHTMEYa+w1btohS/Bl+8qu7saOuXso/iaiQJi5O41kb1OYkHRzQ8QnjcLmsauoGNwXIl0YnHArj/sdfxksL1iGVtmNIkR9lIqNDh5Ri1pxpOGLmOJTl+5Qc5chzkSi3INyBha+9hmVPP4V1QjR2tLSiQ16Sw6HSknx4LAmRqTjO+uzn8eXLvob8/HwmW8VF49ADdRkbGLOBpiM4SrZ9+w68+PLL+PXtd+KKr16Dc6RMzzz7M/j0uefjgi98CRdfdgWuuuoafOs738O1P7gRN//k57j1V7/G7Xf+Hr//459w71//iQf+8wCWLF0mhkBSwjZqYTb1iD3+u2ttX+iHEcA6IWnmpg3cvYbobwO4N/iFvLgzpwBnCyOF+/bP9SXBIDeXyL4Osd6PGjYclZUfcO76e2CWXWVFGcaMGiXNnJiP/UivQhbJyMvLh9NpV9N6szUNmD/BriAikWw3FviQox8qlVO0fV6ReSEGAwmSa8qCWbf3BaO7z8BA1Lh36y5DfxHswK2tqcPrc+firj/cjau/8W185twLcMbZn8anP3s+zv/CF3HxV67AFVd+Hdd867uiu36IH0k7euuvfoNf//YO/O4P9+Av9/5dbTs/7+35iMXju8LORncZfvpROIcQmKeBAHf18mSu7D+E9u3SrXl5uWqNj4m+dQY3LspW//cfgxfyB4BpwDrE8D5q9vGw251CDoRwSF71CKlI8PRvqchq/qE4nhAe6U4ahj9HHuSyxW6B2yuEw+dEINcNrslvaAujS4iFMULCbXO5FWMSQTEWY5yORcIh4XRHkmq7XI6C9AixYa92jxAU5SR8/uaohtoql6Mh8izjRcKhRjgkAiQPHNGgM8hFSm15axPnyDj6UaMfYhRYxGjlTlYkHH63B6nundi47F9Cdji3mJWon43LAYCpvHi43bNvr4S/ZChmTh+LsUU2cH8SM8YcAFqxdiO2z5+PLatXoaGpDbOPOxGBquGSxrfRXL0Bw4ePwEUXX4qpM2dnnhK8p5dkf2BWsMuuuByzpk3D3JeelfhYMGHqLORydxC5bRGllhQZ6xCyEBYSFGtpRN3mjWiq34G0EFiv14eignxMmjhSEaFAXgBz33oTy5evEeKZVoqRssLdzcxEs8S8jjTsDivsNlEB8k6PzyUNhSgDKe/yogAq8l0oKSrCmIkTMOfIaZg6qgz5QlBoTPRIXBpFXpcvX4H5Lz2Dpc88jXUrV6EuHEZYFKvV40J+QR7sPTE4xP+5F16CC774FSFHLiMCGoccWF/MhpqNI0WzunoHnn/xZfzytt/gS5dejs99/kJ8WQj3T2/5Be4X0vD6G3OxctVqbNm8RR2419zUotYb8AAmdogIi1U9gCz3QIC9Yz4lr263e9cUoGygxFZ0F/nyYIBTXzndifOxBxI2q10ZJdmmk2VArdyX9+5oDMFQMOtwCdp+RSWFmV8Dh95asLTUWAtixqvfpGMf4MnDJIRGmKZ23zcYj6DozGhs8BauH2rIViI4JcUh8s4zIwYSnAZcWFgoeb/bsOxLDlhOtEX2F+/VXURtXT1ee30u7vjd73HpFVfhs5+/ABd/6TLc9KNb8I9/34dXXn0Vy6XN2rRpszq/h7vAcTt5nlStDiaUcDhtj7rK0F3+fusuxmkg68DBANPJLZF5COhAwqp20TN0YzZ5SXk1/gYHhyTZILhLFHHMYSdiZOU4RMI8PI0EwzD2zXM2Ej2c89ajztOIBFNCIIzr3LXH5rDBRcLhd8Kf50Jcnm1o7RbCEVejEjQQOQWLIyWJiFxTox0JNeWKLijEg3vP059xEKBUEDWqYYxm5KQSYkknFdGIZ0Y8SDjsUjPtYmHbSErEsOR6D2a0KvpkjlyXSibxdgi5UCeNS5wtEgbXePAZu6iFgFS4xq1vYNOqp1Q+ZK/iDhwM4Unj2dcXoCPhxJQpkzGxwoOAlVd3x3j9DiFOCxaifvUabK3ejvGz5qBozGRsWbcMrdXrlcH9eTGUZ82ek3li4MBKRmXkD+Th+9//PkpLcjH3ledgdRdg9MTpinBYxErIsVkRc9jRKgYXTxSPNNajft16NNdXq5E1rh0KOJ0YUZGPObOmYfbsqZL+pJDToIiAlL08RyPGrKjUfw6rlLGDWzLbVI+B0+VAccCNXLcNeR4/hgwfg0mzp2PG1FEYWeiB28JeIyAqor+1thEL33oLC559EivEGN0s5KcxGUOUhmV+rhCNXPEYREHAiy9edoVS9FTcH3bF+78K1VDLJ+UxGOzCfQ/8B1+5/Apc+MUv46tXf0NNJZj75ttqC2Yu0i0sLlRndHCve05v4Yn07Pmi4cJNDjg9iuVtE7mlAWB20ND4MHsf+wO1OJMLxLN+rH/6iE2YjaR7wFscRR2yakwVlL3FRO47ItwatzvcLeHu25+Zz8rmkzjkDXAvtoJkmmlU+n1e1aPM32aZZ4UsyjXg9cLn4Y59xruyAeMQCoXQ0db3tqoffki+SD7SMskmh5iPPCzNLnV0oMFTs03Zy14O9q/y9dZdiUQcjz/5FK762jX4whe+jMuvvBq//NXteOmV11VnCDs/CgsLUF5aKsS4TOmuAHWXkAhTd7FzhCfyD5juUs/T9e+5QwVMr5KRfqa7L6hdUjnbJ1vsEur+6fZssX/Sd0BgJHhIeRU+duKZ8s2mhurY+6bWafBAPq6bUOssuK5CDL8QD/FLSYUQw49GvCTP4RLm7LHC6xHCketCj5RpY3s3Oro4wiHBRRlWAt2cMhXjgX9CJLhWg99jKXTzhHLxw+tcKM4DAUMZv3yeeplrMDglKhET3iDxYHyET0qMhVSkc9Qp55FwXK3T4Bkc3CTV2AaXfriGgzHlCAd5qDipcB4xJlwS6Mal96O5bi2z4pCCqRBWrV2P5ZubMHLkOEweXYTSTCeOKeKNHUGsWb4KzatXY83WLSgeMRZlU2aiducmtG5ZBbfbjnPOvxDHHntc5ols1Hj/wJECYuKUqbju2uukrLrw5uvPwJdXjLGTZqJAjHe7LQcWyfOIKMJmIY0dHZ3obqxD7doNqK+rEdIZhUXKyyUpKwm4cNi0yRgxtAqdba1qJ5YcIRZ8i/pfypg9xOzptNtFmUoB20RRW+050khY4HO4UD5mDCZMH48xQ3NR4hY5EL8JKf36zhCWL1+Nd555GouffAKr583H9tpatItCTbm9CBQExCiwitx3YOjQYbj86m/h9DM/pWoLyyRro0vjAGJ3uTz97HO47Kqv44c3/Vga7WexZet2tpaqV0/1LLuNBpk9e2xE1QGOKXZaGAvH9+34BsPwHnw5MGt49lDxynwfKKg09yvQ7B4IhyKIREg2Mhf2AVVO6ZTaeSi3IDOFcZDAaWM8GX4w4BaywXnjWecp2zMxGtvaO7B23UZ1iXlBWfxfBfU6syY7w0nRYMmP/teVvsA47Krj+8rvTNu3v+jdprzx5lxcKSTj2utuwH8fegRrN25Qi4k5msoD/nhI54dDdx16oJwMuJQwwD46S3rDwqMYMt8HA9nH5ACjt9I665TPYMq4qWrBHneh4lSmZCwpBr8x1YmLuGNCBhKxhNpRKh7lyAN7tDnMzvUbDrh9QjgCDviEcKTE6KvviqI1yBGOzPoMTsWKJBATYsDvaicqCTcqxKK7O6HITI9c52GCXONBvxzR4MnkxhkgElf5nYz3KMLB7XV5ngdPKk9KGF3hJLqFcHAalZNKWpxDlJBV0kISwvUenGaVI++1iuOIR57Hi0jrJqxd8A9JZ1TlxWAY4/0Fy4UKIRGL4JV31sARKMOUqSMxotCiyBIJGAUrnOzB+o1bhWiswfo1K2EN5GPUEcejtbMRTVtXQzIGHzvrHJx6urEnvUFgBkEkRZZMHHfCSfjet7+DaHszXn/xCdglj0cI+SktLYVXiKnT6ULC6UGrpLGjO4xwSxMa129C486dCHdHRbmK/CUTiiSWFuVJWuNS5jFYrcaWuqzhZglxtqTd1iP3SD5TqvfCYUkj1wsMG5qPIQE7fMJIktKCNQejWLVhK956+Q289ejDWPLic1i3eiVqOtrRxSFlnx9FRbnwWkWmoiHMmnEYvvnd63HEUccYLxN8FJX0hwM5aqrhDTferE7Bnzv3TSkrC4qLipRxR7mg7HOx5bsbYGms1eO7G+G+HOWPYRl16VDD7roxcBDdqT4HVvYTybjao97I0+zA9V9+ry/za3DgdrklToNDNthbHgjkSkJEdvoSH8kXzjJg+xoSPfnO4kWZG4cG3luPsnF9g7sYGlmTlRxLHe/JJi/3A3z/LsmkjO5FTtWr5Z7SCepK9uAzlH9Oe/rN7Xfi69d8F88884LYRwlpi4oR8PvBAyzpr0fqijqOoJcz391bP+3LMbam7qL7aGEQ0rtbQMT1LbGsAqY2HQwcsmSDIOEgKsqG4Nyzvgifyy9GfETNWRRpFANczWIS40+Em4Z9Ii2NBKdYCemg4S9kgRnIRsDp5bxmMe58djXCYXHkoDGYRCMXh3PARBGWtFokzpEMTsfqIXGIpREWshDioYCcckXCwVEUuRZTpEbewZEUeZ8iHGp6loQl97rlmWgkCR4KyJ2mukIptHVyNywuBk/DmdODsBCQrk4xViUdHAlRBwiShIhzSQXk1J2da19EtTgDzJO+BWcwwR2ciCUr12FbczfGT56EMZVeqGZW5bdRdXY2tKBm/TpsWbECXUKWxs46CnFJc/OWNehub8Rxp34Mn/rcBarBIgyFM/g4+9OfxfXXX4dkqAOvPPOY2hWrYsxklA2pQmGeTwipB2mPB23pFFpF3tpbm9G4fQcaGuvQEQoae1GH2tXi8LSki6d6p60uKX8mnEtsjXTkSENj7RFFyjIVsuEUouGxW+Cyp8RB7a9d19aFVRu34O1XXse8Rx7BoscfwZp587BtRy2aKW9enp+Rh9JivxDRbgk/hY+fcQ6u/ub3MGrMGPUejUMbtTtr8b1rb8A//nWfWnjMHdI4jUCdfC2yQR0l0vKuhre3690A9+UIU2+av7NB/zXK/tbVAa7jkj80jlnXmFfZQnI2823P4OGwdmk3+pOHrOfZ7hC0v1A9xYwThcYQnOyQRdZwi+78fCEbaUN+iL2l3wyO62Wo71auWInGxubM1YMP1oH+umzB1iob38wj5o3UcOPCAIJykMOhc0FfoTMeHF3hLMldBdcnjPrU1RXEjTf9BHf94R60tXWo0VdjCtfg6a7+lAUx8Ll7sJB14WQHCU6KIOP67qBgCQxwDN6F/pXqQYApSGeecg4+cdI5YtxzmhJZtAiyVDiSCy4Mj0vDHRdjnyMN8bgYcgmOeshvpftz4LBZ4RLCwWlVHo8TvjwP7B4LWiJi8HUl0M2F4EIkEvIcRy3UGhCOSsj7onK9qzuF9mACIY5ySMUIybVwJK5GWBIkHRxliYvRKbWPZIELoLi4XG1tK+93Syk6pby5+Ly5I4pQiCMzabR3JbGxNoS65rDy75B02aTUSTYsqTT8DjfS3e1YP+/fCLZwhyQjPQcL7LHg2xOxGN5athGB/EpMHF2Bksy6T7NpapM83LatGjVr16KhqR7DJk2DMz8f9dvWoq12O6bOnIXzLvqyGno9kDCV2qfOPhu33vozFPndePmJB7Ft8wa4AsXILylDeUmJENxSkZF8xKw2NMeiaGxvRWPNTtTX1qCxuQktLS1oExcNdoJntfRYpJSFSLBmM39YwUkxjBzhNCruTpYQRW1HNBpGw46d2LBiFRY9+xwW3P8fLH7ov1j7+mvYsmUj6iRvQ043bLkBFBXlocDvUFv35uXm4ytXfA2XiisqLtmV1xqHHkw5215dje98/3o8/+KLcLndat0F75k9qUajbMhLb5gNsBkOG2BOTzAdjTySdLNx7u0YND/7g/e8Pgv0T/qU4SHNzYA3OIwG051jUvy+wTj0FXuuXXC6OWkyGxi+uI6Qi6UHE8FQ2DA0Wc79LONsUDWkUtIhbZcIUTYyRH8enxc7hVAvWWrsnmh2Rh1MrN+4CY898eQu98gjj+Khhx8RJ5+PPIZHH38STzzxFB57/Bk8/Ojj+Nf9D2LZspWZpz8sMCSe//cl+4poZAlD53A0tg0/+OFNeODBh9Q6IZ+Us6m76KU/uotut+4yvpvXezsioxqzwu6086F+JPIQAvORce9PGWUFlpEEahyW2HemspN4MHHwtUIfYAQptA6bA5dd+DVMm3CYWrwnFr9xVz4V+YjzgD8x4NUIh+G4cFyNbgjh4O4+nK7AY/6dbjvcYvR5fUI+PFZ0JFKoEcLR1S1EhuFw+pQQjYgQjHhEnudIBUc4uPZC7vNU8xx5byjeIyRFiIW8R60Nl+c4uqJOGZd38hnuWsVTw43zNHIgrxOPPWjtjKNJHEczIOFtaYhgZ1NYjZpYSDTEkXA4+YzDh6Zti7FpycPMEsHBq1SmQli1fgOqWyMYN3k8RhQJkVNXDYElv+OOU/Wi8Hds3QxvXh7yR01GY0stmqvXo7S8BJ+94GIUFxUbDx1AGBXbwAknnIjbfnMbjjxsJpbNewPLFs4TGYjBancjPzcXQ6ThrSwvF9KRh7CUX2swjLbOIDo6ggiGY+gKhxAOR2CxOpB2S8GqLi/O3zbMDyk+RT5FIOR3DJZkTG3JHGpswoLHH8NbD/wLS555CquWvI2NO6tRLXLdaXciJxBAbglHMwJwWITMdocxedIUfP0738PpZ569a+j64EmBxr6gCLnIGXcpu/WXv8Urb7wBr9er5vSbPd9GQ/3+EjQbaVJWs3Gm43NqIW5HB9rb28V1oE19Gt87O+m61P3uCHcHiqrpDmaDP/Don/QxFkpzDHB0GIvsaYYBZZb08QgNaC+NK1bifYJz8g29KCWn1noNBky92yX6hyOqyqCnnKmrWWAfyWDYplxOmTpVCLHXOEg3K6ThdjjVwaYLFy9RVxgn5vGBhknga2pq8KMf/xTf/Ob38M1vX4vvfO86XHvDj/CDG28W4/lHuO6GG/Hda6/DN7/Le9/FDWJQf+1r38Q9f/6LOphx7zDCZ071J319ydp+o0/Z3A3lNUvvpl66464/4uHHHgd3unPY7f3SXZSp3rqL28rv1l2daGsz9Bav0Zm6i21qLBFVC9HN8swOrB/Z58ehBpWbAxx9VQ5GyAJDf+wLxusHLw/7jsEhAFOwhw0Zjqu+9C2UlFSqeaIURo5wqO1u1XQqOk59EpIgRj+nK3F0g+SBhIPtLndEcbnscAnhcHmc0qg4lIvKK3Z096CJO1DFMlOhhIREMlOhuAaDv0ks+B4SBG5G1S0Eh8QkJg17TL5zW16u0UjLtVAkjvZgTM1ntLIQpcZb0xa4LVZ1ajiJjVPeW5XrgNdpRU1rDNVNEbV4vZtrPOS9EQnTkmMX8pHC1kUPK9JxsJGWDJi3eA3ySysxfkw58rjNFmU0oxtaQwnU1zagbvt2tUVn8ahJ6JTyItGwi+H96fO+gKlTjVN2+6dQBh5TJk/BnXfdiauuvAzd7U1Y9OarWLNuDXbUNSDYHYXb40dhYZE6qdgpBmNCiGJYjEiuEVLyII2yzSWGpItTLjhPVQyATK1KSdmqqTJU0omwENQYbHYHQi2N2LR8KdZvJmFrRoOQ5bDHDXthgeRpIYqLffDYexAJdSDX78dnP/d5fPv7N2D2rN27de1J2WscGjANw+efewGvvvYafC5jK0dT1vdWdqxCvMfnueEAyUVjczPq6uqE1Ibg8/pQNbQK4yeMx8yZ03HUkUfilFNPxtlnnYHzz/ssLrn4C7jqqitw3bXfxWVfuQQVFWVCOMyTnQevEckGTLGozAE3Qvc7VX08yBEonxjd5q6Ie4NRlMaUE5Zvh5C+gUZvHdkRNMjMLhI5wHqABxKOnzC2l9zsC0yzpF3EnbHhyECd6E2Fg6jXV61Zh6VLlyKeYkMtepgzHjgjQj5J1FTnpHxn3LmLIF0sGlV5uq/tR8WbICeraVS9U28W1YBCyr3fwWZh7Zly9c6ChXjq2WfU1tLcPao30dgT+FRv3cUDLptFd9XX1qMr2KXq05DKIRg3fhxmTJ+GI484HCefciI+eebpOO9zn8GXvnARrrzicnz/O9/CN756FUaOHNmL8A5GBh5aSEslyqxyGTAwtHS/1UMWQrKfGLyQBximwj3+yJNx2flfQ0AaXp7yqqYtSQUxFiiJ42jG/7d3HYBxFdf2aPuuVl2Wbdly7x2DwYDpJSEQCCG0AKF3TAu9hoQSEpKQQCCFJKQBISGF+knoYHAF994lq9ftVfr3zNsnr4XKypbAhjn2aHffmzdv6p17ptwRIcMN3dxATgtW6lA+KoYMI0sUfZ4wnu0QwiGfLqd8OkSpFAYujWSHEI5yfwIBIRw0ZUvlMsrnOWsSke8SLs/14GwHR724gTxAi1W0giXf+ZuORId+Gn0J1DdF0Sbvd0rp8wA/zlo4pBKQaDiy2uCyWzA414E8l0XISQx14r8lIEQlkJBPSYukw2H1IFS7Hes/eg6J2OezWdzsP7Zu246KWh/GjB6FwUUWtRFaVWpx9FLv96O6ogJ11dXIKyyCJacA/tpyhH11mDX7cBx19FcYjCpTUzH7PCAlpFpkocTx1ltvx49+9GMcfMB+qK+qwKoVy7FuzRps3LxJFL5GUfYiapmdaR45HOG+jYB0PK1weHNVS2KnS4GbygrEhOQah0BGxYWk3KUD5yhPNIaQJQtR6djacrKRU5CPopIiITS58NikLvkaIVURcw47EtfdeDvOvfASIdgDVZw19m6YcsonbYCjgtyjYXM6e+6sRYapO/IZFoJeU12j1kef+vWTcPutN+PHDz+EXz/xC/zht78W9yv87te/xFO/egy/efwX+OUvHsVPH3kEDz1wH7531+2Ye9UVuPLyS5XpXC4LZW3se4Wn9wGype8NHQ7j0FPs3W6nOtm/XanPCFkor6qCPxhM/e5bUCHevr1cKcdd1aPdhRneoIEDceCsA1R9MdPeVR6YUeBtt9TxZSIz33jrbXXts5br6X3JsmXLpQ1FpPyypX93Kcd9BtwnxU868zqVYD7nzc/F5MmT2tPUHTKtEYwNw+sPa1S9RSbFwTxkPWB8//7Pf6OhtkHNapgyrSfZRT2MM0O1NbWS1zZ89fjjcPPNN+DhB+/Hk4//HH/43a+U7HrqNyK7ntwpux792SP44UPfx3333IHr516NG667BqNHjlRL4SVUVb++FOiHdGZQndvRG7+7g89WIuwBKBDMRnvOaRfigjOugk2UtUgkpDbmtrZKpeQshijz3PBN87fxmFR+cVT4SJKTcWPKu63NCrvTBo90KJ5suzr8z+2ywyuEwyoKf70Qli3+OOrDUDMcnDfl8yQQXKZFi1UkHFyqRctYXE5FcsIlV3Fx3Bweld/m5uC6lgTKGyIICVHhUiqGpyw2SdDcn8ED8Livo9DpgMdhRUs4gaA8Q/O+fA9JjYX/shwoX/Y/VK5+T+WDUXyGIPgsYAqspWvWo82ZixHDBiFPrkmuGhVV/oQkYfWinNfW1YlynoBnwBAk5F+woQKDSkpw0qnfFGJn2Mf9PIkGwTxlnM3O9ISvnagOKLpLlLsZk8bA31SPLZs3YsvWjais3CGkowaNDXXwNTegpbEeLU110mF54fIWCDkQ0iHSgvnA0OiEI0p9iAtZDKA16oclEUY0GECEZo0L81EwqBAlAwuRl+uELSnkpalW1fHZBx+GG757G6698WZMn8kZIApcI44aBtQyEi5y3cuyxeyQP/jgQyz5eCl4ZoaxZnbnvY5gEsx7gWBIbSC/5NJL8HshFk8+9ihuu+W7OPfbZ+Hww+dg8qQJGDliOEpLS1FUXAxvjlctqzODNmUkB19auZZT0MVr9xD9EugeIPOKQInZVezNcnC53MjJz1YDWJmAsswi9XHzhk3YuHFT6mrfwGz7Gzdtwbr169Vy4L4G428S4kMPPgj5onxzdiMTGc342W12hEMh/OWZZyWem9uvf1Yw37WjshLvfzBP/TZ0Bs5gdO9I7ovy8zFhgmFwg9f2GCqIzy79PSGTJJl5uOTjT/D++/NExhozFbyeiewKSj5yBveMM8/Ab3/9JH7zxGO48/Zb1Izr0UcdgSlC5kaNHIGhQ4aguGSAMpfrFJ3HlI9mvhuzTqyLfK+69OVAv6U1s/rc37X189X2egkKc8JqseLis6/B+d+6XI1SBMN+JKVjbU1mCbEwyAVZMclBXJR+zjioZVARHuJnrGPmajbaCOeGXS6rcmTbYPeIsu8yNpEHhBRsCSRQEZDnJCzOSJDEkEiEJcyIKJFcrsWZWlqhCghBCYl2Sb/GMi4SHCrh8k+i3SDkYWNNGPU+EeDyjFOICM3eWiTOPATQJmFw/0ae3QqXNQs+iTtPMyeBouPeFIvFjlBLAzZ89Lykyxg96wu5mAlMQcBZlY2bq1BUOghDSrzIVjd3ViNumvfVNalRf0+uBxZvNvyNVQj7G3HEUcdh8tQZKZ97DygszfTxIKKLLr0cj/3yCdx6802Yvf90ZCWiqNqxBdVV2+D3N0n5RhAOhBET8lBQMgSu3AK4U2SjHfKVa+ajkTASISEbsQCSkQj8oaAIZJJK6dzlml8IRsjXrJZsHCn5c/ud9+C7t96BQ+YcLmQ4tXle4taVsP/Sgh2jZAmXre0tYB0yy+nd9z5AY2Ojki9mJ94ZDFkkSZFPrmcePrwMP/rhD/DjB3+Agw48QGTRzmUdDL87x2V85rIfzuhyiV8GuuJuYne7pt19ridk3j6YJT3FwulwIFdIH5fl0m9PoTP/OVJeVVWFlctWqGuZKOqZwKxTn3yyDNU1teo9vc7HDLLHfM/+Mw/AyJGjpI/r+VTwdrkkHyS+nFV45tm/GZfkHvOlv8F30GAC8eprb2DVmrWpPDLAeHTmCJYR20npkFKMHdODdb8M8nAXqPKXh/qryvcCPVVF5qFZX+d9+BEqduxQRKAn2UUwW3w+H/Ly8vG9e+7Ez3/yIxx1xGFq31M6+I6uHMPiJxEXRYtLqFLqXobgs70toL0ImQil3UZmcqi/cy+zWOxlYMVkQ7j6gptw0Vlz4XZ5EBIljsukuBGcG7WVJaq4MTPAGQ51CCCXRglZUIf+cReFCByr3QanW5Q/OqcVdpdVwpZr8tlqy0J5tA3rfK1olme58ZvLtGgWlzMXJB7KRK68i4cAtsj3UFiIiNwLRdoQkt+clbDLe1xWCyLif2N9CJvrAwgE4+rEcIdUMJv4EX6vzN7yzA0vLWfZgIi8i8SG+0TaEklYhKDY2xyoXP0hKle9o/Kirzq0TFHO5VGBKEYMH4YikSWqgjIKzB75aGqJodkvnVQ4CE8+D8uzIFBbjsGDB+KQw46k770SO/PRaPEjRozC5VdehceFdDz84IO44NxzsN+UKXBKnfD5WiR5LXB6rEK6RiHbK6RLHucpI9yQxRkrqYLwhaMIBYVkhJrQFg0gKqS4rr4RMckbW2sCJQWFmH3wHFxw0aW4574HcMvtd+HA2YeoDZq74DMu430Basma/Ot5A+9njxapH1u2blGdJ5UaRShSyk1n4L1wNIoCaS+33XQjTvraCXJtZ2dugnW0O8ezO8z3MLxQKCK/uchRIx3dqb/MRxODBg1SFY2zRCyQjuWRDpY1B75C0uY//uST1FXj+p6AzxtxasOH8+crxdjY/8O49K16YKadh5zOPnCW/Laq2Q6zDncLuW2zGlbS/vXvl7BoibG3kPKwv2HW+e3bK/C3v/9dDfLwdOpM8z4h/fDwYWXKEld3MHKnh3z4DNHXOWuUM9TMnDFQ0f2sBsFZCRIDu9TJa6++TM3AulIkpWP+M7yuHN9hvich5ecPhORb38/gaXx+2ClZ9yEYjUIUdbsdl593Pa4+/xbk5RTCTzOkIjjaSDhEGHN2gfsd1MZtNdORNGYduJdDHJdeWbKssEpDsXPvRrYD2fLpEbJhd9jgcFiVa5K+Zo0/iQp51tggTnO4QgbULIYxg0LCESbhED9BITm+cBwtnP2Q6zSFS5buln7flsxCfXMca2tCWFsVQnVzVClMwm2ESIhfeZctIeREBL1dCArPYqAJXpKaNnk3Z2NiviZs+vDforT6UjmyZx1aRqB2J9i0eRsSFgdGlJbAWAzFkQn5kPTRjkdTUJScWBR20bhdefmSpjAsySCmzzwII0ePVk98FtHdfRgCjwdWESUDB+Hrp3wDDzz0MB5/7An88IEHceE538b0yRMxYtRoDBgxAbk0MqCaUkooMy+kLAO+AMK+ZsQC9WiLhdDCMzoicRxw0IG47Oq5uPPeB9RMxpnf/g7GT5wEi3TUnQlpjc6wt3X9O8lBS4tfjfRRPnXXUad35NFoTEjG13DyySep36aSt7uoq60V0uMT5W/3w+geuxlu74Yre4G+qwnmcqKJE8fB63WL7I11WxbmPbZbb7YHHy1ciE+WLVXX9qQMCfP5pUtXYOGiRYrQmOhV0Blmjyl7DjlkNgoKCqTv7D7tJmiJi/WZVtdqamvw1FN/RHOL9E9S3v0pzxg240d5/Zunfou1a9bA42bPZMS5q7gbbU8UW+lTrTYLJk4Yp0hc99gn1SWFnorAlF00RNHQ2KjyItO6SyMwcw49FOecfbb6bcoukojdQUNTo3I05pNhFAR8197UG+wGMk5rb5FZ++vv3NtnWw9H8dhAaGv+orOuwM2X34uyQSOVCUieccHlypzhEH6hpsJ5hgVN0aoN3MEYouGodCI8mIZjL0I4rCQXBuFwi/O47XAK4eCSJm7gDktF2BhsU87PZU0SZjIihENIB8lGmzgSG7+E76eJ3Dg3S7UhQOtWsTbOo8Am2c0R8GwRwDwJvToQx/IdAazcEUIw1AqXpIl+uKHDKvFmt+KQn7S2JcEgRLIjYdmtTlSunIfyT4zNeP1djBTopo6wrbIGHm8uBuVnGxvDJSvMt0fFXzAYF8GfgMtLay5OxPz1yM7JxaxDD5MyE0ZFoda/0e0TcMSG6aYzBXFp2RAc+5UT8N1bbsOxxx0r5GkmikaMRIHXsusSKoEvJGSzqQXBlhpEWkg2okqAlpQOwwUXX46Tvn6KEIwJyPbmKP/mu/ZESH/ZwKWQ/Sihdxs0f9osZc9BjJ7A8qYyy5naAw+apX4bilDv08X6Yy4nWbp8pVqWxd9m/e1b7GaY/TYT1Xf1wMz7mdP2w/Bhw6V8TKs43YP5zP1om7dsw1+eeV7t92BYLJfdgSkPiD//9TnsqKhSloF2C73MnhnTp2H4iDLpQzlfbaC7emTWW8ounifz6v+9jgcf+pE6FK6/5Bnzxwz7mWeewz//9RIsanbF2KvRE6hDxGIRteRq//33V9f6p618/si0CPwBP+obGtrlSHdgmZNYMMtmzdpfLaMzr+8OzLJcsXI1aqpqUrJLXcoALO++kwGfC/qt6mVW+P2de/0jBT4jpFfqU792Fu649n5MHjtN2SKnxSCeh5HgbAYJgRAE5eR3lCZlRSkOh6JqHwfP4hAxqSo3N1sqk7jZhnlcm8sGu90Kj40HaAFVQiDW+FtRTnO4JDUq/FZEJGy+i3tDgpxFkd8xISQkCC2iePIAP7P5klB4RXsvtNuQLe+sboxgeblPHfSXLWni3g2mjEuqeEYHN5VbE/IeCS9CUtNmQ7i5Eev++zQCdduNQD8LhMOorG9CbkEectwWo/IoASENXSLMZWNhSatDhL2DlkBsQvBCTRhaNhxjx46n7/YZg30BFH50rGfsvBKpEc9oMo4dosh5coagaEABcmn6V0rXFHfsnuubg2ipb1BWuBLBFqlnAVTVNKi8GD5sBB9QYZqdovkujd6gZ4Xi80BTY6PqtC0ZkA1CKaluDwoLC9Vv1rfdqQumokRLae+9/75aSsURSl7fXQVg30HfyRUz78uGDcXUyZPa85XoShll/vIen+Wg1YsvvoK33tq51DUT5bcjzHi8/H+v4ZXXXoPVbt/tsDLNHvOdxUWF+MpXjlW/E0I4zOs9gXHjkhr6/+uzz+K+HzygzlUguBqhr0ArlGacXnrlNfz8F0/AHwwp0m6WUU91nvd5/sO0qdOw/0xjL6FZhl80ZFpl/L6g6E8tShfqLv/Sm4FTdKYBA/bszCzWG/N97777rrLmpwhPxnWdZZZhJf/SIbM8ZO71Zw5+QVqVkUVHHfoVfP/mn+Hwg45RQiQkwoczF6zI5mF/PHODswPcbxFRhCOilkJxL4Z0ybAJsSDhcHtc8Hpd8ulQezrsDiucvGezwCdltz7cijWBJBrUQYDG3o0wN5BL2NyzwfATJAainwaEcDRyo7nc474LHvCXJY4WqPKFcAyQ8EORJFZU+9HQEkV2qwV28ceN11blj8RDXIL7UZJCbJJIWJzYvmIelv3rcbTGU6Zw+23U0IAvGERDcwBFeW6lYHMvqvFKizroiIcexrmRnfnnzoYjKwmLJGD0mNHKws6+DHZAPJSNmL94CbZW+VA6epLkhRDTlExmmbIu+qU+1TW0oKmuHC1VO6R+RFHf0CRlHMOQ4SOVX4JhfhE7tv6G2Smx6nXdHX5+oLGKpNSFNmkLmYL7AuLxnQeK9VahpJJkjka++urrWLBgscgrxYL7CbuZ8/22jCpD9LK5zTrwALU0KpmhEspy8Hjc8Pt9ePTnj2Pzpq3qOp9lmWZSrPRnKsycJXn8sV+jRZ1V4Gq/3pMivScw695Zp30L+02fqqw1me81PztDe7sUPw6XS4iuE889/3fcec+96rwFziSY6G39Joz8M54zTyl/SUjd977/AHZUVcLtcso71OVu84fx432eBZHj9eKC75yLgvwCda/HMs68Se+T4EyFGnyVPOqurAlmMf2wRLo/DLF7sEzNfH/v/Xl44813RW8w+kZV2t2U5RcKe0Ey+zMKPUvPfQJZUikNITRlwnTcd/MjOOvk78hVizD1ZunEDatRhoUo02JUHNFQHKFAHMFADLFwTM1GkBxYaRHKRcLhEGFE0uGU705lpYp7OGieNksaQ2VbFlZE2rA5dfheljzMJVtRbhJX53FwaZXELAb4I3HU+mKIkHBIiZJwWKSRSTBwCYEZQKs14SysqQ2izh+BR8KmlSoup6J5XLuQJo6d81Rxavg03xtP2rDijX9g9X+fVWlXAe+GEO8JpsgJ+v3wRaLIk/ywyat43aycimxIHoiUEKWHdsyFoNmScDrdGDJ0xN7QjvYIFIjsoFokD958ZyGKyyZhxMQJGOAxyCDBvlR8oa5RSFl1ORq2b0WoqUHqQRjVQjZycgswcmQfmlf8MkMqH+cjOURAMD/ZUX6WrqsyzMnJFcXH1S6TegJnH0LhENat25i60juYyhPB5Ss/ffQXIn+iIqt2Kqd9j90Mdx9YRkWYZTt71gHIy89HOBhs7yy7ylOWgXkvNzcXnyxfju/94H5s2WrMPlN5aqPVRAm7s7pj1iv6Y1ibNm3GXXffi9WrVyM7ZZkuvax7hd14ZOCggbjqyitQVFioFPMeFXGBihvjKI59AGfs/iOE4MZb7hBF8oOULzMv2nZpS53lCa+l54sZh/qGRvzokUdx133fVxbAuFeESGV/lzDzj4576o479lh89fij1b3O3v8p9G01+8yQQdEpeIRYu7Mzkxv0wnzksvV1Gza0z/z3BnyPWaYLFi5UeyPr6xvUvhszDpllOctuHy0cEz1n+W4is8Lv79zLsAru/RAx1C4sSgcOxW1z78fNV96LoSUjhFjE1LQrTxlPqCVVbYhzWVKcpknjiASjQjg4y2Esf6LmzI3j3CTOpVSebBuyvTZ1HofTY2wedwrhIEkIioK/QcJdGREBGOeshRSZEI5wLKlmKzjjwVmT1jhEUU+gWohNWK7xYD/6tcnruDGcsxxFQnLcSQmvPoRaIRzuJJdeiWCUSkgLR1RqFUmR92RJ+Ba7A2F/Cxa98AR2rJqv0p6xVNkN+EXRjkn8cj2GWcH0aXEuHSKZa1X7MuzKChXjne30oqCk1PAkAiGTDmtvhBnvN97+EHUtYYyfOhNDinNQwIJJgz/Uhh1VtajeshEN5VsRDwcQEGLb4gtiuBCNAYMGp3xq7Am4qZP7rLKzjXXCVNg5sv9Zuq7qcn5uHvLycqi9pK50DcoshsW29L833sDmLVvUdYbdk/LD+3RKwRP8+a/P4s677sOmzVuVwpDFBig9mHm/b7G3dey7tsO+wthxYzF92lQ1U06e1JP8Yl6bCi1NV/OQu2uvuxFvvW0o2ma9oTOVaDo+Y9YrYt5HC3D1tTfinffek/7G0V6Gu12Wvcie9Lp3wlePxxlnnCFxpFXERHv6ukUqjkyXVfoDLm1654P3ceNNt+Gmm+/ABx98pO4zLDPNXeUJr6XnC83x/uell3HJZVfisSeeRIOQDq/X26v8YZhBKc/iAUU468xvtVv/4/Ue0T/VrN/RgyhpR67kJcllT8udzWxmufDcl/ffex9LPzGMIjAfM5FdLGOzvF555TXcfOudWLZ8pVpV0pvyNMCy20cLp9+RWeEz9/ozBzNoXfsOTGFBIeV0uHDONy/G3ItvU5aqYrGoanA0IUvHJU4kHbFYAlFRBiOhmCIdIe7FIEFgeNKI7A47HOrEUSc8tFglzp2a4bA5hRyIHy6vqZdSWhVrw2Z5NsxeiUu2JOyQkJkoZ1bYsCQCASEgO4RwcGkVz9ngTIWaueCSCyEueXYLctqs2N4URY0/Crto8Q7OcogyQn9cBc6lVXQ2ITBOlweN5eux9J+/RtjXpNKfaeXKFMZGXKDZ51fLuXgWiYJ8V6JAbnMLZTwhHVGWDW0Wboen+WEhTLnZyM031qJnKvD2Npid6/pNW/HuR8tROmoqho8dhUG5NC2QEobiheZuq5p9KN+yFVUbNiBYWyW8M4nmYBA8UXXa9P1JHZX3jDo2jU6hFDOLDZVVlfjPiy/hw48W4r33P8K8D+fL9wXi5FO+z+fv+Qvw0YeGm79gkTh+LuzCyT3xPz/ld4G4RYsWY9Hijw23kG4JFsv3d959H1s2G8SgI3LzcpGbm6/afHdI70ipmPIQwJ8++hhqG+rVtfY6Ig3HJBamI3ifjgMpjz3+Kzz40I9RW1erTh63tC9ZybSz/ozQD8uo+iOFKl9T7f7M009DXn4eImnL3HoCy4iKGDcfL/nkE1G0b8Jtt9+DBVJ/eKo8YSrRdKwLnI3iWRp333c/rrrmOlG8litF2Ly/ZzDSkinS03/ZpRdg1v4zEAyG2vPavNcdVBhCeDkQ4PV4UFNXh2f+9jfMvfYGXD33Brz62n9RsaMCfn+gPXod84RoafGJIrsMv/7NU7jgkitxy613YcGiRXBIuNnK8lRm8aEfhsn2EotE8NUTjsehhx6s7pltqkf0thjYDPujgvauODMGZzaKCoRscB1oD2B+0rmlDDaJLPzxz36OzVt3LhtUkHxNl1tmPvM+y5h47rl/4K57f4ANGzaL7DLqe+/BcPsjo/cUvSiovSD6/RmFLKks/VRtP1+wo2elrW+swzV3XYyPVyxCbk62VHKOBEonLZq7Mnsr2rPFliUCUcgD92Q4HcKsOZtBYmFMt3IZFklJLCJEhC4alY6BIz3Gxm91zoY0zpgolrSAlSfEYJAI2WJxtCZlFQJh50wJzVBKeLSR7pbvpW47Cp0ikEUniYu2HpeKSQsmPOgvLO8MCwEplAAKnHZpShIPaajcs5Hgd3kf3wUJJx6LyBUb5lzxIKadfH4qB/oOlA+UHW/973/4yyvv4YorL8IB40eqPRuUC6ygTeJn+fYgqqvDCNVtgyuyGdGGDdLWrDj5rEtRSAEmAbULoX0EZpxjogj8/KlnsaU+gEOOORUHzhiCsTk7GydFXWMoIQrjCix5711s+fhDBFsaYCvIE4IZwMzp++G6m29Hjiih+2I+9AfMNlpX34DLrrgaH3+yVNqcW/Kna7OvFFfMOrYh5mNObi5scmGnFJMv8kN1afKHpNeU96mrPcAoFyokydZEqkNVl1ScKDu4AbalpQUnn3wi7r//PuRkZ6u4ECzXRDKBy6+6Fv/5zysoKiww4tAFTPHL5yhXmCdzDj0EF57/HRx5+GEij7rbd9Em9W2ZUuD+/Z+XRDZF1X4B1kqG21UepsPIT4ukVeSXvP/O22/F5ZdepO51Vk/Nax/NX4hLL78S/kBYysyhrnf2PjN8rvsfNKgEv//Nk5gyZUqnYfcGZt1Zt2ETLr3iKuyo2CGE3q6udxePKAlDWxZ+95sncMxRR3YbD/Mex46uve4GvPDv/0gfkquuE93lr5n/Zr5EYjEkpHxKBg7A5MmTMH78eMmPgerwQC5Dqa+rx6o1q4VgrEBNbZ1aypvtzm5/B8NLR3fvJuifynhNQzOmTZmAZ3//BAYOHbHb+f72W2/j+u/eimafTxGoTPKgHYy7vJM+eRZWVOoC6zoPgRsxbBiKiwtQWFiE0tLBKBs6VFmzCocjaGpuQmXVDmzdsg0bN24ROWGQcIfdpkzAq3qeals9xcLIP6Ofr6+vw5jRY/DkLx/HjOmT28uqK5h17Zlnnsftd99jbIBnx9cFGJ7FYoNfZMS06VPwlNT5oUNKdzvvTaQ/f4OUxfN/fwHZHQ7O6wgjLhY0NTXikosvwve/d5c6D6VjXNJ/33H39/Cb3/0ehXkFKmO7yx8zfJ61EZEynbnfDJx/3nk44SvHqBmn7rB23Tr87fkX8Pw/XkBjU4vaG8X3SJDymfLUE+hZ3h/w+3HZJRfje/fcoS53ltfp1y665HK88trryM83+uOuy5/1xoIWqYvXXH0V7r7zVuNyB5hh0D32hDHww32qWWojZ/d5xxUjRx1zJH4r9ZHyu7O49wbm88/+7R/4/oMPISnyhb+7k40cEGhoasDUSZPxlz/9AYNFNu1pPDqi70Lay2BmqsPOmQinWsqUpEIfk8LgLII4nm+RlI4HotzzDIsESQVnIsRxTwcPA6TZWYbFTKdJPZs9C1bpIGgWl8LcLr8t6hpN5Nrg5AZyUUg2SZjrElmoSQAhkhHuB1GzKvJuqX9cSrU9EEdNkDMegFOi4ZDCtYp/+YBb3ucVguILt6IhyLVfrXLfmAWxiJJva81SS6+E4QihcSEhncC615+Br6ZSpVu9pI8R4TR6WxROiRubYHrtYZvnuSVZkp9xSD7K99YsB1weT6pj2PeQ3the/t97WF9Rh7FTZklHVYKh5oGGKYQk/dsrKrFp9QpUbViDsJDcuORFKBaXbGrD7EMPU0SD6MsG/EUA83HntH16rnYGKnD0Q8XBrpZVcGSU1p9owcQn332BgHQ+4kIBBENBBMOGoz14jiq3f3b6XfyJo0WnkCiH7EBp1SkaS32X675gAPXSeZfv2IFWEeQmWK5MBTvzqZMnQx14leCcnyHQO4Mpp3ifZyhQYX73vfdx3Q034fKrr8Uf/vQX/O/Nt/Hx0uXYtGkLVq9ao5bm/OapP+Da62/GNdfdiOeefV7JN2M5iEE0zDC7em+noFcKn4xghpu5nOHZR72JTiZg9jGNxpKxDKCim5lflqeSAfKOSy66GCOGD0coEMqo/aZ36vzuEQXdk5uDJqmjb7/zHp548te44857ldJ4y+134qePPY633n0fzS0BUcLzhMBSUdk1DL6XLv16j+AyT7Kl3ewOmH7iqKOPwplnnC71OdFunao38SB5Z1gcGOD+ivz8QsRF+dm4cYNaMvbPf7+EXzz+BG6WvJgrxO7Gm25RpnP/+Ofn8JHcb2xqUsuxst0utazMqNscgpOyT72jKxj1g/mXpTbue3NylOJIomHezxjilfOVPWWn2r/HOEqad2+kvnsw6zMbPDHqDpfB8VOZn+8ELE/qOgSXDbpFFsVEWcqkjFmulFvcZ/Hxx5/g9jvvxsWXXYNf/fZ3eP1/b2Lh4o/VQYFr167HOyLbnhaZdvOtd+CKq67HU79/WsnvHCFNO99lyK1elYvAOOiyb2FGoZV1LfPqnkLmjU4d2tzr8HuAyETunVKVNgNIEvsVX3itx+3KRl5uLhyizfOwP9EZEArSRCtnESR3pYKyktKKEq0wcJSJpnGjEZqxpZUqIQhyX1U0yS11HgeXV3G2wmmcxUHTbxQoHO1Q+zyEhLSKv1qROOtbLVgXz0KFEBl/RASuhGklwxQdhQcM7hDCURmUHyQTSSEzIsns4rinw2lphUuEAE3K1gvh4CwKDwV0SbTtolxYxNG/NS5+7W7UrVyCzR+8YiRcFW0f1Z5ULQmL8pVIxoTktELoDwcIjVdIXbZIxZY+iNtVJD8lObScxV0mFgesvW+lewVMpeLDhcvwv/lLMWT0JIyfOBkji23wpO3V4Lfa2iasX7UK5StXoWX7FlFUI0hyT00khLFjxmDGAQcanjU+BeYf7fkbSkH3dZZVqb06saKJqmFYpjFmHQyFzGiL6rOjM6+n2muX38XxUD67lKFLOl6aM2WHSsfRaIdct4n/jhKUygVxrChno0aPQk8HwhG8z7SbnTaVsYAQmv97/XXc/8BDopDeIp33Ffj2+RfiOxdfhhtuvBkP/egRUdD+g/LycjUSbJj8NN7N8Ix86J1CyM32rRkq7Tt9dciALiFErFUERKakIEOwg6bym6CczlA5McbYM88XYsaMKTjn7LPUTDJHCPm8oRAZ97uCKUOU0inPuKUecfM4CUVennzm56rR1Xz57ZVyd7t5upJRF1R6UuHzO+sSR0GZ3kzSavgw0tp9q+oajL/5rksuuRBHHnG4Uti53zFjSB006yHTRcdscUm/6ZS6y/rOPU75+WYeuI28EXKWLy7b6wWXL3P0leng84QRZvflyLjTHx3zjueU3HXH7VKWp6fu9270ln0eX9vTE4xVK63SiZLPQco+B+OcVjd6qg+sM4xVd32xSdg5szp1yjRV30x0FXx6uVIHYlnSqt67772Hh3/8E9x486247Mqrcc4FF+O8Cy7BtdfdhPvv/yGee/4f2CBEk+XB8ibMNDDMTGUXnzCjlsUTkbvBp0vBDL+LxKXAuBj5lyFEdyOx5Rt7KJYURKZwQ3Efg/ouZ5x4cKUhs7qHkRv9UFdT6L+QP2+kBAjPyOASHrvTBqvLAqtUAs5shHk4XzMP3EsJ7jbxLzKMBcPlUjGe/h1LitLM5RRszNJQ5VmuheayK7uTZnCtsDm49CpLGo0x68F7XDZlEwHD8yZabRY0i5DcaLVjrTxbLmH5YvI+KXzu2eASrXIhElvlfXy3W4rELrctoqybMx4uaXTcX9Ik/rinhBq92sdBoiGfWfLbZnGiLRjG5tdfQLi+VqU9JZP3HKmAOJIcDQWZSap5UsDI61Ut5Sgu9W/qO/FWKyQLEW+zK0LXSiVjHwVNT/79/96Hp2AIJkzeD+OGeTCAW1ZUwg00hmLYuG4DNq1YhrrN6xDwNyNidSAqGeKW+nH4UcejuLgk5VujI9j+lOlp+WQ7ywhS31grKUTpjGcNRcZ05r3Ovqf76Xi/o+t4z+gUqZqz6u8aX1NxmTJlEg45eJa024R6hh2n8VznSO+0+d3j8SillG8IBoNobGhE5Y5K1NTUqFkbvoedNDt3dvIMOz0MLlviHgAzvt29m+CzHAVTs74ZQC0zE/mTqaLGqDEK0g2nruwZdsaS5sApw1M/ewDja8jznjtfgv6Zh8Q5Z58pZTobPl+LGlwxFIqe81ZBMkB8qrDM8KxCVkla+UmY9xicWZaqeonjBvXCgnxMnDhBLQUyw+jp3cxtukzzpzOYcSkZUIwHvnc3vn7S1xAJhREWl17neoKqY2n+TWe2LSaUhMKc4SOxEx+7+CXSw+kOZt6wDAOBoAr3phtvwIXnn6OuE+nmeDMBZ+4lIqpYust7Ro+36UcNSvQDkqnBhYzaoMSDgzLdiVcznCGlg3H0kYep75zJMut5V0gvU37nUliSRepKPH6gqbFJya7qmmq0SNthHJwuWvn0tssuOj7LT1o+4zI7hic/1bXuQN2DHs2Zmcxg9B9sk/zeHRg8SaPRknoG/YqISeVbZmhr5ax47+piT6CM47JF5mtGdUTez2coqfoDfZu6vQjpCSsqHACHyw6nEAGn2w6Hxw7RBakzw9fQipZGg1hwhoPtNyE3wpGY2uDNjeTm9FwWyQb3d1htSvG2CYHh7AY3kXMDsFN+cz1plhAMli1HSklCnEJM6LfF6cAGuxNrpIFtkyINSkVwJtpgj7eiSkjERtHQeTigQ+JAfZYbwOkc0i86WRnlk6eTN4vfGJ+TVutShENIVasQHpsXtcuWoGKBcbK4qmDyjj2F2dhz8zwIibCgJQ921VQ2zObEdmWRzsFQ+CxICDlKwCnpkTyM7hwh2Rdgpremtha//+ebaLVkY9K0mRg/ugRlOVK2THUq4T4ph42bt2L9sqWoWr4M/rpqBETotXrcaItHMHXqVBx8eC9MK34JwbZqCH1DsHcFo+MxHL1RiHbnWP/pjN/85JuM76kQdrlmfE+HEU66M9FdB2jeO+0b31AKGhVF9Ww3aSPMd/B5U7mi8sXRP66TJwGhU2cYiAwhOtYpkxgViGLKUXKGl0lHw6gp+ddNutJhzPamCiIDiEqpyq3PkB6WqUFlGBcjIplHhvnHfGGe3nLTDZg6bQqaW3zqmpm3meSbWb506ndKGWn/TLtvhsfvtKbIDbtXXnEprr3qCiGYXjWIY4bTFRgCFQfmPZd09gVGjhqJRx5+CJdddpH0eQ5R4lm3jXgyzr3Nh3TXEZS0Str24K8jzHjQL5VZknWb9E3XXHk5rrj0YqUEZxLPT0FenSoVJkJ96woSU/HLdix1JNVW+xKsdWar7qlXoT/TLG1PuWfKk5O/fiJGjxyBgD8ov/jUzjrZGcyyoZ/uZBe/8zrjZM4CE+azHInnDJfbTYuXJqHvHvTBqJl6WlfoPJ96Dp/gAAX3+2aC3tYtzoCpkeXMopI5GA1GWcLNJEaqTBj3Pp59NmHW1y80CvOK1DSsxW6RjloUdCfgctvgdokos9GcnhCOhhh8TTFERZlXpmpFYeSmb+61MA7nEtEhQoosWgk8+W8TUmHjLIbdCruLS6u4yVz8iGwxG5/8UQ3GIcLObReiIv58Qng2uxxYKcJ6k9wLSUV2ynsCoTi2hKIICPFxSv1zyEtMIuEUP5xstEuRUZEPCDEJUqFXZEXCFWHiljCTwQC2znujvXJl1jwyQ35eAfz+Zvh8AVVxuCaVSSSUlSzJD7Z3CvNkmwXxpHRG4Ta1JpPIROn5vEGBxXILNDXhdy/8T5SKGCZOnoEx40ZiTLEQypQ/ggsJKnZUYd3ixdgmrnFHBVqEoMbdXkVK87wuHHfCyWqJBLEvpP9zAeuQqkefzh8KP9OxDVrU8rWd13p2bIdGp2U487sR1q7X6IxyMosqPSwT5nfzYLGOMO/T0s2FF3xH1ac49+5Iu+hIDjpDu+wQmB13Z46gP76Pv/nd5/MrhfD2W27CxAnjEZP3mjCf6Qq8n57O7sC2rzbyp373iFbKBgk7NRrbt5AwWRaZRV3VtUzTacIsj/33m4GfPvxDHHrIbPgDAaUcsb6Y5aDC7WXY6WgPQ8KjoszlYT6fD6d+4+u45KILkcszPyJh1Q9lAsaLJHoPotQOo/6QdBXgnjtvx1133YriogK1T8pYhij5QB9mGj5jpL/XLJPGxkbpl6y4du7VuErIBg+LU3s9Msy/XaCCNutvD+mT4KlDSEuVskpd60OktyKO0Xf3CvpVh1JmEA+zjxo3biyuuOwyZVSHG/q5FEzlr7rbNYz6ZryI9aUrp8IRfwyTvwnqCTQUcLMQ+tkHzVJ134TppysY4fQUu13BlHYuwXcFU6PeLzKsO5hViuRBUtb+uzuoECXaSu/YpVT3HMbre5EnEhmWTA9ZvdvIJK/3YRi5VlhQLIo49w8kU+SAFmUssDpJPoR9i2MGh/xJIR0JIR1JBFuiCAeNGQ+pyRKKKCJSEMbMBomGEAtxnNFQ36Ux8pONUlmrkJatKpw8pQqdf+QaLVJxE7nVaYXfY8eGbCc+djqwXq5RJfcnEqgIC/GJJpXZW+7PsMn7rcJ8TdO3DoYp96LiJyQNMiTkiDMdyYS8zerE9g/fR8WieXyrUnD6CjnS0cXCAVTXVatzNdRUS0oA8S0eyUeaAWbKk1kOxCSmgZB0ln7TJC/RTzW5D0CBxXKLCmF7+j9vo7qyBeMnTcWoKeMwdagTOWkDVEz/jrpmrF6yBBsWLkDNto1oiUYQ5Br/PC+syRAOOfRwHHjwocp/T8Lyywzqn21q5K2zPCIBoPJvONa09N89OVZM6e5VyIYzv/Mz/XuH+/KHnbN6I8NJg+pQWcdTo4UdQf+m0nP1VZfhG6ecjFA4qEYXqUASquNO+ekKZsfdlSMYBr9zBJFLp1h/r7rCeCdHnmny20THdKSD90iezHB7Age/WjlazkzqAQxTxGLqR+qzj0DpI6JPFVhPUTfzysDujzZPnz4NP33kYRx/7DFq4CUUCKr8UyPYLHvxk0n5Eqa/dP/sQ5hdJBnNzU346leOwy0336ju1dXWCnHNbOOuCVo4lN4h9Wv3YdQfUYlEMWI9vuj88/DQgz/AuDFjUVtXryxusQ6Z9axjuvoDHd/Bd3PknLOJzc3NmDZ1Gh7+4f247tpr1Gg5/X16BjMzcAaK/Xnql/q3Kyg5DDA6SgcQZy536kuoIM06wCXg3dQHVTeZ5gyrgNlXnXPOmbjgwvMQT3K5eUzNpvIt6fndFVg/u3OEURaiE9ntajUJl09dcME5OO/ss5UlJ/42YdapzqDuSZDM74wh7xXao/aomfHZBWn9NVOqyjGtfDtHKhySzAyrPA+H5mN8MsNHMkZS0mb0Y5Ln8ruTVCqYZWnkAyPTlc89Q9cl+AWAWTVyPDlw2p2wSyZy9J0zHFa7VHKHEAP5dLqy4M4W4uGWxiSFHw4m0VQfRyLilAqQhThNYLL2SINlxaZZQm4Qt0hYnN2ggm1V99ipGp8cQWERtyVblbBRoykSI5Yj24Y8Bpf0TQ4hPGGPDVuEdCzLFtLhsIOWqtfHo2iKxNW+DrcIE3ubEJiEvE9+c1mVWmbFGZc4hGgk1dkgYSEpySwXmrdtxaI/PQ6/ryFVw/qmGuflFMAtgqGqfLvaCG6Oa/KvQ9LmpVUu4XRZVolrll3SbUOw1Y7aWposNOKQ1ob3KjB2bGzJWBhPv/weNmysxdixk1A2eQqmlWWjkCwvDfVNQawSorF23jxUrFuLRlpAkuftuTnISkYwfNgwnPjN00VA80GSmC90U9sjpNfOnVapCKO9qM6N//jZS8d9CLvnOFQgMZD30xIJ0R4zxknkgRpdZuXvBKxLfL/T4VRLb445+mhpjz7VgfKeWR/MePYG6c+Y4XAENxSK4PJLLsa3Tj1FkQxz+Rb9Gh1JCp00QkPByLyeJpRME0GUCmuXJMi1jm8gMbFaOsSjD0AZa5SUmS/qq4KKQ1pazbww0rln8aBlqoce+AEu+M657BbUkkuuM5ckqjzsWL5dOcL0T0dlPRKJoaGpCYMGluDG6+fiRw89qN5HMPvMASTz+e7A3CE5yMBrxkjPu6999Xj84tFHcMJxxwjpCqCxoaF9tsd0RCZx7Q26yj++u0HiwKVml156IZ566pc487TTlKJM7FH9k3znbJ7aryTvNuWC0Xbodm07TDr1Ai7F7mswFVRJWLaME+s00dmgltoEL+n+dKvsHMxHM2/nXnkVTv3GKcoUcUDkCZFepr0t147lxpTQ4EBjYzPO+Na3cMUll6jEcV/azvaahk7SxzTTmxmvrpF2nzoaw1L5Z8y2EOqTjnmgrhiwSz+eac1RsrGLvP50+RgSjEvQVePuQxi2Voy0qeXtaQlqT6fAbBPG7ArrbN/Gw0RPpfOFgM3OE1hFUEhPwFEj7qtwOGlFygqn2waby7DbbedMh5uzDm3IyfNi/2lzUFQwGJFoXG36UYRDYJAJCVcqCKdouSFcjeir+iJCj37UD2lcLFMhBIZQMCp2eoPj4XxOCc8pYUSE7GzNcWBFjhMLnXa8I/FdE08gFk0gJyGkQ5iqTcKk2LQms4zDACU8LrOyCPGgs8l73Q4Xqt54DUv++Wu11EdFZJem0zuYlbGoIA+DSkpQXr4NcRE+UWpi7cLAglzJO4/kZxYZh82mBHK01Y0tlfW7jLDubWBZMIXxSAh/fHke1q+rxOgxYzFo+nTMGi1pNg5MV2llautCcSxfsgirP/gA29esUYqBLy7UKycX2VKGOZIHp5x2FkaNHGM8p0LX6Aok5jaHQ3UWbEesq2qZjiiobDNse7QKZ+5HUL8zdFzrbn6mf+/pvvon71b6RKqKW1J1XW3olTbLvVo8IbkrmO1mWNlQ/PiHD+DSiy+E3WZHk9SXVkkHR/Q6dtyZOIbLQQ6HdIAkL3V1dRhcWop77r4N373hWhVeRNpblsSTs6xK9omcMB0nJFTaJCwTjIfT6ZI4dWDVXUCeFllqWOFrv5KKXyvTnfpuwi7+HA53e3r7CnwVw2a43CNHsO6ofGJc5Hd6PNgWaU2M1rt2F6qjFpQOHoSHfnAvnnzs5zjl6ycq62UNQvq4R4D1lPWaA1KMG0fb6ZhfdGrdulznd4ZHQwLc/9Akz/Pw2O+ccxae+u2v1LknQ4eWtqehTWRux/T0CPGfvj6+r2Dmw/RpU/D4z3+Khx+8HwfNPkjSlYXmlhZlSppxZVrNtsDfHV0m6PgMw2P+qTYk30kySLi5jHDOnIOFAP0Y9997L0aUDVPPm3HdE5CwsN1Jo4c9ra4xLlyuacaNUOWcVuZ9DZ6/I2+U8I36xNea+WLGw4wL24WKTy/iYZYXrYT94L57FenNz81Vsispea3yPRVe+vt6cgRlPNsKZ0t45olX+s3v3jgX933vdpERdkTlehvlayrv+BzLj65N4mXKLjM8guej8dlukSZ6GK4xCyf5kipLhqfyL5WH8kf9pl+byMWM84/1kgOu8kmYcVVhpsJW342bUoaie9qcUp4ZtOVeQMmdVLzN2TxTNqrv4uSX+s50sh1xn19/HVXQt5J/L4U3O1cah1NltDnzQHvfFBzsqFxOcR5alWKHSAWgDUWFXpx45EmYNGqWWm/NzeJqAIGFwwojhcdZkHZGKmHKF6nABlM1SIdUzjZWUHb2IhCFINC2OK2ntCbFyadh8swYmbCJwHKK34TdijqPkA6vA694svCyvQ2bxI8rbkF+UpQC8W0T/w6Jip2zHvKb30lEHJJGp8sNeyiBdX/8HZYu/IfcJTIf2egKTOKokaOxZds2NNXWCIPPQlTlicoVZEv/7fVyw7x8sbkkJUm02dzYXhtEdeUOw+NeVuUouNjQouEAnn5pHlat24HhZaMwcOp0HDAmH0M8hj/VKMWfT4jnio8XYc1HC7Ft5QpU11bCL2G0uj1CUD2wxsM46ujjcOTRxxsPavSIRCImipax/p1KONsOOyNa6qFSyEPjuOeKzkkn15xyTX2m/LRfS13nM/xkJ8TvqjNK+26E2dV9mrrlp8RBOjx2rEpgi+Mn6zqVSR6ix42D3cHUcXhg2ffuvQsPfP9uTJk0CX5/SI3AssNNV0b5vSvH+5RPrK9cvlNdV6viecH55+GPv/81rr36SnXSNUF5xYOu2HGz9qpBFp4NpCz9SNokHDNddExPIOBXhxV2B8aD4KblaDQsZWZYAjPixnBNtzNsPsPD9JqbfSrP+gZGvkelPfpFuU8omSoKvggpVXdUHJinTokD42IQWfYBNCtMi1K7C6aH5cp026XOnHjS1/DEYz8T0vEozjj9myguKlYjwS3NLWhqaJbPZrWkh3nL9/I7FePGpkblhzNQida49DmFOO6oo/HIjx/Eww89gJkzpqv3tSsmgmZfE+JCvJlOdjs9g88a9aevYeSDobIUFhXiogu/gz/89kn87Cc/xjdOOglFBQUqvQ2NUs9TRkI61nPWZYJp/JRTdwwoZSj1DJ/nby4brJc2xHrF/m3mfjPxg/vvwa8e+4Va4iaXVDiMI5/bXZhx5DJIkvu41DmlS0jdJgEx6zyJuknA+V62QQ6yxUW+9TV45k8kJHGRem/mC9uzGRez7dEpRb1NCK3IAsa7N6D3ApEpN3/3evz44Qdx8EEHKuM59fWN6owjszzSy7Qzx/uMHz9pYKa6pkYNRn7z1FPUQZ9333EbBg8arN7JAZ+gP6DSyLjvIrtS7TpddjGvw2rZXPpy7e7Bg+7Ckn+UG6wnDGfX/DPCZ9xpjCEheReTdGeCCAdiRd4xbNad9HA/FXf6j4RFDvhEH0wpU32EoJQPz4/iQF17PrbHhWUhstFiDHjRxSS+Pg4SiDztD2RJQfWu9u1DoHIt2ShsvAE3PnQh1m5Zhbwcr9r4bRFFmYqmlIFUCLJmYw12W8KK+uYGTBw5Hr986K/YUrkOD//6JvEUV/a+nS6pJKLVi4qqWiLX/MUjPAxQhEqMAkaUkFBcCjkuBRdUU48cfaCdfqMDlqDUcgK+15ghUUs2Uo6LrSgWjaVXWYhJBKnQ5CfbMD3ahgPDorjE2xAVkhORWNC0GQUIw6Dew0qVlHC5wiHZEkDWVyZj9r0PY0rZkewT5GUqa3oN5g0bx5//9Hs8/sSv8b37f4CpB8xBAc1v0j6vgLRpdW0Cy9fWob66CpHGLWgJt8EXaMIJM4fhpBO/ovztbfBJh/X06x9iW3kjRgwZiYETJc/GF2KYd9fMaom1YsUni7H83fexbtEibNu+DS3SicacLhSWDUSbpHP6lCm49pY7MbBkkBKCZkel8WmYdYodz6mnnYX5896H3Z2t2gDbDLmxGpChPtP3ulIGYNkZSo+a1ZT/arO5dJjhlnocf8IpeOYvT4uS2POp8JSyZlVYu3Yd/vWfl/DO+x9gw4aNShnlszTNydFQjjDtDCtLOi3O5nD/WEw6emn1ElZurheHzzkMF11wHo496kiJEwc1mKdUgrIkT2tx+pnn4IN334DNTTOUxggds5J/qKxS/pn5yo6U52D8+IcP4aabrlfXOkuTee2V1/+Ls799HvyNLXB43Kqeqz0fyo+xTIl+OUJBAxuxkB/DRo/CP//xN+w/Y0anYfcGZt1ZI3l50qmnY/PatbCm7PWTIErKkMWZV3mFSqdc4UhsmGctCGF9/m/PqNmIPY1HRyRak1i5bAXmzV+ozkBpkrKtJ7EQGROUjp+DW5TrLunwBwwsxtAhQ4SIlmLw4MEYN3YMxo4drc6FIkz5kR7Hu++9D79/+i/wennSsFGhzHqVDj5Lxa6urlGdEfKXPz6FQQMH9Xl6uwIV81Wr1uDV115Th1SulO9NTc2KnPHAOJYdHePCeKr6k3IsLVZypkEtWRKnvotjuZNk8JyPgQNLMGHcOOw/cz8cdtghmDlzfxTkGXlH9FVazbr212f/jgsvulj6+zAc3hy+QOJrtDtlUUzqmappok9w+RTr2kGHHoLnn/kLhg0busfxSX/+qmtuxJO/fBQWp1flH8kE65Z4ET9GnVH5KGD1iAb9uO7GG/CjB3+glPbexEWyvb2ObS+vwL9Fdr359jtYs2atmsmTUlNtSu1VFY87w90puziQRKJG+eTOduGgWQfigvPOwUknfBUuj7F0wJRdNNl97ncuxAt/f07atHG4pUqb+LF0aNOULwkhdcloCNdedz1+/uiPVVg9pe/cCy/FX59+CjaXV2SuXeoZCQfzzcg/ynuuhFF9kPjnPs7b7rwdD3z/HrlvlHk60t939/fux/333QeLg5a3OKvAWZRUBgqMFTKMuzyXEJ0x7MPXvn4y/vbsn+HN9vYY955gPv/7P/4ZV829TvTRCKypQSrmo0oR45CqJ6rdCRFhnzZlxgF48V8vYOSIYXscj474QpMNVVOkRLm2+JaHLsP7i99GDoUENXHJbzW1lEo9PxT5EP919XU4dvZX8Mhdv0UsGcHND16IdduWojC/QDpWYYcumzwgAUjWsUknSDA42iHKaEwIRySaEHYYQWlRmZATL8ort6KxiRvoRFFg4cr726c2acHKalPLsSxZXMIglUGCtjBkEiDpvPgv2sZ0tGKY3JwdtmCKLwGvNM6oVJioxIHkhGv01NITeZ6/LRGJi13Y+KWHYc4F92JSwQEqrWa+9AamwF2yYD6uueEGfOPUU3Hyt87GgAHFKMqWTp75Kf52yDuXrG1B+TYhG03l6syJqpYoSpwRXHXOSRhUaoxe7C2orqzEb1+aJ8QwhJHDR6F4LIlGAYbxMGZJEZsHG6NfBNrSJR9jxYfzsXHhAmzaugm+eCvidhtyBhfByZFJIaM33n4vJk+dqsLW6B6mMGMev/nWO1gtiiMNLbDz4KZE3mfLNGoqa5eg72RfxsiStpclHZFUA/V6Lk/iiCLPPDj2mKPU0ihGtSe5TIUg3WBDVWUVPl62DB8tWICVK1eL3GlAS4vPGOmWzpkKG/PD7fagZMAAaTuDMGjAQAwfXoapQmoPPeRAtZGSMOtpOt54422sWLVKDXIkYhKeRJJ5Sr9cl6tmX22SNhF+vMdD1I499hiMGG4sPekOtXV1ePnl/1Mnt1OWxaNRY4CEklT+M3xloYgduMgpytfRo0ZK+Ecj25OaLtwDmHWHMzevv/4Gtm7frkaZOeqcaI2p8uBb2clT8WPeUImgQpOXVyBE42soLi5sD6crGHUwBck3pqMzME8ZTsew2Kf4/D7UNzSKksyBJ7uxjETKpKio0OiPOkF6vMzvkWgEc6/7Ll559b9S7p5Oy9wE73EUtaqqBkcdeQSeE1LMUeGe0rsnMPOqY/gkvh/NX4DFi5co631cYsXlYi0tzQgEg2oWiFbTkkJ2OdSm9kyx3DhIZ3coZVqNxjpd8EhfM1SI2fTpU3Hw7FmYPm0GSkoGpN5koK/TaIa3TerY6/99Q4i59OOiQHJGloqj2oDPOi91ne2JHbCFJES+jhk9GkcdcTg8Qsj7EgsWLsbiJUtU+XPkOpHgbIsxMElZqTZzU6+UIqEpfjtsOHDWTBwwa3/V7nuLjnlaX1+PpctXSDwWYenSZaiurZM+1K9mDRkXzhxQmc0W2UULU4NLB2JQyUCUlQ3FpEkTMeeQg6T+F6uwOqvH84WsL1y8WPLUImFJP5vqD1SbFh2H11lH5K+aIeHm/yMOO0zCnpAKoXu8+8E8LPtkqapbyuqo1D+SRHVWh0RF5Z+EzwbPQRTuvZt98IHYb9q0VAhdY8XyVXjn/fdVmhhnyka2DCPurCdG2Gbcac30ACHKhxx8kBFAH6GyqhpvvPk2mv0tolVaEGM8RPc0Z+N5bpzqAyR9jCuXco4T8v61E45X6Wec+64VST5KQRtv/oLjp7/9Pp5/9WklrKSqypWdJ3syo5kJbIM85I+H+l1xzndx3qmXqft//teT+NO/fg6P1wW3sHC1kVz8tgqxYPZx5IXmcllRuRksRPO1gSDOO+VKfOP4s1HbUIWKqnLU1FWiSr7X19egsblBfu8QV41wNKCs8bRyyZVUeDJhm6oI8umwwi6VwWKRRiHv4hIrLlUaL4x4cmUYI5pa4ZTGF7fJPQoeEThISiVXUkYqeEsSgf1zYb/iaBw27RKML52t0qRaET1kCFPY+KWDuPTSS0Se2nHZ3KsxfsJ4DMovVA2IbTMkr12xI4ZVa3egWdIWbKpASzCBuiYfTpkzGt88kWdO9GUV7h3ShebGjVvxhxffhhB/TBw3EQUjx+GA8YUY6TXyhi2DMrBFFJhVS5ZixUcfYuMnH2PD5s1oko4/aXPAM7gY3qw4HFJ+l157PY459gQVtoZGZ2D9o7yhS0dVdTV8zX516JWPS8pEiU5KB8ulGTzcr0A67OKCAlGQi4xKmQLlD126IqCxb4J1w0R6eZoDPdu2leOyq+dilRDT7GxPe13qCLNLpyLFenX2mafjycd/rq6ly7/+RFf1nP2iX+q33+dXSzYam5vR1NyImpp6+WwS/8bSrHAkCq8nW0h2IfIL81EofYw3J1uIajYGDx6EAcWGomrCbAeEbgv9h44DJgT3jHEGzy9ko9nvFx1K+kbRh0juOUuXL6R6QEGhkl3mPg8TZp3XZfbFx5eGbLzw2vP4+e/vhcNFFu1Q03uq0Vjb1EiTKRT9QT+GDxqD+777M4wbPlldq6jeivsevRbb6jYi1+OB3WVTZEOdxyFOMVYLpzCFeAgLp1WYZp8P13/nXnz7G5eoMEyQmFCRiMQj8PkbUVVTKURkG6prdohC3oDq2gpFQpqa69AiDTcU9iMSDcPSZoHb5YbV4YDd60TxiFwM8NhRsDWIoVsCGOGLIafVgri05bCkh8SEXCIrHOe6AgQvGQ/LzHGYVXoGZow9Tt3rLeEw8cD378O/X3kZ53znfBxz/HEYMaQMOW6PmuxhaOXCOD5e14ztW6oQaKlA1FeHmuY2OCwRXH76YZg0IbPRh75GemqXr1iHP730LqKtdkyeMBlDhDTtNzIPQ9WMxk74pNNbSaIx/yNs+JhEY5MQjRgSDhdyBxTAaxWSGAninIsux2lnnJ16SkOje/RFJ/tZKY5fZgRFMd5aUaFm2zi6TvlBOaJGJ1Pf1Wy1/Obaa56qPX7cBOTne3dRgDNBZ2WZXsZ//euzuPf+B9VINuPCe12RDT7Dz+amJlx/3VzccdvN6t5nXWd2t57TSAOXdnw6dbtid8PX2H2Yed4ZmcwUn3U91Pj88YUnG2al3lS+Drfefw0qmzbB5XAjQetBWdx/QcHMtaOc7k8inmzDd069DBeffp08vbMh/eH5x/DMa0/CpTaS2sHzNoTmK8KRJZ/cu6E2jUt2BnxRdfDSLZc9hJOPPROxOE3GpWYqbEaH1RXC0YiQjGa1EbC2sQYV2zdh1frlWLluGbZUbEJDcwMcEs7QwcUYPmkgcgd7EaoLwLm+ESMqQij1xZEbkQ5H2nFUhHWrpRXJ5iiyThqD0DdHoC3uwn6jv4UDxp+slhf0BmZevv3Wm7j11tswYco0nP2dc9Q+heKCQsPyjfhjatdUxrFqDWduahFp2I5IKIQdjVGMGeLB1WefgIKiQtUZ7q6w2hO8+d5C/OvtRbC78zB+7BSMnDAKM0blYmD6iX2CxmAIqz75BKs+Woj1nyzCxi1b0SxKR6vdAe+AQuQ6LIhJOZ30rdNxwcWXqyUSGhq7A7MDV5A2ZrbMXa4LdAf92eL3f/gT/vzMswiLLOCAEumFGmTiUty04QvumaGxTC4JOuGEr+Ku226BN4frr9m/7J6MM4rekLnbt5fj0ivmYsXKFcjJyZH3y7u7kJ8G2chS+wfD4QB++ND9OP+8c9W9z1vJM5LUeV3vCeltQbeDvQdadmlkAuv3BKnvX0iYCm1hXrEQgABWrFiBYCxoCOo2YyMQN+xx03Y0HsGUsfvhotOvRa43Xz1rThva7S4sXjEPgVAzbKLsc/9EMimCXv6zTcWi3AglQl7uscPJdnvx1SO/hWGDR6g1geyYJDj1nBmu8X3n6BQ/qbB7PV5R3gdgeOkITJ04E0fPOQFHzD4GhxxwBEaUjsaOqu2orKkG4lkoznFi1OhCWEYVYutAF7bm2dFgl3TF4sgOt8IhcbSH42hzSGc4YxBaXXGUV65ARO4PKhwLm9Wu4pOJ0m/640bDDz74ABvWr0OJfKclEq/LrTa4coMYd544XFYEExbJL25sTSAZ80m+tWFrbRDBlibJ5zJl7pSdcabv3x1Q4Jlhh0Rh+Merb+O1D5YiJ3+wkKXpGDdpJGaOzMEAWsLcqTugtqkFSxctxuqPPsS6JYuxcfs2NHBdrNSD3IHFyJc8jrTU4+gTTxSicYWknQdGdT7SqKHRE1hv2l3qGrHLdXEany3efOttvPrq6/AF/Mq6i88vn8EAgpGQ/KaLqD02PBdAfRcZs3btWrjcLhx04CxVZpRBlHG9kXNcOkWvVNA4CPb9Bx7CWxIXT3a2krE9hcXlSDRawn0al1xwPoYN7/sNn7sDxtisy8oZl3fJo47OTGf6cxp7D9LLJb1kdrkuTuPLjS882WAlNwXWlElT0RayYflSUbYTQVF2KXjZQESgZ8VpqBVnfvUiHDzzyPZnqYDys6iwGOs3r8b6Lathc1KdlnCThn5qLp8i2RB9E6FIGIMHluHEo7+JorwStWFK7WmQf8bmIPkmYTJcc43qTuFqkhDG2RgZoL8cbx6GDRmJgw84DPneYrz70Zto8vmEQJEEAMOG5goJyEbbABf8g7NRXepBTakbgTwnWt1Cjoo8yBqfB3dRjjwghKNmDXyRFgwuHA+nKNCZQOWHgKbbIvEo/vfG/5CQtBcUFijrONnSEdo5cyPePBwEtDsQjLYhrDbOJ2CN+4XgWbG2vFE65RZMHD3EMJMrMMPuSzAPzc510/ZKPPOv/+Lj1dswYOgYjJswDZMmlWHaMA/yzaMFJArM8eq6BixdQPO2H2LjsqVCNMrRmEjC6nChoETS6hQi1dSA2UceiYsvuxq5OYa50f5Ig4aGxmcPc5CCZ2X894231IF93NjOjZO0GEajAIYzzH5SJvIeTS9HY3GsXr0GNosV06ZPNTabKtnQpsIlzD7JBK+39wPyT/UTcj8UDOPRx57Es889r+STWj5FgS/3upI2fI7OL6Ro9qwD1B47mo3u+M69CWacO3MaGhr7Pr7wZIOgwKL5RdoULswfiHfe/ABVVdvgyrYjKkQgHg+LYPZhypgDcMG3rlKzGobaaQg7pbRmcamVBQsWfYBQIiBh2UArK+lEg/0IZ0rC0RAOPeA4HHfIycqiBv2Q0IimrQjHTgFqDKWbQtVwpuDdOQJljP4bJIRxmDh+Mip3VGHx4vl8GqFYUpT6OIrzsjEk341cniGQ44JlSC7C4wsQmVqI+KQiWId44ZD4uCTubdYEKus3oK65EgXeEcjxGApzTzA74SGlQzBv3gfYuH4T3NIJcxMrN/R5stkhG9q71yV5Z3UK+RKykbSIS8CeDApBAdZsrUNjcxPGDBugrO0QRo7vOVgOZj4m4gm8NW8R/vbSe6hpiaJs7BSMGT8F06cMxpTBDmSnvZCme8uFlHy8YAFWz5+HDctXYFN1NZo5yuh0oWhQIbxOCwL19Tjw0MNwyZVzMaC4xHhYQ0PjCwNTMaelo7feehdbtm5XCns6WejMUVaTXPDcmI8WLMSmrdsweNAgDB5YomQ65bch3w3Bky6reE+5lOx/59338NAPH1H742Ii32nByoT5fEcwDrxHU6O0eHPd3Ksxa9b+u9zT0NDQ+Kyxz5ENc/Snt0JTugL1zOYNm/D2fz+Ar7kZ0XAMVqcDg0tKMWHYTJz3zcsxfZIhmEWcpz53CvbS0qGora3C8nVL1EyIpc220xKVdDLcAxGNRZCXU4hzT74MY0dOUrMaXD9rOtMWPWNkoGM6+Nu8Znzn+9lRMRpG2i0YN34Cli5frDYs54iCHwnE0BKIqBPRc/NcsDuy4ExkwSPPFGa7UTooB3m5LglNOkQSL47KWYE631ZU1kkY7iEozO1ZcTbz3iMEIxqN4d3330OMHazdBo/bIc4Nd3a2kDGrsvmVmy0dp92JYIyniVuVOU8HQkLKklizvR7bKmoxQOI1oLiwPdXtI3xc3mZe7ALsrM2ZIDNu5jMbNm/Dcy++hfcWr1H7M0ZMmIqxEydg5rhijCuyqsMQTUQSCWzcsAUrFi7A2gXzsG7VSmyurYeP8XVnY6AQDc7W+BrqcdBhh+Oyq+ZiUOoQIg0NjS8WTNnDGYbqmmp88OGHagaDv3fKma4d/XIp1JrVq9U5E0tXrIDPH0gdQulqJw7iNYU21NU3omL7Diz6+GM8/fs/4ae/+CWWyXM2C2dOzNkRPtO5UEyPl9/vx8wZ++G6a69CjnfPbfdraGho7An2qQ3i5qg6HaNt/jbRnTAlIbDaLHjxHy/iN0/9DrW+CnjsXpxz4XmYM+dg5LkLlPKo7MIrwcyn0sMzZiEaW+rxy788hLc/el1+G8fqt0bNTkCU0aAfXznsFNx+xYPIzc1HLBHh4ikVX7V0itPjyjfD+3R804sjPW0GzLF/dipWvPXh/+GG269Gc7gOQ0eUKBO5OV47ho0sxLDR+fDI92S4FcGmKNoSSRSXeFA4yCPESGLO2ZZUPgZCEdhaB+KgyWdg+sijU/HjuzrPT7PjampqwtxrrsbiZcsxVTq2/febhv2nTcHEKVMkL4fClop/SJK0riaKtRsaUF1di5bGCoRbauFvCaLeF0NBrhuHHTgexxw8VYjfroSHsZAXqu+dYSd524ntFZV4f9EKLFm5AaGYFQOHjETpqJEYO2oIppZlYwAPITSzWb76QmFsWL8R62jWdvFC+b4B5RK3iCTf5RIiNKAADiGXLZLeI446FhddfiWKi3a17a6hofHFginntm/bjosuuwqr16yBVxR3ysxPy+ZPg35IOHgGE/cDekSWDCsrU3ve8vLyUFCQp+QLD2vkGSv1DfVobGpGvXznKeN8t1vu00Q7RWBPr1R9jDyjDn8MhXDvPXfhyst3tYaooaGh8Xlgr5/ZoMA3hbvpCH5SsKZfp1/TP8FP/ibMMzX+8+K/sHXHZiEeQFFOCa64+CqMHTsWObk5atqZMN7RUbLLbwnW7fKo2Y9sSwkqy+vR7KtXB9gkaKFEnps5dRYuOv1qDBsyWs1qMCoSOyMExlMto1I/Bbu+w4w302WmeVfwN/3wngUjy8aA5wC+N+8dtSciNzdb3fW1RNBYE4S1zQJ7rh0+YRe1dSE0N0mnl4CKazSUlGeMTSckKIlEE+qbajG0eLx0igWi5Ms7OsTPBOPF+LndbmVx5Z2330FjQ7MiBjQp7LLb4HV7hOzw9E/ALi7fa4PN7UICDiSSNiSZE1mtcNtb4QsEsXrjDqzesB1NLS3wepziPEb5pt7XpVMxosniENZu2oxX35mPF9+Yj3VbauDIHoAR46Zg3MRxmD6xFNOHuNXGbgUVMFAjnftKIUtrFy3EuoXy3IaNKPeFEJe6wOVhgwYWwJKMIiD+vnrSSbjwsitRVFDURfloaGh8UWC28bz8PNgddsz78EO1PMncT9Ed+CwdZRhnMXhiOPuHxsYmbN++HavXrsXCRYuxkIezfbIUmzZuQk2NYe6cpnRdTqcyuJH+nu5emS6PGpuacNQRR+D6a69ETs7OE7U1NDQ0Pi/s9WSDAtQUolRE33zzTbzx3zdQV1sDq92uhDlP2eVhMfTH30pJTT1nfueeildefhGvvvyyKLtxOGxuhAJh7HfADAxPOzG3paVJCW5u+PsUJBokL25nNsoGDsfKxWtQuaUJtpgV9ZV+HHLgCXjg5h9hRNk4tXeDCrtaf8tjI7kMikGo+FAtJ/kx0sX3mWB8ifRrBpge45PPtrbyFHIL9ps2UwhPA+Z99BFakwnk53mMvShCPqp2BFCxtQmxUAyDBntRNNAjSr4F0bjETPKDZCMWTgpZSiorJwPzJqOsZKakzysx75psEFlMk9wfPXoM6muqsWD+IgkbiETiCEejcFhFWRcykp3tlXhmqSVLhdlW5OS5YHPwTA6DeLDcHHYhRVbpJBv9WCGEY+Gy9Vi5cStq6psQCIYREzLHE5ujiajEN45ILIqmphZsqajGJ6s34e0PP8FrQjLemb8M5ZUtcHKWavg4jJ4wGVMnD8eMMUUYm29VpMdEUkpnW3kFli5ego1CNNYuXoxVGzajJip3bDxIzYOSkjy0xkOI+oM45fSzcNGlV8Ir6SHMOqmhofHFBNs45T0/J00cj/raeny8dLncMTZwE+lKfjp4jY73TT/q5HDpV7jJWy03FcdDZvmdMxwkF9xwbvZZZh9ghKW+fgrpfswEzjIAABV7SURBVIhmkYv7z5iB+753N8aNG6uuaWhoaHze2OuXUfE49/qaGixfsQJvv/02Vq5cgfq6ethsVgwcNAglA0pQWJCP4gEDMHDgIBQXFSE3P19ZRuKIUiQSRXl5ORYvXohlS5ep6WW3y0EagGAwiGOPOwannXaaCG0LVq1eiXkffiAC34Xzzz0XYydMaO8sTPArZ0mqymtwz913YNOmTcgSxXrrtq2Yc8hxeOyJnyE3L1vITUJZDWEXoMKQT4N4qFBSsyi0UGXcN0kGYc7GEMZ1ztgYv81OheAIGJX15kA9bn3gOvzjn3/HgJICDBtZLMTCqZ4N+WKIi4JePMiDYaOLkFcg+WLLAo+EsPBskKQVcSEbJDBDBx+EI6dehAKvcTor45Eer45gvBmfmuoqXHPttVi6fBWGjRilTnydMGY0Dpw1E9OmTMGQoWXSyRpWp0jAmmNt2N4Yw6ZyP6p5cmxDnRA/IUVBH0I0ISllFIvHmUA4nA7kiYLv4cntwkhsEncSrVAgiiAP0aI/oTIulwc5+QUoKBqI4oGDUTq0CGMG56Iszwo39QIWnNkh+/3YunUL1kl9KF+7GutXr8PmqjoEWCusdik/NwryvIiHWpBMtOHMb5+jDuyzSxrMNGtoaHw5YLb5Wul37rzrXrz06mtqeRNJg5LtGcoE+tuJnQRCpLv65MGtRk+xq5zvCmZ4BjnhYE0LRo8ZiZ/86EEcMnu2uteTDNfQ0ND4LLDXkg2uO52/YAGWL12KyqoKrF+/Ua1j5fKaZLJVKaRUOillaf2Dp3JTUDsd3BztUCNENFFIkR0Kh5RgdrucomQbMyAc2U8qZZsKrUf8tSmLVNFwRI2af+PUU3Hbbbd3PsMh+NMfn8Zf/vRnpQwHw0HU1dSp8zXOOudc3HTzzaKsGtPXjFNnMwTJ1oTESeiGkA7uvzDxaaKxE+n3VGckP3leBy1eVdZuxfd/ehdeeOnvyMnxYOz4UpSNyIPTbYfPH4GvIaJmEMpG5aFsaB682S4hPG1qIyPPv+C5G6FoDIML98cRU89HScEI9Z6eOitGibcXLVyAudfdoPY/DC0tg8vjxvDhZZi1/3TsN3UqyoaPQH4erXwZIEWoD7eisjGOilofamoa0djsRywkLuhHPBEREpRQ5RGPRdCWiCMh5c2ctJB0WBzweL1we3LkMxdeIRr5RYUYMrAAI4VYDcqxIXtntipwideO6kpsWCvkYuUqVGzYgE1btmB7nRAdSYTT7VYzQ7nZkmcN9fDm5eHscy/ASSefqt7LOpSJEqChofHFROWOSjz0yE/xr3+9qORBjjq4z5DLvZMPpiy3KLJhUcNOmcEkJATN69LoBpdnTZo0AffeeyeOPdIw3a6JhoaGxt6CvXYZ1fz58/HUb36Lt99+Cxs3bUYkGlGKsTI1m0goMpEnyittn9tpCSnbo6alDXJgmCBsbRWVVsgEl/xkwYqQKMItLS1oamxBvQhnn9+HpoZmtDQ2q2fcThc8LpPMBDFyzEhRnIeq+DQ3N6F8eznWrFyNv73wPF54/nkJOqlOc6Vfyn/OVmzetAnVVTUoHVSKASUDFNEgKeIMyLJly+DzNar9IU6HW3UEinRI/2SaO0znfh07Lv42nerYSFQ4QyL9Vm5OAQ6adaiQnyysXrcWW7dWIBZNIL/AheKB2XDl2BEOJNBUw9PNW0WxFuXaKWSMREfCsAthsUpQ1Y2bsb1mA3Lcg1GUO+hTcegIWoKinyFDhqJA0jVv3vvwBwKwWm1olryua2hCNBYWVtsKl80Fl5QT000ekGPPQnGuDSUDPCgpzkVBQQG8Ofnw5BXA7ZWy9eYhJ79QuVwhErlFA1DIfC0dhoGlIzB42AghTyMwdsxwTBo7GFNHFmHCYBdKJG3qCJUUmFeNQiBXrV6D5YsWYsMnH2PjqtVYu3kLKpp9kEyTd7lRVCj5ZGlFc2MdBg8dgcuumItjj/+KIhpET3mhoaHxxQZl95xDDlZ7OCjPa2sblEnc9GVVJrqXF7xn3Gcf0RM6hqvIiVwKSd8TicVwyMEH4fv33o3D5xyq/GiioaGhsTdhr5rZMAVkfX09HnjgAWzaskmE5xxUifLOJVSMaLZDCIHXo2YUlCLflkSC5ENIhttu7AHgmBFnRgLBAHwtPvj9ARU2N/xme9xq/wb3VPAAJp7W7fI422cwSAyikaiQmygmTpiICRMnoEmIxrZt27FjR7nErQ4tzX7lv2zYcDUz0dDQoOLAE8ljybi8vw1Dh5RhzmGHYvDggdiwcRPWrFqHRklXsSjNB80+CAccNAsz95+FvJxcNTvBtLATMUfJeuooTH9mh8Z3q/5HivOd+a/j+Rf/gmWrlwqZ8WHwEA/KRhfA7rXB1xCDvzEGlyjYZcO9KB3iFZLmkhjz/TwTJCHEyiffS3DwxDMwa+IJsJGFqNzvvFNM79j+/PQf8MOf/ER+21EyuJQRVFa5xgpxmzZpHKZOmYJhZcPVuRyceUpHTF4RlLIJRYFALIlAJImIOFoSU8lVpMiirG65hVR5PTbkOC3IcQA0MPWpOMpDdU1CEssrsIkWpjZuQG35VlRUVKNS6kVAyJjdaUWONxv5UqcS0RCCgRbMmHkALrjkSowfPz4VkIaGhoYhX02Z++LLr+G3v30KSxZ/goTInlyeMZS2tIowl9J2RGdEpKeuOJ3QhEIBhMJRjBk1CmecfhrO+NZpKCsbou5raGho7G3YK8nG2rVr8eyzz2L27Nk44YQT4A/48OgjP8Xf//kCvC4PJkydLEphQE1pU2ZTSaYSSmHM5VVNTc3K3GBeQS5KBw/FsGFlGD1mlCi8Y+Fxe7B18xYhMFWIxqKoF6JQX1+LcCSkZhfURIEotjG5x9Nbo9EIWoI+xEQDbpOXcb8G38P9IQOKixEOh9XyLsadOcnOhcQjJPHgngqHzQmHkBq3xwWX06YOvMsSRZyHBE6dNhXnX3AeJk2emsqB3oHvTO+0WJSm0h8OB7Bq43KsWLsUG7asQEX1KiSy/HB4rWpDeDjYCluWHQNLPRg2ogD5+Q5Fkng+RjzehqaWMJB0Y9qor+PIGaepfOsOfLcZl9//7nf42c9/gUQSGFw6WG5KvjrkXSUDMHr0CMyYPAnjx44VojNEmZK0kiSm973MR/nNQ/aEE6p85W1WVL6C3Ic0Zecj6o7xVcDzP2hCcnvFdmzbuBE7tm5FbeUO1NbUolrKuzEUUwsXHA4b8nNdyJGyCbS0yLsS+MpXT8RZZ5+PAQMN07bpREpDQ0MjXdbtqKzGf//7X/zjn//G0k+WIp5sVTMdanmqOJMgUI6YSP/eEemyhoY1TLlGK1jsV/gZjkRQkJ+Pk0/8Gs4799uYOXOG8kNoeaWhobE3Yq/cs0EFnocSDRgwoF2ok1w8//zz+M9/XoTd6VAbvSvKy9U9TmkrBT8YQp43F9NnTMPsQ2Zj2n77oUwU2rz8QrWhj1i4aAn+9a8XsHH9elRX10jnEIPTbofH4zbIQrJNbSpvamlERAhLUUE+hpaVqZmKcePHqZmMlatWoLmxCXFRarlpkHtCaIEpEgyq5V6trUJIbFlq9oQbz7khPdebg8LCXEQTogg3+NV+BmWCVt5x5z2345hjjlXx6w06kg2CMzO8ZhHSYCIUDWJbxTqs27wAGyqEeDRsQmNzLYL+GBLhVuQWeLDftFEYNCgbkTafdGZhxETTD4WFaLUkMGfKt3HiwRcKUTLysCukd8LPPfc3/Pgnj6ChqUXZladVKokU7NIRFxYUYOTwYZgwdgzGjhqBIWWlyOXSKXe2Wh5HcMu6mTJ+poxfKeyaYoHcY5z9gSDq6upQXr5d2cavFTLa2FCDFrlW2+xHUzCiRiCtVjucJBpeIYLWNrVErkDqyFnnnIcTvnaymjXblb5oaGho7ERHpZ4H//3vf2/j5VdfxerVa+Dz+ZX8pHCi8QoObCj/IiM5+05wKZS5OdyUm5zlTiaSKnwiHI6qWXouFS4qFLk5chT2F3Jx7NFHYvbBB7Yb3kiXvRoaGhp7G/Z6a1SEKdjXr1uHuXPnYr/9ZmLOYXPw/vsf4KMFH6ExZZ1q5v7749tnf1vNiHhzclJP70RzYyOuvu46bJBwCvLy0CIEhoQhGArz2D1RMp2KLAQCPjVzcdxxx+PoY45RZmG5tIr7PbZv24JtHCmvrVVWsapratXhdtTtuVxoYHExRo8bhzFjRsPjykZ5RTkWLJiPjRs3Se/SJmQGOPCgg3D9jddh4ICBeO2V/8PIMaNwwglfbVe0M0VnZEOuijOWYzHPuLrX1JpZ0C2BRlTXVaCiZiPqGipFQW+C3ZqNcSP2E4U7D42BzWjwr0cwVi+EI4pgMInRg2bjqJmnwynp6Qnpnd7/Xn8dP3n0UaxZvxb5ucXKShVJEGeIHEL+8qWMBgwswbCyIRhaOhilgwaiuKBIyGGO5J1bWRNjJ0uCJ4GqBLS1ZiGRbEVcOuRINIxm6dQbpFxZFjW1NaipJMGoQ0ujD6FAizqw0C9lHI0LCZNwaHoyJ9sJt92CqJDEeDyKyVOm44yzzsWBKQsuGhoaGpmgI+ngkt3NW7Zg5erVWLRoCdasXY+q6ioE/H5l8IKyq006gdZkkrzDgMgl6YjVYAw3fNPqHQ2ZKBO52R4MLxuGQ2YfiNkHHoSx40dhYMnA1IMGOsZBQ0NDY2/DXks20gWo+X3RokX4zZO/wTVzr8L0/fZDKBLBimVLsXnzZhQUFiqSkW7xiOCzdJzSXrVqFW6/4w4ce/QxOP7Y49Amyn9ACAc3+v3nn//GuvVCQgoLhMgchlNO/QYOn3O4dBAxPPH4E1i8ZDEaGurVDApnQTiLUllRgZh0GvvPmoXjjjoWEyZNQNmwMkVU2FGYWLNmNV7/v9ewcuUaDBs2DOecezZGj95pA313Ows+1znZIMzrbWqPChV1Ljezcg1Sx0c6gBvf461CxCTt1izOAuSo5VW7g7Vr1uCJX/0Kr7z8MrKsFiEXg+FyuxVpYNx57gith3lzPEIA85FXUCiEI19tNvfmZItfj1p6xuyR4lJ7YoIhIYjBgHTsPrQ0c0+OOJ9PzXbFxEWjUWVZi2XDpHMM0WbjPg+HOElHMqYIZUlJCY7/ykk46ZRvYkBxkYqvhoaGRm/RlQxv8bVg3ZoNqKyplO9++EVuhfwhZUSDMovLrLgHkdYR2WcUiOzLKyiQPsaDfG8OhpaVYsTIkepQwHSw26bTJENDQ2NfwD4xs2HCJ8KZ6+5HjhrZvha2I0whTHQkK1uElKxYvhxHH3O0KLK7nqy6cd06rNuwHsUDijF9+nQ19U1s2bIFt99+uzpHoyA3V20Mj8XiaqM4Cc4ZZ56Jk79+CgYO2nW0qTNwdIsnbpva/u6SDBMG2eC3ztiDMcORDmVikUo+X2n8Udf7A+lp45K4F154AU8//UfJz83SueapU3lJOhQJoj8hInYpU1qxIvmw2mi+2A6bnUTDmgpLiFNrTAhfTJk6bo0lkOBaZiEVHClMxBPy3jb1mzWA1YAHadntPExLwmhLIhYNSfg2HHzIoTjllDOlrKdJBPqmPDQ0NL7coAwhMpEjUZFh7Mdoup3yqidpbIZNaDmloaGxL2GfIhvp6I5UdAVurssSJZtLrgj6p4BXym4HMGyOvL/z7jt4+OEfIh6Ni3LsFKW2FTW11Rg2pAzX3fhdHJmyaU6kdwbpUCP4KYWWMMMmetM5dYTxqPF8evgGjOtGFu0M23gN/aZWCxveduahecGE/DRu7U78jJkXM26rV6/GM3/9q9pQWV1bD4cQOh7I6HQ5YaEflilJUFLyh69TJovluvxgGGq/pESG+cfbavM4CQjJhryL+cHftMzFgxYZJs8QQVscyUQUbrcHkyZPxle/9nUcMecIdRYIYdYl3YFraGj0BTr2Bbsn3/c8DA0NDY29Afss2ehrULB3Jsz//Mc/489/+TPKygajtqYem7dsRo43B9defz2+/e1vKz9KwVUKfPfo6h17io6dkgG+x7i+N3VSyWQcSxYvwcsvvYS33nkH5eVVyvJUTk4esrPdQhCsiiRkCSHkeboGyZD485rKaUGb/G4TgiFVNy5JJNlok9/K6pUwEqtF/CUTSMYisNqAwQNLMHXqdMwRYjjrwINRkF+g4qKhoaHxeYFiW/MHDQ2NLwM02egBn3zyCSq2b8eI0SNRWVGpLI2MGD4Sxx5/jDrQj9n36VkFjY4gIUqf5SBWrVqJ9955F+/P+xCr165W53tw8zj3aNBksM1pV3ttHFYhHlZjdoO/WWF5GrgyBSmuVYgFrYiRYFiQgMthRUnRAIwcO0rt7TnggIMwcdJkuFzGTAbRX8RPQ0NDQ0NDQ0NjJzTZ6AKmMtqdUvqlIxqsKnuY3s5IBw9F3LBhPVatXIUVK1ZgPc/GqKxEMBhUZiDbuCwKUg7cKM4N7iyPJKPSBqvNAo/LifxcL0pLB2PkqFEYP248xo+fhJEjRqGoxDgvg2B5mdVdEw0NDQ0NDQ0Njf6HJhsamSEaNchG6rySPQVJB9FR6Y/JexqFfFTXVqOqugZ18llXU6vOwghFomrpFE3iFuTkomRACYqKilFQlCeuCCWDSpVFK4fDmQptJxRp5BdNMjQ0NDQ0NDQ0PjNosqGRGeJx49NuNz77EF0Rj09BHZLI2RX5nwFp6G5WSkNDQ0NDQ0NDo/+hyYbGXgOTdKQjE7Kwu89paGhoaGhoaGj0LzTZ0Nir0RmR6AhNLDQ0NDQ0NDQ09k5osqGhoaGhoaGhoaGh0S/QQ8IaGhoaGhoaGhoaGv0CTTY0NDQ0NDQ0NDQ0NPoFmmxoaGhoaGhoaGhoaPQLNNnQ0NDQ0NDQ0NDQ0OgXaLKhoaGhoaGhoaGhodEv0GRDQ0NDQ0NDQ0NDQ6NfoMmGhoaGhoaGhoaGhka/QJMNDQ0NDQ0NDQ0NDY1+gSYbGhoaGhoaGhoaGhr9Ak02NDQ0NDQ0NDQ0NDT6BZpsaGhoaGhoaGhoaGj0CzTZ0NDQ0NDQ0NDQ0NDoF2iyoaGhoaGhoaGhoaHRL9BkQ0NDQ0NDQ0NDQ0OjX6DJhoaGhoaGhoaGhoZGv0CTDQ0NDQ0NDQ0NDQ2NfoEmGxoaGhoaGhoaGhoa/QJNNjQ0NDQ0NDQ0NDQ0+gWabGhoaGhoaGhoaGho9As02dDQ0NDQ0NDQ0NDQ6BdosqGhoaGhoaGhoaGh0S/QZENDQ0NDQ0NDQ0NDo1+gyYaGhoaGhoaGhoaGRr9Akw0NDQ0NDQ0NDQ0NjX6BJhsaGhoaGhoaGhoaGv0CTTY0NDQ0NDQ0NDQ0NPoFmmxoaGhoaGhoaGhoaPQLNNnQ0NDQ0NDQ0NDQ0OgHAP8PsTzn9nxesWUAAAAASUVORK5CYII=;" parent="1" vertex="1">
          <mxGeometry x="860" y="530" width="285.38" height="70" as="geometry" />
        </mxCell>
      </root>
    </mxGraphModel>
  </diagram>
</mxfile>
